<svg id="Layer_1" data-name="Layer 1" xmlns="http://www.w3.org/2000/svg" viewBox="0 0 162 66"><defs><style>.cls-1{fill:#ea6d56;}.cls-2{fill:#043791;}</style></defs><g id="qz6McI"><path class="cls-1" d="M19.82,50.05c-1.43,0-2.85,0-4.28,0A4.41,4.41,0,0,1,11,45.53q0-12.48,0-25A4.47,4.47,0,0,1,15.64,16c2.93,0,5.86,0,8.8,0a1.16,1.16,0,0,1,1.08.56c1.36,1.95,2.73,3.9,4.14,5.81a.77.77,0,0,1,0,1.08c-1.74,2.42-3.46,4.86-5.19,7.29a3.49,3.49,0,0,0,0,4.6c1.69,2.39,3.38,4.78,5.11,7.15a1.07,1.07,0,0,1,0,1.49c-1.34,1.8-2.63,3.64-3.9,5.49a1.36,1.36,0,0,1-1.29.65C22.83,50,21.32,50.05,19.82,50.05Z"/><path class="cls-2" d="M28.84,50,36,40l3.43-4.82A3.36,3.36,0,0,0,39.52,31c-2.35-3.3-4.75-6.57-7.11-9.87-1.18-1.66-2.31-3.36-3.46-5.05.18-.23.42-.12.61-.12,3.73,0,7.45,0,11.18,0A4.12,4.12,0,0,1,45,20.24q0,12.78,0,25.55a4.12,4.12,0,0,1-4.31,4.27H29.63Z"/><path class="cls-1" d="M35.67,33a1.36,1.36,0,0,1-.35.91c-1,1.36-1.94,2.71-2.89,4.08-.3.45-.47.47-.8,0-1-1.44-2-2.85-3-4.27a1.1,1.1,0,0,1,0-1.43c1-1.4,2-2.8,3-4.21.35-.51.59-.49.94,0,.91,1.33,1.87,2.63,2.8,3.95A1.3,1.3,0,0,1,35.67,33Z"/></g><path d="M151,45.36c-1.89,0-3.55,0-5.65,0a1.59,1.59,0,0,1-1.43-.91c-1.43-2.09-2.84-4.19-4.21-6.32-.53-.82-.84-1.1-1.48-.06-1.34,2.15-2.8,4.22-4.2,6.34a1.92,1.92,0,0,1-1.93,1c-1.31,0-2.64,0-4,0-.33,0-.85,0-1-.22s.16-.63.35-.91c2.54-3.71,5.07-7.44,7.63-11.13a.92.92,0,0,0,0-1.31c-2.32-3.34-4.56-6.73-6.85-10.09-.19-.28-.45-.61-.36-.91s.62-.22.94-.23c1.15,0,2.14-.06,3.44,0a2.62,2.62,0,0,1,2.52,1.4c1.11,1.82,2.31,3.59,3.46,5.4.48.76.8,1,1.4,0,1.2-2,2.58-4,3.81-6a1.5,1.5,0,0,1,1.47-.84c1.42,0,2.71,0,4,0,.33,0,.82,0,1,.2s-.18.7-.39,1c-2.27,3.37-4.51,6.76-6.79,10.12-.32.48-.46.78-.06,1.34,2.79,3.91,5.53,7.85,8.29,11.78A2.26,2.26,0,0,0,151,45.36Z"/><path d="M71.42,32.24c.67.34,1.23.57,1.73.88,4.54,2.86,3.16,9.28-.75,11.44a10.46,10.46,0,0,1-5,1c-4.14.09-8.27,0-12.41.1-.79,0-1.1-.26-1.1-1.06q0-11.49,0-23c0-.81.25-1.18,1.14-1.18,4.53,0,8.8-.19,13.19.23,3.6.34,6.16,2.52,6.47,5.58C75,28.87,73.7,30.73,71.42,32.24Zm-4,8.89a3,3,0,0,0,.2-6.08,55.6,55.6,0,0,0-7.52-.25c-.62,0-.72.29-.71.81,0,1.57,0,3.15,0,4.73,0,.68.2.93.9.91C61.41,41.2,66.17,41.24,67.4,41.13Zm-4-16.23v0c-1.1,0-2.2,0-3.3,0-.46,0-.76.08-.76.63,0,1.44,0,2.89,0,4.33,0,.37.15.57.55.56,2.33,0,4.67.07,7-.12a2.54,2.54,0,0,0,2.37-3.05c-.12-1.45-1.07-2.25-2.83-2.31C65.45,24.87,64.44,24.9,63.43,24.9Z"/><path d="M105,32.93c0-3.68,0-7.36,0-11,0-1.07.35-1.49,1.45-1.49,5.81,0,11.63,0,17.44,0,1,0,1.43.36,1.41,1.38,0,3.45.37,3.06-3.05,3.09s-7,0-10.56,0c-1,0-1.17.26-1.15,1.18,0,1.77-.14,3.86.31,4a16.87,16.87,0,0,0,4,.23c2.55,0,5.1,0,7.66,0,1,0,1.35.31,1.34,1.36,0,3,0,3-3,3s-6.08,0-9.12,0c-.8,0-1.15.12-1.13,1,0,1.68,0,2.94,0,4.6,0,.83.26,1,1,1,4.05,0,8.1,0,12.15,0,1.21,0,1.62.36,1.59,1.58-.09,3.15.29,2.82-2.84,2.82-5.16,0-10.31,0-15.46,0-2,0-2,0-2-2Z"/><path d="M84.64,36.23c2.62-3.72,5.07-7.21,7.53-10.69,1-1.42,2-2.83,3-4.27a1.18,1.18,0,0,1,1.06-.64c1.83,0,3.66,0,5.79,0L99,25.1c-1.56,2.26-3.1,4.54-4.71,6.77a.75.75,0,0,0,0,1.09c2.41,3.59,4.78,7.2,7.14,10.82.26.39.71.92.51,1.27s-1.4.32-1.44.32c-4.38,0-4.14.41-6.63-3.8-1-1.6-2-3.18-3-4.86C88.88,39.4,87,42,85.1,44.63a1.49,1.49,0,0,1-1.38.76h-3.5c-.93,0-.88-.68-.88-4.25,0-6.3,0-12.61,0-18.91,0-1.39.41-1.62,1.71-1.62h2.24c1.08,0,1.36.32,1.35,1.34,0,4.38,0,8.76,0,13.14C84.56,35.38,84.6,35.66,84.64,36.23Z"/></svg>