<svg id="Layer_1" data-name="Layer 1" xmlns="http://www.w3.org/2000/svg" viewBox="0 0 162 66"><g id="Layer_2" data-name="Layer 2"><g id="Layer_1-2" data-name="Layer 1-2"><g id="jMB1ch"><path d="M27.29,31.61c-.92,1.49-1.82,3-2.76,4.47a4.9,4.9,0,0,1-1.17,1.39,1.51,1.51,0,0,1-2.11-.23,1.45,1.45,0,0,1-.2-.34,3.7,3.7,0,0,1-.34-1.7,31.77,31.77,0,0,0-.14-3.52l-2.4,3.85c-.74,1.19-1.47,2.4-2.24,3.58a.58.58,0,0,0,.05.82l.07.06a9.55,9.55,0,0,0,13.08.51l.27-.23a1.07,1.07,0,0,1,1.61.06,1.1,1.1,0,0,1-.16,1.56h0a12.61,12.61,0,0,1-2.84,2A11.79,11.79,0,0,1,12.07,38a12,12,0,0,1,6-15.93,11.72,11.72,0,0,1,16.41,8.7,9.25,9.25,0,0,1,0,4.25,3.62,3.62,0,0,1-5.41,2.24A3.92,3.92,0,0,1,27.48,34c0-.78,0-1.54,0-2.31Zm-4.44,2.76.16.05,2.54-4.09a4.17,4.17,0,0,1,1.39-1.47,1.56,1.56,0,0,1,2.17.39,1.41,1.41,0,0,1,.17.32,3.56,3.56,0,0,1,.3,1.5,19,19,0,0,0,.11,3.37,1.21,1.21,0,0,0,1,1.11,1.4,1.4,0,0,0,1.46-.76,2.56,2.56,0,0,0,.4-1.34A9.72,9.72,0,0,0,15.16,27a9.49,9.49,0,0,0-1.18,2,9.75,9.75,0,0,0,.27,8.42c.26-.08.31-.28.39-.43l4.3-6.92a12.69,12.69,0,0,1,1.33-2,1.38,1.38,0,0,1,1.94-.23,1.36,1.36,0,0,1,.51.91,6.52,6.52,0,0,1,.1,1.17C22.86,31.47,22.85,32.92,22.85,34.37Z"/><path d="M83.08,33.12c-.82.88-1.5,1.6-2.18,2.35s-.92.84-1.72,0l-2-2.16c-.26.15-.15.36-.15.53v3.94A1.19,1.19,0,0,1,76,39.05a1.09,1.09,0,0,1-1.09-1.21V28.76c0-.23,0-.5.25-.61s.49.1.66.29c1.25,1.39,2.52,2.78,3.74,4.2.43.51.7.45,1.09,0,1.18-1.36,2.4-2.7,3.6-4.05.2-.22.36-.54.73-.43s.29.5.29.78v8.73c0,.89-.39,1.38-1.06,1.39s-1.09-.51-1.09-1.43C83.08,36.19,83.08,34.75,83.08,33.12Z"/><path d="M144.87,32.19a3.68,3.68,0,0,1,3.52-.8,4,4,0,0,1,2.26,5.47A3.41,3.41,0,0,1,146,38.78c-.5-.19-.66-.16-.62.39s0,1.22,0,1.83c0,.81-.42,1.27-1.1,1.26s-1-.46-1-1.24v-8.6c0-.5.08-1,.66-1.09S144.74,31.59,144.87,32.19Zm4,3a1.75,1.75,0,1,0-3.47,0,1.75,1.75,0,1,0,3.47,0Z"/><path d="M128.91,28a5.19,5.19,0,0,1,2.86.86c.63.42.8,1,.49,1.49s-.83.62-1.52.25c-1.76-.95-3.43-.72-4.51.62a4,4,0,0,0,.27,5.08,3.39,3.39,0,0,0,4.45.17,4.19,4.19,0,0,1,.33-.26.94.94,0,0,1,1.33.14,1,1,0,0,1-.14,1.35l0,0a5.36,5.36,0,0,1-5.65,1,5.58,5.58,0,0,1,.6-10.58A6.08,6.08,0,0,1,128.91,28Z"/><path d="M42.66,34c0-4.74,4.42-7.41,8.12-5.39a2.22,2.22,0,0,1,.57.39,1,1,0,0,1,.22,1.34l0,0a.92.92,0,0,1-1.27.27l0,0a4.19,4.19,0,0,0-1.9-.65A3.2,3.2,0,0,0,45,32.2a3.88,3.88,0,0,0,1.18,4.39,3.45,3.45,0,0,0,4.12-.16c.7-.54,1.21-.58,1.62-.12a1,1,0,0,1-.11,1.37l-.07.06A5.48,5.48,0,0,1,42.66,34Z"/><path d="M92.63,38a3.45,3.45,0,0,1-4.9.11,4.26,4.26,0,0,1-.13-5.81,3.42,3.42,0,0,1,4.92-.1s.11,0,.12,0c.12-.54.36-1,1-.84s.7.61.69,1.14v5.42c0,.55-.14,1-.74,1.08S92.7,38.64,92.63,38Zm-.49-2.87a1.87,1.87,0,0,0-1.77-2h0a1.78,1.78,0,0,0-1.67,2,1.85,1.85,0,0,0,1.66,2A1.9,1.9,0,0,0,92.14,35.17Z"/><path d="M139.54,32.28c.15-.56.39-1,1-.91s.71.64.71,1.2v5.34c0,.55-.14,1-.74,1.1s-.82-.33-1-.82l0-.06c-1.87,1.4-3.64,1.35-5-.14a4.36,4.36,0,0,1,0-5.62C135.76,30.94,137.62,30.89,139.54,32.28Zm-3.91,2.86a1.74,1.74,0,1,0,3.44.11,1.89,1.89,0,0,0-1.79-2,1.74,1.74,0,0,0-1.65,1.89Z"/><path d="M104.2,35.58v2.19A1.13,1.13,0,0,1,103.14,39a1.08,1.08,0,0,1-1.08-1.22V29.28a1.05,1.05,0,0,1,1-1.2,1.12,1.12,0,0,1,1.12,1.12v.09c0,1.47,0,3,0,4.43v.87l2.47-2.7a1.22,1.22,0,0,1,1-.56.94.94,0,0,1,.82.58,1,1,0,0,1-.14,1.11c-.49.53-1,1.09-1.47,1.6a.47.47,0,0,0-.15.65.37.37,0,0,0,.12.13c.51.59,1,1.18,1.48,1.79s.46,1.12,0,1.57-1,.39-1.53-.21C105.94,37.62,105.15,36.67,104.2,35.58Z"/><path d="M113.54,35.83h-1.89c-.43,0-.49.19-.37.52a1.42,1.42,0,0,0,1.23.91,3.74,3.74,0,0,0,1.93-.25c.53-.2,1-.18,1.26.39s-.06.93-.52,1.22a4.53,4.53,0,0,1-5.45-.92,4.7,4.7,0,0,1,.47-5.59,4.1,4.1,0,0,1,4.11-.56,3.61,3.61,0,0,1,2,3.35.84.84,0,0,1-.73.93h-2.08Zm-.82-1.38h1c.48,0,.6-.15.34-.57a1.81,1.81,0,0,0-2.74,0c-.21.35-.17.57.31.54l1,0Z"/><path d="M60.57,35.16a4,4,0,0,1-3.69,4,4.05,4.05,0,0,1-4.07-3.9,4,4,0,0,1,3.95-4h0A3.81,3.81,0,0,1,60.57,35.16Zm-2.13,0a1.74,1.74,0,1,0-3.47,0,1.9,1.9,0,0,0,1.76,2A1.87,1.87,0,0,0,58.44,35.2Z"/><path d="M66,35v-2.6c0-.48.09-.91.61-1.07a.76.76,0,0,1,1,.45v0c.18.39.35.06.47,0a3.08,3.08,0,0,1,1.71-.58,2.94,2.94,0,0,1,3.31,3c.07,1.22,0,2.44,0,3.66A1.1,1.1,0,0,1,72,39,1.06,1.06,0,0,1,71,38a.41.41,0,0,1,0-.11c0-1,0-2.06,0-3.09s-.45-1.56-1.44-1.56c-.81,0-1.3.54-1.34,1.56s0,2,0,3c0,.79-.43,1.29-1.08,1.31s-1-.49-1.07-1.31S66,35.93,66,35Z"/><path d="M118.32,35c0-.28,0-.56,0-.84.05-.6.05-1.08-.79-1.09-.48,0-.74-.48-.69-1s.32-.87.85-.85.67-.3.64-.78a11.06,11.06,0,0,1,0-1.41,1,1,0,0,1,1-1h0a1,1,0,0,1,1.09.81.22.22,0,0,0,0,.08,9.65,9.65,0,0,1,0,1.61c0,.44.1.67.58.62a1.26,1.26,0,0,1,.81.15.93.93,0,0,1,.44,1,.88.88,0,0,1-.94.78h0c-.84-.09-1,.3-.91,1s0,1.46,0,2.18a.77.77,0,0,0,.69.86h.19c.68,0,1.07.39,1.05,1s-.43.9-1.1,1c-1.83.14-2.78-.63-3-2.47a14.41,14.41,0,0,1,0-1.61Z"/><path d="M98,32.08a3.18,3.18,0,0,1,2-.85c.74,0,1.21.32,1.25.93s-.39,1-1.08,1c-1.34.14-1.7.54-1.7,1.88v2.67A1.15,1.15,0,0,1,97.38,39c-.6,0-1.08-.45-1.09-1.27V32.47c0-.5.06-1,.63-1.12S97.76,31.57,98,32.08Z"/><path d="M64.05,35.19v2.53c0,.84-.44,1.29-1.09,1.3s-1.06-.49-1.07-1.3V32.59c0-.78.42-1.25,1-1.26A1.13,1.13,0,0,1,64,32.59C64.06,33.45,64.05,34.32,64.05,35.19Z"/><path d="M64.22,29.24a1.2,1.2,0,1,1-2.38-.14A1.25,1.25,0,0,1,63,28,1.28,1.28,0,0,1,64.22,29.24Z"/></g></g></g></svg>