<svg id="Layer_1" data-name="Layer 1" xmlns="http://www.w3.org/2000/svg" viewBox="0 0 162 66"><defs><style>.cls-1{fill:#0052ff;}</style></defs><path class="cls-1" d="M39.26,27.48a8.88,8.88,0,0,0-9.06,9,8.79,8.79,0,0,0,9.06,9,9,9,0,1,0,0-18Zm0,14.3a5,5,0,0,1-5-5.27,5,5,0,0,1,5-5.31,5,5,0,0,1,5.05,5.31A5,5,0,0,1,39.29,41.78Zm10.2-10.37H52V45.17h4V27.81H49.49ZM20,31.2a4.59,4.59,0,0,1,4.44,3.26h4.28a8.49,8.49,0,0,0-8.69-7,8.88,8.88,0,0,0-9.06,9,8.79,8.79,0,0,0,9.06,9,8.53,8.53,0,0,0,8.66-7H24.47a4.55,4.55,0,0,1-4.41,3.29,5,5,0,0,1-5-5.27C15.08,33.45,17.1,31.2,20,31.2Zm106.25,3.63-3-.44c-1.42-.2-2.43-.67-2.43-1.78s1.32-1.81,3.1-1.81c2,0,3.2.84,3.47,2.22h3.91c-.44-3.49-3.14-5.54-7.28-5.54S117,29.66,117,32.75s1.86,4.67,5.6,5.2l3,.44c1.45.2,2.26.77,2.26,1.84,0,1.38-1.42,2-3.37,2-2.39,0-3.74-1-3.94-2.45h-4c.37,3.39,3,5.77,7.88,5.77,4.42,0,7.35-2,7.35-5.47C131.74,36.94,129.61,35.33,126.28,34.83ZM54,20.66a2.55,2.55,0,1,0,2.59,2.55A2.5,2.5,0,0,0,54,20.66Zm59.31,13.1c0-3.76-2.29-6.28-7.14-6.28-4.58,0-7.14,2.32-7.65,5.87h4c.2-1.37,1.28-2.51,3.57-2.51,2.06,0,3.07.9,3.07,2,0,1.44-1.86,1.81-4.15,2-3.1.33-6.93,1.41-6.93,5.44,0,3.12,2.32,5.13,6,5.13,2.9,0,4.72-1.21,5.63-3.12a3,3,0,0,0,3.2,2.82h2.36V41.58h-2V33.76Zm-4,4.36a4.22,4.22,0,0,1-4.48,4c-1.51,0-2.79-.64-2.79-2,0-1.71,2.05-2.18,3.94-2.38s2.83-.58,3.33-1.35ZM87.92,27.48A7,7,0,0,0,82.43,30V20.5h-4V45.17h4V42.89a7,7,0,0,0,5.56,2.61c4.85,0,8.52-3.82,8.52-9S92.7,27.48,87.92,27.48Zm-.61,14.3a5,5,0,0,1-5-5.27,5.06,5.06,0,0,1,5-5.31,5,5,0,0,1,5,5.31A5,5,0,0,1,87.31,41.78ZM68.72,27.48a6,6,0,0,0-5.35,2.58V27.81h-4V45.17h4V35.74c0-2.66,1.69-4.54,4.18-4.54,2.32,0,3.77,1.65,3.77,4v9.94h4V34.93C75.39,30.57,73.14,27.48,68.72,27.48ZM151,35.94a8.21,8.21,0,0,0-8.52-8.46,8.78,8.78,0,0,0-9,9,8.77,8.77,0,0,0,9.06,9c4.21,0,7.51-2.48,8.35-6h-4.21a4.06,4.06,0,0,1-4.08,2.41,4.85,4.85,0,0,1-5-4.43H151V35.94Zm-13.14-1.35A4.54,4.54,0,0,1,142.41,31a4.24,4.24,0,0,1,4.45,3.59Z"/></svg>