<svg id="Layer_1" data-name="Layer 1" xmlns="http://www.w3.org/2000/svg" viewBox="0 0 162 66"><defs><style>.cls-1{fill:#4c4c4c;}.cls-2{fill:#8dc63f;}.cls-3{fill:#f9e988;}.cls-4{fill:#fff;}.cls-5{fill:#8bc53f;}.cls-6{fill:#009345;}.cls-7{fill:#58595b;}</style></defs><g id="Coin_Gecko_AI" data-name="Coin Gecko AI"><g id="Coin_Gecko_Vector_Text" data-name="Coin Gecko Vector Text"><path class="cls-1" d="M68.87,29a3.09,3.09,0,0,0-3.22-2.57c-2.77,0-3.93,2.44-3.93,4.92s1.16,4.92,3.93,4.92c2,0,3.12-1.5,3.29-3.38h2.21a5.29,5.29,0,0,1-5.49,5.23c-3.88,0-6.19-3.08-6.19-6.77s2.31-6.77,6.18-6.77c2.91,0,5.21,1.63,5.48,4.41Z"/><path class="cls-1" d="M72.49,33.15c0-2.86,1.72-4.92,4.72-4.92s4.73,2.06,4.73,4.92-1.72,4.94-4.73,4.94S72.49,36,72.49,33.15Zm7.38,0c0-1.61-.81-3.29-2.66-3.29s-2.66,1.68-2.66,3.29.82,3.31,2.66,3.31S79.87,34.78,79.87,33.15Z"/><path class="cls-1" d="M83.71,24.91h2.06v2H83.71Zm0,3.57h2.06v9.36H83.71Z"/><path class="cls-1" d="M88,28.48h2v1.38l0,0a3.34,3.34,0,0,1,2.91-1.66c2,0,3.31,1.08,3.31,3.18v6.43H94.17V32c0-1.46-.62-2.09-1.83-2.09a2.28,2.28,0,0,0-2.26,2.46v5.52H88Z"/><path class="cls-1" d="M110,37.84h-1.45l-.34-1.52a4.67,4.67,0,0,1-3.89,1.82c-3.87,0-6.19-3.08-6.19-6.76s2.32-6.77,6.19-6.77c2.81,0,5.19,1.5,5.53,4.41h-2.2a3.09,3.09,0,0,0-3.33-2.57c-2.77,0-3.93,2.45-3.93,4.92s1.16,4.93,3.93,4.93a3.29,3.29,0,0,0,3.62-3.55h-3.44V31H110Z"/><path class="cls-1" d="M113.75,33.69a2.49,2.49,0,0,0,2.52,2.77,2.17,2.17,0,0,0,2.28-1.55h2a4.09,4.09,0,0,1-4.23,3.18c-2.93,0-4.58-2.05-4.58-4.92,0-2.66,1.74-4.94,4.52-4.94,3,0,4.76,2.66,4.42,5.46Zm4.82-1.35a2.41,2.41,0,1,0-4.82,0Z"/><path class="cls-1" d="M128.52,31.61a2,2,0,0,0-2.13-1.75c-1.08,0-2.57.56-2.57,3.4,0,1.55.68,3.2,2.47,3.2a2.22,2.22,0,0,0,2.23-2.13h2.06a4,4,0,0,1-4.29,3.76c-2.93,0-4.54-2.08-4.54-4.83s1.54-5,4.62-5c2.17,0,4,1.08,4.21,3.38Z"/><path class="cls-1" d="M132.33,24.91h2.06v7.35l3.73-3.78h2.53l-3.58,3.44L141,37.84h-2.52l-2.86-4.55-1.23,1.2v3.35h-2.06Z"/><path class="cls-1" d="M141.55,33.15c0-2.86,1.72-4.92,4.73-4.92S151,30.29,151,33.15s-1.72,4.94-4.72,4.94S141.55,36,141.55,33.15Zm7.39,0c0-1.61-.82-3.29-2.66-3.29s-2.66,1.68-2.66,3.29.81,3.31,2.66,3.31S148.94,34.78,148.94,33.15Z"/></g><path class="cls-2" d="M48,32.92A18.5,18.5,0,1,1,29.42,14.5h0A18.49,18.49,0,0,1,48,32.92Z"/><path class="cls-3" d="M46.61,32.93a17.11,17.11,0,1,1-17.18-17h0A17.11,17.11,0,0,1,46.61,32.93Z"/><path class="cls-4" d="M29.82,17a9.51,9.51,0,0,1,3.28,0,10.09,10.09,0,0,1,3.15,1.05A19,19,0,0,1,38.9,20c.84.68,1.68,1.38,2.47,2.15a12.56,12.56,0,0,1,2.11,2.54,14.41,14.41,0,0,1,1.47,3,13.44,13.44,0,0,1,.61,6.52h-.11a29.81,29.81,0,0,0-1.6-6.11,24.24,24.24,0,0,0-1.27-2.85,26.45,26.45,0,0,0-1.67-2.67,9.57,9.57,0,0,0-2.23-2.26,13.08,13.08,0,0,0-2.83-1.4c-1-.38-1.93-.77-2.93-1.06s-2-.51-3.11-.72Z"/><path class="cls-5" d="M38.18,26.89c-1.24-.36-2.53-.87-3.83-1.39a2.69,2.69,0,0,0-1-1.23c-.85-.74-2.45-.72-3.84-.39a9.56,9.56,0,0,0-4.47-.14C13.25,27,20,35,15.62,43c.62,1.31,7.28,9,16.92,6.9,0,0-3.3-7.92,4.14-11.72C42.72,35,47.08,29.31,38.18,26.89Z"/><path class="cls-4" d="M39.64,32.09a.72.72,0,0,1-1.43,0,.72.72,0,0,1,1.43,0Z"/><path class="cls-6" d="M29.56,23.87a17.41,17.41,0,0,1,4.79,1.63c-.67-1.95-2.93-2.21-4.79-1.63Z"/><path class="cls-4" d="M30.39,28.79a3.31,3.31,0,1,1-3.31-3.31h0a3.32,3.32,0,0,1,3.31,3.31Z"/><path class="cls-7" d="M29.4,28.82a2.33,2.33,0,1,1-2.32-2.33h0A2.32,2.32,0,0,1,29.4,28.82Z"/><path class="cls-5" d="M42.32,33.55a16.53,16.53,0,0,1-10,3.32c-2,0-2.44-2.15-3.78-1.1a9.47,9.47,0,0,1-5,1.67,6.29,6.29,0,0,1-5.94-5.35c-.35,4.13-.52,7.16-2.07,10.65,3.08,4.93,10.43,8.74,17.11,7.1-.72-5,3.66-9.91,6.12-12.42a32.13,32.13,0,0,0,3.66-3.88Z"/><path class="cls-7" d="M42.22,33.67a12.42,12.42,0,0,1-2.83,1.82,18.32,18.32,0,0,1-3.18,1.15,10,10,0,0,1-3.39.4,4.63,4.63,0,0,1-3.1-1.37l0,0a5.89,5.89,0,0,0,3.1.85,14.26,14.26,0,0,0,3.26-.26,18.35,18.35,0,0,0,3.16-1,11.49,11.49,0,0,0,2.91-1.61Z"/></g></svg>