<svg xmlns="http://www.w3.org/2000/svg" xmlns:xlink="http://www.w3.org/1999/xlink" viewBox="0 0 1920 951"><defs><style>.cls-1{mask:url(#mask);filter:url(#luminosity-noclip-5);}.cls-2,.cls-4,.cls-51,.cls-52,.cls-54,.cls-57,.cls-6,.cls-8{mix-blend-mode:multiply;}.cls-2{fill:url(#linear-gradient);}.cls-3{mask:url(#mask-2);filter:url(#luminosity-noclip-6);}.cls-4{fill:url(#linear-gradient-2);}.cls-5{mask:url(#mask-3);filter:url(#luminosity-noclip-7);}.cls-6{fill:url(#linear-gradient-3);}.cls-7{mask:url(#mask-4);filter:url(#luminosity-noclip-8);}.cls-8{fill:url(#linear-gradient-4);}.cls-11,.cls-83,.cls-9{fill:none;}.cls-10{isolation:isolate;}.cls-11{stroke:#0dc65c;stroke-miterlimit:10;}.cls-12{fill:#0dc65c;}.cls-13{clip-path:url(#clip-path);}.cls-14{fill:url(#radial-gradient);}.cls-15,.cls-16,.cls-17,.cls-18,.cls-19,.cls-20,.cls-21,.cls-22,.cls-23,.cls-24,.cls-25,.cls-26,.cls-27,.cls-28,.cls-29,.cls-30,.cls-31,.cls-32,.cls-33,.cls-34,.cls-35,.cls-36,.cls-37,.cls-38,.cls-39,.cls-40,.cls-41,.cls-42,.cls-43,.cls-44,.cls-45,.cls-46,.cls-47,.cls-48,.cls-49{mix-blend-mode:color-dodge;}.cls-15{fill:url(#radial-gradient-2);}.cls-16{fill:url(#radial-gradient-3);}.cls-17{fill:url(#radial-gradient-4);}.cls-18{fill:url(#radial-gradient-5);}.cls-19{fill:url(#radial-gradient-6);}.cls-20{fill:url(#radial-gradient-7);}.cls-21{fill:url(#radial-gradient-8);}.cls-22{fill:url(#radial-gradient-9);}.cls-23{fill:url(#radial-gradient-10);}.cls-24{fill:url(#radial-gradient-11);}.cls-25{fill:url(#radial-gradient-12);}.cls-26{fill:url(#radial-gradient-13);}.cls-27{fill:url(#radial-gradient-14);}.cls-28{fill:url(#radial-gradient-15);}.cls-29{fill:url(#radial-gradient-16);}.cls-30{fill:url(#radial-gradient-17);}.cls-31{fill:url(#radial-gradient-18);}.cls-32{fill:url(#radial-gradient-19);}.cls-33{fill:url(#radial-gradient-20);}.cls-34{fill:url(#radial-gradient-21);}.cls-35{fill:url(#radial-gradient-22);}.cls-36{fill:url(#radial-gradient-23);}.cls-37{fill:url(#radial-gradient-24);}.cls-38{fill:url(#radial-gradient-25);}.cls-39{fill:url(#radial-gradient-26);}.cls-40{fill:url(#radial-gradient-27);}.cls-41{fill:url(#radial-gradient-28);}.cls-42{fill:url(#radial-gradient-29);}.cls-43{fill:url(#radial-gradient-30);}.cls-44{fill:url(#radial-gradient-31);}.cls-45{fill:url(#radial-gradient-32);}.cls-46{fill:url(#radial-gradient-33);}.cls-47{fill:url(#radial-gradient-34);}.cls-48{fill:url(#radial-gradient-35);}.cls-49{fill:url(#radial-gradient-36);}.cls-50{fill:#509d32;}.cls-51{fill:#569132;opacity:0.4;}.cls-52{fill:#178137;}.cls-52,.cls-54,.cls-60{opacity:0.3;}.cls-53{fill:#654209;}.cls-55{fill:#afc90c;}.cls-56,.cls-57{fill:#a6ce47;}.cls-57{opacity:0.52;}.cls-58,.cls-59{fill:#d2d600;}.cls-58,.cls-60{mix-blend-mode:screen;}.cls-61{fill:#845819;}.cls-62{fill:#9b9b9b;}.cls-63{opacity:0.2;}.cls-64{fill:#060077;}.cls-65{opacity:0.6;}.cls-66,.cls-69{fill:#fff;}.cls-67{fill:#dadada;}.cls-68,.cls-69{fill-rule:evenodd;}.cls-70{mask:url(#mask-5);}.cls-71{clip-path:url(#clip-path-2);}.cls-72{mask:url(#mask-6);}.cls-73{clip-path:url(#clip-path-3);}.cls-74{mask:url(#mask-7);}.cls-75{clip-path:url(#clip-path-4);}.cls-76{mask:url(#mask-8);}.cls-77{clip-path:url(#clip-path-5);}.cls-78{fill:#ffc900;}.cls-79{fill:#ff2228;}.cls-80{fill:#00d058;}.cls-81{fill:#7f4f50;}.cls-82{fill:#00ca4c;}.cls-83{stroke:#000;stroke-linecap:round;stroke-linejoin:round;stroke-width:4px;stroke-dasharray:15 19;}.cls-84{filter:url(#luminosity-noclip-4);}.cls-85{filter:url(#luminosity-noclip-3);}.cls-86{filter:url(#luminosity-noclip-2);}.cls-87{filter:url(#luminosity-noclip);}</style><filter id="luminosity-noclip" x="1550.97" y="-8732" width="133.37" height="32766" filterUnits="userSpaceOnUse" color-interpolation-filters="sRGB"><feFlood flood-color="#fff" result="bg"/><feBlend in="SourceGraphic" in2="bg"/></filter><mask id="mask" x="1550.97" y="-8732" width="133.37" height="32766" maskUnits="userSpaceOnUse"><g class="cls-87"/></mask><linearGradient id="linear-gradient" x1="-10683.35" y1="545.99" x2="-10843.9" y2="678.71" gradientTransform="matrix(1, 0.06, -0.06, 1, 12389.51, 603.37)" gradientUnits="userSpaceOnUse"><stop offset="0" stop-color="#fff"/><stop offset="0.99"/></linearGradient><filter id="luminosity-noclip-2" x="1528.64" y="-8732" width="143.84" height="32766" filterUnits="userSpaceOnUse" color-interpolation-filters="sRGB"><feFlood flood-color="#fff" result="bg"/><feBlend in="SourceGraphic" in2="bg"/></filter><mask id="mask-2" x="1528.64" y="-8732" width="143.84" height="32766" maskUnits="userSpaceOnUse"><g class="cls-86"/></mask><linearGradient id="linear-gradient-2" x1="-10716.63" y1="505.74" x2="-10877.18" y2="638.45" xlink:href="#linear-gradient"/><filter id="luminosity-noclip-3" x="1366.44" y="-8732" width="114.06" height="32766" filterUnits="userSpaceOnUse" color-interpolation-filters="sRGB"><feFlood flood-color="#fff" result="bg"/><feBlend in="SourceGraphic" in2="bg"/></filter><mask id="mask-3" x="1366.44" y="-8732" width="114.06" height="32766" maskUnits="userSpaceOnUse"><g class="cls-85"/></mask><linearGradient id="linear-gradient-3" x1="-10868.44" y1="493.95" x2="-11010.87" y2="604.65" xlink:href="#linear-gradient"/><filter id="luminosity-noclip-4" x="1347.35" y="-8732" width="123.02" height="32766" filterUnits="userSpaceOnUse" color-interpolation-filters="sRGB"><feFlood flood-color="#fff" result="bg"/><feBlend in="SourceGraphic" in2="bg"/></filter><mask id="mask-4" x="1347.35" y="-8732" width="123.02" height="32766" maskUnits="userSpaceOnUse"><g class="cls-84"/></mask><linearGradient id="linear-gradient-4" x1="-10896.12" y1="458.35" x2="-11038.54" y2="569.05" xlink:href="#linear-gradient"/><clipPath id="clip-path"><path class="cls-9" d="M1918.82,1.42c-84.92,64.88-193.71-8.29-300.89,8.07-76.14,11.62-188.82,89.22-236,101-39.39,9.82-121-9.32-170.85,9.59-52.48,19.92-136.85,118.15-146.68,192.23-11.85,89.25,27.36,310.84,68.7,386.57,44.17,80.9,219.35,160.22,289.2,174,86.29,17,210.68-31.53,281.74-31.53,69.7,0,141.19,26.53,217.21,8.14Z"/></clipPath><radialGradient id="radial-gradient" cx="1553.47" cy="513.63" r="797.2" gradientUnits="userSpaceOnUse"><stop offset="0.27" stop-color="#2d2171"/><stop offset="0.66" stop-color="#06044d"/></radialGradient><radialGradient id="radial-gradient-2" cx="-1004.59" cy="1748.97" r="20.25" gradientTransform="matrix(1, -0.07, 0.07, 1, 2818.8, -1151.17)" gradientUnits="userSpaceOnUse"><stop offset="0.11" stop-color="#fff"/><stop offset="1" stop-color="#393939"/></radialGradient><radialGradient id="radial-gradient-3" cx="-91.32" cy="3171.6" r="17.47" gradientTransform="matrix(0.74, 0.67, -0.67, 0.74, 3525.83, -1639.48)" xlink:href="#radial-gradient-2"/><radialGradient id="radial-gradient-4" cx="1286.07" cy="3363.79" r="12.28" gradientTransform="translate(4091.06 -1635.83) rotate(72.53)" xlink:href="#radial-gradient-2"/><radialGradient id="radial-gradient-5" cx="-1983.42" cy="1263.13" r="13.2" gradientTransform="matrix(0.99, -0.13, 0.13, 0.99, 2844.49, -1020.36)" xlink:href="#radial-gradient-2"/><radialGradient id="radial-gradient-6" cx="-1782.42" cy="1234.29" r="23.48" gradientTransform="matrix(0.99, -0.13, 0.13, 0.99, 2844.49, -1020.36)" xlink:href="#radial-gradient-2"/><radialGradient id="radial-gradient-7" cx="4440.17" cy="502.02" r="16.73" gradientTransform="translate(5661.73 -702.18) rotate(154.33)" gradientUnits="userSpaceOnUse"><stop offset="0" stop-color="#fff"/><stop offset="0.67" stop-color="#393939"/></radialGradient><radialGradient id="radial-gradient-8" cx="4442.28" cy="463.2" r="10.14" xlink:href="#radial-gradient-7"/><radialGradient id="radial-gradient-9" cx="-1625.19" cy="1521.99" r="10.9" gradientTransform="matrix(0.99, -0.13, 0.13, 0.99, 2844.49, -1020.36)" xlink:href="#radial-gradient-7"/><radialGradient id="radial-gradient-10" cx="-1070.41" cy="1045.27" r="10.9" gradientTransform="matrix(0.99, -0.13, 0.13, 0.99, 2844.49, -1020.36)" gradientUnits="userSpaceOnUse"><stop offset="0" stop-color="#fff"/><stop offset="0.03" stop-color="#e9e9e9"/><stop offset="0.09" stop-color="#b4b4b4"/><stop offset="0.16" stop-color="#888"/><stop offset="0.22" stop-color="#666"/><stop offset="0.28" stop-color="#4d4d4d"/><stop offset="0.34" stop-color="#3e3e3e"/><stop offset="0.38" stop-color="#393939"/></radialGradient><radialGradient id="radial-gradient-11" cx="-1009.02" cy="2578.09" r="11.55" gradientTransform="translate(3190.78 -1443.43) rotate(22.83)" xlink:href="#radial-gradient-10"/><radialGradient id="radial-gradient-12" cx="-1460.07" cy="940.08" r="25.55" gradientTransform="matrix(0.99, -0.13, 0.13, 0.99, 2844.49, -1020.36)" xlink:href="#radial-gradient-2"/><radialGradient id="radial-gradient-13" cx="-1476.04" cy="1051.58" r="18.24" gradientTransform="matrix(0.99, -0.13, 0.13, 0.99, 2844.49, -1020.36)" xlink:href="#radial-gradient-2"/><radialGradient id="radial-gradient-14" cx="-1696.27" cy="1230" r="18.21" gradientTransform="matrix(0.99, -0.13, 0.13, 0.99, 2844.49, -1020.36)" xlink:href="#radial-gradient-7"/><radialGradient id="radial-gradient-15" cx="2120.3" cy="2149.68" r="17.47" gradientTransform="matrix(-0.04, 1, -1, -0.04, 3296.08, -1400.32)" xlink:href="#radial-gradient-2"/><radialGradient id="radial-gradient-16" cx="2221.81" cy="2172.1" r="12.28" gradientTransform="matrix(-0.04, 1, -1, -0.04, 3296.08, -1400.32)" xlink:href="#radial-gradient-2"/><radialGradient id="radial-gradient-17" cx="2126.83" cy="2010.64" r="13.2" gradientTransform="matrix(-0.04, 1, -1, -0.04, 3296.08, -1400.32)" xlink:href="#radial-gradient-2"/><radialGradient id="radial-gradient-18" cx="2038.49" cy="2037.42" r="23.48" gradientTransform="matrix(-0.04, 1, -1, -0.04, 3296.08, -1400.32)" xlink:href="#radial-gradient-2"/><radialGradient id="radial-gradient-19" cx="2009.8" cy="2098.14" r="11.55" gradientTransform="matrix(-0.04, 1, -1, -0.04, 3296.08, -1400.32)" xlink:href="#radial-gradient-10"/><radialGradient id="radial-gradient-20" cx="4251.99" cy="-401.02" r="15.06" gradientTransform="matrix(-0.99, 0.1, -0.1, -0.99, 5580.74, -192.84)" xlink:href="#radial-gradient-7"/><radialGradient id="radial-gradient-21" cx="-1553.58" cy="952.63" r="21.1" xlink:href="#radial-gradient-10"/><radialGradient id="radial-gradient-22" cx="-1615.7" cy="1108.38" r="21.1" xlink:href="#radial-gradient-10"/><radialGradient id="radial-gradient-23" cx="-1755.57" cy="1119.28" r="18.2" xlink:href="#radial-gradient-10"/><radialGradient id="radial-gradient-24" cx="-1670.92" cy="1069.13" r="12.79" xlink:href="#radial-gradient-10"/><radialGradient id="radial-gradient-25" cx="-1688.72" cy="1152.36" r="15.06" xlink:href="#radial-gradient-10"/><radialGradient id="radial-gradient-26" cx="2585.66" cy="-1683.17" r="18.21" gradientTransform="translate(4242.53 65.7) rotate(-152.28)" xlink:href="#radial-gradient-7"/><radialGradient id="radial-gradient-27" cx="2526.35" cy="-1793.89" r="18.2" gradientTransform="translate(4242.53 65.7) rotate(-152.28)" xlink:href="#radial-gradient-10"/><radialGradient id="radial-gradient-28" cx="2593.21" cy="-1760.82" r="15.06" gradientTransform="translate(4242.53 65.7) rotate(-152.28)" xlink:href="#radial-gradient-10"/><radialGradient id="radial-gradient-29" cx="-1087.88" cy="1264.85" r="13.2" gradientTransform="matrix(0.99, -0.13, 0.13, 0.99, 2844.49, -1020.36)" xlink:href="#radial-gradient-2"/><radialGradient id="radial-gradient-30" cx="3337.13" cy="-800.59" r="21.1" gradientTransform="translate(4221.43 -2144.7) rotate(152.3)" xlink:href="#radial-gradient-10"/><radialGradient id="radial-gradient-31" cx="3431.63" cy="-804.27" r="21.1" gradientTransform="translate(4221.43 -2144.7) rotate(152.3)" xlink:href="#radial-gradient-10"/><radialGradient id="radial-gradient-32" cx="-1080" cy="-1007" r="25.55" gradientTransform="translate(3166.1 -179.81) rotate(-51.45)" xlink:href="#radial-gradient-2"/><radialGradient id="radial-gradient-33" cx="2398.65" cy="889.41" r="21.1" gradientTransform="translate(3372.98 -1945.39) rotate(108.21)" xlink:href="#radial-gradient-10"/><radialGradient id="radial-gradient-34" cx="-1025.58" cy="1817.91" r="18.2" gradientTransform="matrix(1, -0.07, 0.07, 1, 2818.8, -1151.17)" xlink:href="#radial-gradient-10"/><radialGradient id="radial-gradient-35" cx="3190.58" cy="-846.18" r="4.66" gradientTransform="translate(4221.43 -2144.7) rotate(152.3)" xlink:href="#radial-gradient-10"/><radialGradient id="radial-gradient-36" cx="-1554.88" cy="1709.12" r="4.66" xlink:href="#radial-gradient-10"/><filter id="luminosity-noclip-5" x="1550.06" y="555.54" width="136.08" height="101.96" filterUnits="userSpaceOnUse" color-interpolation-filters="sRGB"><feFlood flood-color="#fff" result="bg"/><feBlend in="SourceGraphic" in2="bg"/></filter><mask id="mask-5" x="1550.06" y="555.54" width="136.08" height="101.96" maskUnits="userSpaceOnUse"><g class="cls-1"><path class="cls-2" d="M1551,637.93l128.88-80.63a77.31,77.31,0,0,1,4.21,32.43L1578.28,655.9A77.11,77.11,0,0,1,1551,637.93Z"/></g></mask><clipPath id="clip-path-2"><path class="cls-9" d="M1551,637.93l128.88-80.63a77.31,77.31,0,0,1,4.21,32.43L1578.28,655.9A77.11,77.11,0,0,1,1551,637.93Z"/></clipPath><filter id="luminosity-noclip-6" x="1526.3" y="510.65" width="147.72" height="115.79" filterUnits="userSpaceOnUse" color-interpolation-filters="sRGB"><feFlood flood-color="#fff" result="bg"/><feBlend in="SourceGraphic" in2="bg"/></filter><mask id="mask-6" x="1526.3" y="510.65" width="147.72" height="115.79" maskUnits="userSpaceOnUse"><g class="cls-3"><path class="cls-4" d="M1528.68,580.77l109.52-68.51a77.6,77.6,0,0,1,34.28,29.82l-132,82.56A77.63,77.63,0,0,1,1528.68,580.77Z"/></g></mask><clipPath id="clip-path-3"><path class="cls-9" d="M1528.68,580.77l109.52-68.51a77.6,77.6,0,0,1,34.28,29.82l-132,82.56A77.63,77.63,0,0,1,1528.68,580.77Z"/></clipPath><filter id="luminosity-noclip-7" x="1365.67" y="507.04" width="116.38" height="86.9" filterUnits="userSpaceOnUse" color-interpolation-filters="sRGB"><feFlood flood-color="#fff" result="bg"/><feBlend in="SourceGraphic" in2="bg"/></filter><mask id="mask-7" x="1365.67" y="507.04" width="116.38" height="86.9" maskUnits="userSpaceOnUse"><g class="cls-5"><path class="cls-6" d="M1366.44,577.33l110.23-69a66,66,0,0,1,3.6,27.74l-90.46,56.59A66.1,66.1,0,0,1,1366.44,577.33Z"/></g></mask><clipPath id="clip-path-4"><path class="cls-9" d="M1366.44,577.33l110.23-69a66,66,0,0,1,3.6,27.74l-90.46,56.59A66.1,66.1,0,0,1,1366.44,577.33Z"/></clipPath><filter id="luminosity-noclip-8" x="1345.35" y="468.6" width="126.34" height="98.71" filterUnits="userSpaceOnUse" color-interpolation-filters="sRGB"><feFlood flood-color="#fff" result="bg"/><feBlend in="SourceGraphic" in2="bg"/></filter><mask id="mask-8" x="1345.35" y="468.6" width="126.34" height="98.71" maskUnits="userSpaceOnUse"><g class="cls-7"><path class="cls-8" d="M1347.39,528.44l93.66-58.59a66.33,66.33,0,0,1,29.32,25.5L1357.49,566A66.3,66.3,0,0,1,1347.39,528.44Z"/></g></mask><clipPath id="clip-path-5"><path class="cls-9" d="M1347.39,528.44l93.66-58.59a66.33,66.33,0,0,1,29.32,25.5L1357.49,566A66.3,66.3,0,0,1,1347.39,528.44Z"/></clipPath></defs><g class="cls-10"><g id="Layer_1" data-name="Layer 1"><path class="cls-11" d="M1918.82,1.42c-84.92,64.88-193.71-8.29-300.89,8.07-76.14,11.62-188.82,89.22-236,101-39.39,9.82-121-9.32-170.85,9.59-52.48,19.92-136.85,118.15-146.68,192.23-11.85,89.25,27.36,310.84,68.7,386.57,44.17,80.9,219.35,160.22,289.2,174,86.29,17,210.68-31.53,281.74-31.53,69.7,0,141.19,26.53,217.21,8.14Z"/><path class="cls-12" d="M1711.12,942c-4,.35-20.1,4.94-28.38-4s-2.4-13.08-9.08-19.24.27-2.36,2.43-2.71,12.24-6.45,22.73,1.43,9.26,10.68,11.64,17.06S1715.59,941.56,1711.12,942Z"/><path class="cls-12" d="M1649.83,900s10.81,15.31,12,17.42a19,19,0,0,1,1.3,11.05c-.82,4.1,3.48,10.31-1.84,17.3a12.49,12.49,0,0,1-9-4.25c-4.12-4.46-5.4-16.17.16-20.83s1.82-10.76-.15-13.24-4.3-8.27-4.3-8.27Z"/><path class="cls-12" d="M1622.29,882.51a32,32,0,0,0,4.1,5.71c2.44,2.64,2-1.76,6.35,2.94s7.23,27,6,28.07-5.65-.06-11.8-6.72-5.1-12.62-4.51-14.63,1.3-11.3-3.39-16.26Z"/><path class="cls-12" d="M1601.08,870.19a13.92,13.92,0,0,1-.59,10.17c-2.46,5.57-7.69,16.28-2.6,20.78s8,7.72,9.82.32,3.39-13.4-.63-17.94-2.75-11.3-2.75-11.3Z"/><path class="cls-12" d="M1569.06,859.65a20.68,20.68,0,0,1,5.65,3.93c2.15,2.33,3.89,6.68,3.85,11.21s7.19,12.23,3.84,12.67-8-1.65-12.56-6.54.47-17.94-4.24-21.74Z"/><path class="cls-12" d="M1596.92,840.21c-2,2.15-10.6,14-23.82,8.74l-1-2.33s4.72-6.39,9.64-7.91S1600.85,835.93,1596.92,840.21Z"/><path class="cls-12" d="M1624.34,841.91s-4,6.36-4.59,8.82a16.16,16.16,0,0,1-4.83,7.86c-2.67,2.47-10.42,5.78-14.94,1.89l.14-2.33s3.23-3.25,3.89-5.7S1610.2,840.4,1624.34,841.91Z"/><path class="cls-12" d="M1651.74,854.6s-4.18,2.73-5.07,7-1.94,7.9-4.53,10.3-11.4,6.57-19.73,2.76l-1-1s6.32-5.09,8.31-10.73S1644.06,849.17,1651.74,854.6Z"/><path class="cls-12" d="M1672.7,876.31s-8.51,1.34-10.81,3-5.28,7.35-21.15,7.24c0,0-2.92,1,7.39-8.57s20.33-5.12,23.69-3.68S1672.7,876.31,1672.7,876.31Z"/><path class="cls-12" d="M1696.49,894.37s-11.17,13.25-23.38,12.64-15.57-7.26-15.57-7.26,5.84-8.6,14.75-11.56S1687.79,886.6,1696.49,894.37Z"/><path class="cls-12" d="M1677.16,916.38a49.25,49.25,0,0,1-13.38-8.08c-5.75-5.15-9.55-7.92-9.55-7.92s5,.39,8,2.23-.8-7.36-.8-7.36-4.87,3.48-10.41,2.69-15.23-10.8-15.23-10.8,8.3.08,9.12-.74-2.56-2.78-2.56-2.78-3.64,8.69-27.91-8l10.37-1.08-1.72-1.4s-6.9,1.55-11.46-.06-10.38-7.59-19.14-10c0,0-2.1-1.11,6.37-1.56s3-5.27,3-5.27-2.94,3.63-6.26,3.35-5.13,1.89-6.82,1.53-18.07-6.33-30.59-5.67c0,0-3.13.39,1.5-1.39s14.22-5.37,14.22-5.37l.4-2.51-2.22.46s-9.45,4.75-11.53,5.51-4.26,2.19-11.69,2.64-9.83,1.09,1.81,2,12.6,1,15,2.45,3,1.91,3.46.47,8.94,1.12,8.94,1.12,14.91,3.59,23.53,11.12l2.8.33s9.27,4.73,14.68,9.4c0,0,4.92,3,7.31,3.47s11.43,6.85,13.5,8.37,9.22,7.38,13.72,8.65,17.42,14.72,18.32,14.82A51.11,51.11,0,0,0,1677.16,916.38Z"/><path class="cls-12" d="M985.15,479s6.62-4.07,9.07-9.05,12.73-14.82,22.86-14.28,20.07,1.69,25.07,1.42,6.57,1.31,6.57,1.31a23,23,0,0,1-7.18,1.64c-4.84.5-7.31,2.15-9.28,8.35s-7.38,19.25-23,18.4S987.26,482.36,985.15,479Z"/><path class="cls-12" d="M998.83,444.09c-4.73-2.58-7-8.56-17.81-14.45s-25.59-3.09-33.06,1.95-17.83,1.94-17,4.53,13,13.81,22.21,18.86,22.78,4.31,33.72-1.85,16.82-7.52,17.66-7.48S998.83,444.09,998.83,444.09Z"/><path class="cls-12" d="M998.88,404.45c1,4.16,2.3,18.76,12.43,24.3s21.48,7.76,23,9.1,3.56,1.58,1-2.94-1.66-5.86-1.36-10.16-.41-11-3.8-14-8.8-7.1-16.61-7.39-13.29-4.85-14.8-4.95S998.88,404.45,998.88,404.45Z"/><path class="cls-12" d="M1049,415.6s-3.6,15.33,15.62,40.51a70,70,0,0,1,3-11.34c2.16-6.09-2.1-15.46-9.73-20.81S1050.69,414.48,1049,415.6Z"/><path class="cls-12" d="M993.88,447.15l-.32-1.16a100.12,100.12,0,0,1,17.05-2.77c9-.69,21.91-.43,32.61,4.77,3.61,1.76,6.54,3,9.11,4,12.19,5.07,15.87,6.6,41.87,43l-1,.7c-25.8-36.15-29.41-37.65-41.35-42.61-2.59-1.08-5.53-2.3-9.17-4.07C1022.66,439.35,994.17,447.07,993.88,447.15Z"/><path class="cls-12" d="M1046,450.56c-7.15-3.91-11.75-13.42-12-13.85l1.09-.52c.05.11,5.2,10.73,12.69,13.91l-.47,1.11A13.94,13.94,0,0,1,1046,450.56Z"/><path class="cls-12" d="M1067.62,463.05c-4.1-3.38-4-11.15-4-11.47h1.21c0,.08-.08,7.52,3.58,10.53Z"/><path class="cls-12" d="M1045.53,459l0-1.21c.75,0,18.59.37,25.36,7l-.84.86C1063.65,459.33,1045.71,459,1045.53,459Z"/><path class="cls-12" d="M1058.58,539.07s-.16-5.82-2.47-9.27-4.82-13.8-.68-20.16,8.61-12.36,10.32-15.7,3.3-3.77,3.3-3.77a17.27,17.27,0,0,1-1.62,5.27c-1.5,3.32-1.35,5.54,1.93,9.14s9.7,12,3.27,21.82S1061.56,539,1058.58,539.07Z"/><path class="cls-12" d="M1041.11,517.14c-3.44,2.09-8.17,1.35-16,6.12s-11.59,15.41-11.12,22.14-5.43,12.27-3.44,12.71,13.81-3.23,20.54-7.32,11.33-13.14,11.43-22.53,1.44-13.71,1.77-14.24S1041.11,517.14,1041.11,517.14Z"/><path class="cls-12" d="M1015.46,502.25c3.07.92,13,5.54,20.4,1.06s13.07-11,14.52-11.52,2.36-1.71-1.51-1.77-4.42-1.12-7.1-2.92-7.25-3.85-10.5-2.8a19.37,19.37,0,0,0-11,8c-3.11,4.95-8.12,6.79-8.75,7.73S1015.46,502.25,1015.46,502.25Z"/><path class="cls-12" d="M1041.46,474s8.58,8.08,32.08,5a52.4,52.4,0,0,1-6.22-6.16c-3.14-3.69-10.81-4.44-17.13-1.5S1041.37,472.45,1041.46,474Z"/><path class="cls-12" d="M1041.24,521.49l-.87-.23a75.05,75.05,0,0,1,4.59-12.08c2.92-6.07,7.94-14.35,15.31-19.33,2.49-1.68,4.37-3.12,6-4.39,7.85-6,10.22-7.8,43.55-11l.09.9c-33.08,3.16-35.4,4.93-43.09,10.81-1.67,1.28-3.56,2.72-6.07,4.42C1047,499.93,1041.3,521.27,1041.24,521.49Z"/><path class="cls-12" d="M1063,489c-5.21,3.16-13.09,2.58-13.45,2.55l.08-.9c.08,0,8.89.66,13.76-3l.54.73Q1063.44,488.74,1063,489Z"/><path class="cls-12" d="M1079.17,479.69c-3.73,1.39-8.73-1.57-8.94-1.7l.46-.77s4.85,2.86,8.16,1.62Z"/><path class="cls-12" d="M1068.24,492.47l-.77-.47c.29-.48,7.21-11.9,14-13.81l.24.87C1075.27,480.87,1068.31,492.35,1068.24,492.47Z"/><path class="cls-12" d="M1142.77,840.38c-6.2,4.27-17.25,3.7-26.81,1.71s3-20.74,10.27-25.72,17.2-1,19.16,1.83S1151,834.69,1142.77,840.38Z"/><path class="cls-12" d="M1152.9,839.6s.83-9.52.85-11.59c0-2.65.8-7.5,8.53-12.82s16.54.23,18,2.33,8.1,14-2.2,21.1S1157.05,839.24,1152.9,839.6Z"/><path class="cls-12" d="M1133.25,801.52s6.65,14.74,17.42,13.27,18.72-10.45,18.72-10.45-.24-10.52-11.32-12.27S1138.25,796.91,1133.25,801.52Z"/><path class="cls-12" d="M1219.54,830.54s3.65.29,5,2.05,10.56,6.42,18.28,1.1,4.81-14.19,2.78-17.14-10.61-11.49-18.5-6.06S1216.9,826,1219.54,830.54Z"/><path class="cls-12" d="M1202.18,777.13s-.9,9.45,3.7,16.13,11.33,9.2,22.47,4.21a15.18,15.18,0,0,0-.12-17.44C1221.9,770.84,1202.18,777.13,1202.18,777.13Z"/><path class="cls-12" d="M1167.78,784.2s-.08,8.24,3.39,13.27,10.77,8.57,17.88,5.34,11.54.23,11.54.23a10,10,0,0,1-1.67-6.14,18,18,0,0,0-3.33-11.14C1193.2,782.29,1181.2,774.89,1167.78,784.2Z"/><path class="cls-12" d="M1195.78,803.85s-3.82-1.65-5.81,4-1.25,9.06-3.46,11.11-.68,3.72,1.16,3.93,2.67,4.51,9.84,5,11.11,1.87,14.81-6.59-3.11-14.17.36-16.2C1212.68,805.07,1203.87,797.53,1195.78,803.85Z"/><path class="cls-12" d="M1241.28,783.44c-.17,2.82-2.35,6.34.32,10.22s4.05,10.75,7.75,12.56,22,4.31,22,4.31-4.23-4.44-4-7.24,4-11.26-1.13-18.66-15.64-8.84-22.71-7.24S1241.46,780.41,1241.28,783.44Z"/><path class="cls-12" d="M1193.88,809.65c-.17.11-11,6.3-16.17,11.14l-1-1c5.28-4.95,15.93-11,16.38-11.29a20.12,20.12,0,0,0,3.5-3.08,12.23,12.23,0,0,0-2.82.62c-8.92,2.71-18.77,2.62-23.4-.23-4-2.44-8.92,3.73-10,5.52-1.43,2.32-14.15,8.2-16.69,9.35l-.58-1.27c5.72-2.6,15.15-7.3,16.08-8.82,1.55-2.5,7.06-9,11.94-6,4.25,2.61,13.83,2.65,22.26.08,3-.9,4.25-.91,4.69,0C1198.27,805,1198.81,806.12,1193.88,809.65Z"/><path class="cls-12" d="M1302.21,828.67a.71.71,0,0,1-.83,0c-37.66-29.94-94.43-23.43-95-23.36a.69.69,0,0,1-.78-.61.7.7,0,0,1,.61-.78c.57-.07,57.9-6.65,96,23.65a.7.7,0,0,1,.11,1A.64.64,0,0,1,1302.21,828.67Z"/><path class="cls-12" d="M1242.22,805.92c-8.43-.56-16-9-16.36-9.36l1-.93c.07.08,7.56,8.37,15.41,8.89Z"/><path class="cls-12" d="M1270.26,812.15c-12.3-2-25.23,9-25.36,9.15l-.91-1.06c.55-.48,13.56-11.58,26.5-9.47Z"/><g class="cls-13"><rect class="cls-14" x="838.96" y="-150.98" width="1383.42" height="1155.3"/><polygon class="cls-15" points="1932.48 660.54 1927.33 655.23 1933.38 659.69 1933.65 641.64 1936.35 659.49 1941.74 654.25 1937.35 660.21 1955.22 660.47 1937.39 663.18 1942.72 668.67 1936.65 664.2 1936.39 682.05 1933.71 664.4 1928.3 669.65 1932.84 663.49 1914.81 663.22 1932.48 660.54"/><polygon class="cls-16" points="1321.85 641.35 1322.09 634.96 1322.92 641.4 1334.32 630.79 1324.82 643.12 1331.3 643.36 1324.96 644.18 1335.47 655.47 1323.14 645.98 1322.9 652.58 1322.07 646.12 1310.79 656.62 1320.19 644.41 1313.69 644.18 1320.23 643.33 1309.64 631.94 1321.85 641.35"/><polygon class="cls-17" points="1268.99 599.15 1271.39 595.35 1269.62 599.55 1280.3 597.14 1270.16 601.27 1274.02 603.71 1269.88 601.97 1272.27 612.53 1268.14 602.41 1265.66 606.34 1267.43 602.12 1256.87 604.51 1266.89 600.42 1263.03 597.98 1267.31 599.78 1264.9 589.11 1268.99 599.15"/><polygon class="cls-18" points="1037.82 486.05 1034.26 482.79 1038.37 485.46 1037.83 473.7 1040.3 485.2 1043.6 481.58 1040.98 485.64 1052.62 485.1 1041.12 487.56 1044.81 490.93 1040.68 488.25 1041.22 499.88 1038.78 488.5 1035.46 492.13 1038.17 487.94 1026.43 488.49 1037.82 486.05"/><polygon class="cls-19" points="1232.13 431.07 1225.79 425.29 1233.11 430.02 1232.15 409.11 1236.53 429.58 1242.41 423.14 1237.74 430.34 1258.44 429.39 1238 433.77 1244.56 439.75 1237.21 435 1238.17 455.68 1233.83 435.44 1227.94 441.9 1232.76 434.45 1211.87 435.41 1232.13 431.07"/><polygon class="cls-20" points="1444.95 769.07 1450.54 771.56 1444.53 770 1449.85 783.92 1442.31 771.07 1439.78 776.74 1441.32 770.82 1427.54 776.09 1440.38 768.55 1434.61 765.98 1440.64 767.55 1435.37 753.77 1442.83 766.49 1445.36 760.8 1443.77 766.92 1457.68 761.6 1444.95 769.07"/><polygon class="cls-21" points="1458.94 804.88 1462.33 806.39 1458.68 805.45 1461.91 813.88 1457.34 806.09 1455.81 809.53 1456.74 805.95 1448.38 809.14 1456.17 804.57 1452.67 803.01 1456.33 803.96 1453.13 795.61 1457.65 803.32 1459.19 799.87 1458.23 803.58 1466.66 800.36 1458.94 804.88"/><polygon class="cls-22" points="1423.65 694.25 1427.05 696.45 1426.6 686.74 1428.63 696.24 1431.36 693.25 1429.2 696.6 1438.81 696.16 1429.32 698.19 1432.36 700.97 1428.95 698.76 1429.4 708.37 1427.38 698.97 1424.65 701.97 1426.88 698.51 1417.18 698.95 1426.59 696.93 1423.65 694.25"/><polygon class="cls-23" points="1916.42 155.01 1913.68 158.01 1915.92 154.55 1906.22 154.99 1915.63 152.98 1912.68 150.29 1916.08 152.49 1915.63 142.79 1917.67 152.29 1920.4 149.29 1918.23 152.64 1927.85 152.2 1918.35 154.23 1921.4 157.01 1917.99 154.8 1918.43 164.41 1916.42 155.01"/><polygon class="cls-24" points="1255.2 543.54 1259.09 541.56 1249.97 536.8 1259.66 539.97 1258.39 535.94 1260.34 539.77 1265.1 530.64 1261.9 540.42 1265.99 539.14 1262.22 541.05 1271.26 545.76 1261.48 542.57 1262.79 546.74 1260.85 542.9 1256.13 551.93 1259.3 542.25 1255.2 543.54"/><polygon class="cls-25" points="1513.81 97.82 1506.9 91.53 1514.87 96.68 1513.81 73.93 1518.59 96.19 1524.98 89.19 1519.91 97.03 1542.43 95.99 1520.19 100.76 1527.32 107.27 1519.33 102.1 1520.38 124.61 1515.65 102.58 1509.24 109.61 1514.48 101.5 1491.76 102.55 1513.81 97.82"/><polygon class="cls-26" points="1513.21 210.86 1508.29 206.37 1513.97 210.04 1513.22 193.81 1516.63 209.7 1521.19 204.7 1517.57 210.3 1533.65 209.55 1517.77 212.96 1522.87 217.61 1517.16 213.92 1517.9 229.98 1514.53 214.26 1509.96 219.28 1513.7 213.49 1497.48 214.23 1513.21 210.86"/><polygon class="cls-27" points="1317.7 416.06 1312.79 411.58 1318.46 415.25 1317.71 399.04 1321.11 414.9 1325.67 409.91 1322.05 415.5 1338.1 414.76 1322.25 418.16 1327.34 422.8 1321.64 419.11 1322.38 435.15 1319.02 419.45 1314.45 424.46 1318.19 418.69 1301.99 419.43 1317.7 416.06"/><polygon class="cls-28" points="1057.97 622.85 1063.02 618.94 1058.62 623.71 1074.07 625.66 1058.51 626.27 1062.48 631.4 1057.79 627.06 1055.86 642.36 1055.25 626.81 1050.03 630.86 1054.44 626.08 1039.16 624.15 1054.55 623.54 1050.57 618.4 1055.42 622.88 1057.37 607.45 1057.97 622.85"/><polygon class="cls-29" points="1030.77 723.92 1034.32 721.17 1031.22 724.52 1042.08 725.89 1031.14 726.32 1033.94 729.92 1030.64 726.87 1029.28 737.62 1028.85 726.7 1025.18 729.54 1028.29 726.18 1017.55 724.83 1028.36 724.4 1025.57 720.79 1028.97 723.94 1030.34 713.09 1030.77 723.92"/><polygon class="cls-30" points="1196.27 635.9 1200.09 632.95 1196.76 636.55 1208.43 638.02 1196.68 638.48 1199.68 642.36 1196.13 639.08 1194.67 650.64 1194.21 638.89 1190.26 641.95 1193.61 638.34 1182.06 636.88 1193.69 636.42 1190.68 632.54 1194.34 635.92 1195.82 624.26 1196.27 635.9"/><polygon class="cls-31" points="1174.13 545.28 1180.91 540.02 1174.99 546.42 1195.76 549.05 1174.85 549.87 1180.19 556.76 1173.89 550.93 1171.29 571.49 1170.47 550.6 1163.45 556.04 1169.39 549.61 1148.85 547.02 1169.54 546.21 1164.17 539.3 1170.69 545.32 1173.32 524.58 1174.13 545.28"/><polygon class="cls-32" points="1108.89 512.45 1112.1 515.41 1113.38 505.21 1113.78 515.39 1117.12 512.8 1114.21 515.96 1124.42 517.25 1114.14 517.65 1116.77 521.04 1113.67 518.17 1112.39 528.28 1111.98 518.01 1108.53 520.68 1111.45 517.52 1101.35 516.25 1111.52 515.85 1108.89 512.45"/><polygon class="cls-33" points="1395.78 650.4 1399.76 654.21 1395.14 651.05 1395.43 664.48 1392.93 651.28 1389.07 655.33 1392.17 650.78 1378.88 651.07 1392.06 648.58 1387.95 644.64 1392.58 647.79 1392.29 634.52 1394.76 647.57 1398.64 643.51 1395.43 648.22 1408.84 647.92 1395.78 650.4"/><polygon class="cls-34" points="1423.25 122.52 1417.55 117.32 1424.13 121.57 1423.27 102.79 1427.21 121.17 1432.49 115.39 1428.3 121.87 1446.9 121 1428.52 124.95 1434.42 130.32 1427.82 126.05 1428.68 144.64 1424.78 126.45 1419.49 132.25 1423.82 125.55 1405.05 126.42 1423.25 122.52"/><polygon class="cls-35" points="1375.93 279.74 1382.51 284 1381.64 265.22 1385.58 283.6 1390.86 277.81 1386.67 284.29 1405.28 283.44 1386.9 287.38 1392.79 292.75 1386.2 288.48 1387.05 307.07 1383.15 288.87 1377.86 294.68 1382.19 287.99 1363.42 288.85 1381.63 284.94 1375.93 279.74"/><polygon class="cls-36" points="1244.68 313.87 1239.77 309.38 1245.44 313.05 1244.69 296.84 1248.1 312.71 1252.65 307.71 1249.04 313.3 1265.08 312.56 1249.23 315.96 1254.32 320.6 1248.63 316.92 1249.36 332.95 1246 317.25 1241.43 322.26 1245.17 316.49 1228.98 317.23 1244.68 313.87"/><polygon class="cls-37" points="1323.82 255.96 1320.61 259.48 1323.24 255.43 1311.86 255.95 1322.9 253.58 1319.44 250.43 1323.43 253.01 1322.9 241.62 1325.3 252.77 1328.5 249.26 1325.96 253.18 1337.23 252.66 1326.1 255.05 1329.67 258.31 1325.67 255.72 1326.19 266.99 1323.82 255.96"/><polygon class="cls-38" points="1315.63 338.27 1311.57 334.56 1316.26 337.6 1315.64 324.19 1318.46 337.31 1322.23 333.18 1319.23 337.81 1332.51 337.19 1319.4 340 1323.6 343.84 1318.89 340.8 1319.51 354.06 1316.72 341.08 1312.94 345.22 1316.04 340.44 1302.64 341.06 1315.63 338.27"/><polygon class="cls-39" points="1172.02 355.09 1173.47 361.59 1170.93 355.32 1162.23 369.02 1168.56 354.08 1161.96 355.55 1168.14 353.05 1154.58 344.43 1169.5 350.76 1168.01 344.05 1170.55 350.33 1179.16 336.78 1172.89 351.56 1179.51 350.09 1173.13 352.67 1186.81 361.37 1172.02 355.09"/><polygon class="cls-40" points="1173.01 480.69 1174.46 487.19 1171.92 480.92 1163.22 494.61 1169.55 479.68 1162.96 481.14 1169.13 478.65 1155.57 470.03 1170.49 476.36 1169 469.64 1171.54 475.93 1180.16 462.38 1173.89 477.16 1180.5 475.69 1174.13 478.27 1187.8 486.96 1173.01 480.69"/><polygon class="cls-41" points="1128.99 419.93 1130.18 425.31 1128.09 420.12 1120.88 431.45 1126.13 419.09 1120.67 420.31 1125.78 418.24 1114.56 411.11 1126.91 416.35 1125.67 410.79 1127.77 415.99 1134.9 404.79 1129.71 417.01 1135.19 415.79 1129.9 417.93 1141.23 425.12 1128.99 419.93"/><polygon class="cls-42" points="1926.18 372.85 1922.62 369.6 1926.73 372.26 1926.18 360.51 1928.65 372.01 1931.96 368.39 1929.33 372.44 1940.97 371.9 1929.48 374.37 1933.16 377.74 1929.04 375.06 1929.57 386.69 1927.13 375.31 1923.82 378.94 1926.53 374.75 1914.79 375.29 1926.18 372.85"/><polygon class="cls-43" points="1642.06 115.77 1649.22 118.66 1641.57 116.96 1648.91 134.27 1638.82 118.4 1635.88 125.66 1637.56 118.13 1620.42 125.41 1636.28 115.32 1628.88 112.33 1636.55 114.04 1629.29 96.91 1639.27 112.61 1642.21 105.33 1640.48 113.12 1657.78 105.78 1642.06 115.77"/><polygon class="cls-44" points="1567.26 165.85 1559.62 164.14 1566.95 181.46 1556.87 165.59 1553.93 172.85 1555.61 165.32 1538.46 172.59 1554.32 162.51 1546.93 159.52 1554.6 161.23 1547.34 144.09 1557.32 159.8 1560.26 152.51 1558.53 160.3 1575.83 152.97 1560.11 162.96 1567.26 165.85"/><polygon class="cls-45" points="1702.15 38.62 1692.81 38.91 1702.12 37.06 1685.54 21.46 1704.46 34.13 1704.17 24.65 1705.98 33.81 1721.44 17.39 1708.78 36.3 1718.43 36.01 1709.1 37.85 1725.51 53.29 1706.78 40.76 1707.07 50.27 1705.2 40.79 1689.6 57.36 1702.15 38.62"/><polygon class="cls-46" points="1787.88 50.3 1781.2 54.39 1798.52 61.73 1780.23 57.34 1783.17 64.61 1779.14 58.02 1771.88 75.18 1776.26 56.9 1768.87 59.89 1775.57 55.79 1758.43 48.53 1776.53 52.88 1773.57 45.59 1777.74 52.39 1785.07 35.09 1780.73 53.2 1787.88 50.3"/><polygon class="cls-47" points="1916.47 730.88 1911.83 726.1 1917.28 730.11 1917.51 713.89 1919.95 729.93 1924.8 725.22 1920.85 730.58 1936.91 730.81 1920.88 733.25 1925.68 738.18 1920.22 734.16 1919.98 750.21 1917.58 734.34 1912.71 739.06 1916.79 733.52 1900.59 733.28 1916.47 730.88"/><polygon class="cls-48" points="1790.08 87.16 1790.73 85.55 1790.35 87.27 1794.17 85.64 1790.7 87.85 1792.28 88.49 1790.59 88.11 1792.21 91.94 1789.98 88.43 1789.33 90.04 1789.7 88.38 1785.92 89.98 1789.42 87.75 1787.79 87.09 1789.48 87.47 1787.88 83.69 1790.08 87.16"/><polygon class="cls-49" points="1521.47 874.72 1520.3 876.01 1521.26 874.53 1517.11 874.72 1521.14 873.86 1519.88 872.71 1521.33 873.65 1521.14 869.5 1522.01 873.56 1523.18 872.28 1522.25 873.71 1526.36 873.52 1522.3 874.39 1523.6 875.58 1522.14 874.64 1522.34 878.74 1521.47 874.72"/><path class="cls-50" d="M1349.22-295.4s223.1-56.24,82.8-202.32c19.72-49.43-72.52-98.92-119.29-78,82.36-58.49,67.39-214.07-83-211.5,0,0,76.44-219.18-222.52-192,42.53-116.59-142.16-167.72-220.46-70.24-52.1-87.62-188-33.66-195.48,41-54.86-117.94-332.42-70.63-284,130.66-90.71-32.54-113.45,34.62-105,73.29-87-45.61-214.75,94.94-83.51,197.95-98.22,38-61.54,170.26,11.69,173.41-75.16,79.88,13,86.08,38,93-54.21,95.56,1.42,169.69,80.17,129-24.6,97.48,120.38,38.54,120.38,38.54C346.67-48.92,554.86,44,617.56-60.91c19.08,98.67,116.07,43.43,116.07,43.43,7,73.45,210,62.34,210.83-33.66,76.64,90.06,240.44-27.08,215.33-86C1250.17-109,1364.57-183.08,1349.22-295.4Z"/><path class="cls-51" d="M1432-497.72c19.72-49.43-72.52-98.92-119.29-78,82.36-58.49,67.39-214.07-83-211.5,0,0,76.44-219.18-222.52-192,42.53-116.59-142.16-167.72-220.46-70.24-52.1-87.62-188-33.66-195.48,41-54.86-117.94-332.42-70.63-284,130.66-90.71-32.54-113.45,34.62-105,73.29-87-45.61-214.75,94.94-83.51,197.95-98.22,38-61.54,170.26,11.69,173.41-75.16,79.88,13,86.08,38,93-54.21,95.56,1.42,169.69,80.17,129-24.6,97.48,120.38,38.54,120.38,38.54C346.67-48.92,554.86,44,617.56-60.91c19.08,98.67,116.07,43.43,116.07,43.43,7,73.45,210,62.34,210.83-33.66,76.64,90.06,240.44-27.08,215.33-86,90.38,28.07,204.78-46,189.43-158.28C1349.22-295.4,1572.32-351.64,1432-497.72ZM106.55-489.31a34.2,34.2,0,0,1,10.15-20.26,7.44,7.44,0,0,1,2-3.05c9.83-8.38,22.87-14.13,36.48-10.51,11.12,3,20.56,10.64,24,20.53,8,23-18.76,46.18-43.94,46.18C115.73-456.42,104.56-473.47,106.55-489.31Zm172.09,203.8C271.83-265,251-245.52,227.31-240c-26.85,6.1-59-14.26-48.43-41.14,7.52-18.92,28.39-34.11,50.62-36.75a7.67,7.67,0,0,1,5.27-2.27C259.69-321.77,287.63-312.4,278.64-285.51Zm83.57,11.05c-8,6.94-19.46,9.47-27.43,16.12-6,4.75-11.24-1.38-8.73-6.29.13-.26.13-.84-.45-2.29a33.55,33.55,0,0,0-1.67-4.17c-1.35-3.37-3.15-7.32-2.51-11,2.31-13,17-16.57,29.94-17.63,6.29-.49,6.93,4.72,4.56,8.54,3.28.61,6.29,1.83,8.16,3.82C367.67-283.33,365.94-277.87,362.21-274.46Zm49-254.83c-1.29,17.89-8.74,34.4-27.05,45.35-19.21,11.24-44.45,15.22-61,3.11-9.89,49-67.77,105.67-125.26,89.9-63.92-17.66-25.06-73.19,23.83-76.92-.52-6.78,1.09-13.49,4.62-18.44-20.3-7.16-25.76-22.64-21.65-38.64-22.8,1.8-47.15-4.68-52-26.49-5.84-27,21-40.5,47.54-45.45C187.1-607.79,187.1-625,190-643.44c-44.51-6-74.26-49.14-49.78-90.93,20.3-34.37,58.91-27.43,91-11.85-3.34-21.07,7.65-43.27,25.12-56.4-3-14.07,4.69-31,17.41-42.14,16.38-14.36,37.13-18.73,58.39-17.7a59,59,0,0,1-1-22.74c3.91-25.63,14.51-47.21,40.21-47.86-6.81-19.33,5.72-44,21.33-48.53-12.92-47.5,93.08-84.79,100.85-27.81,15.8-8,35.52-9.89,52.93-1.54,37.77,18.72,36.68,66.48,20.75,101.46,17.22-7.84,35.72-8.35,50.3,1.06-3.73-26.47-4-56,19.91-71.27,22.42-14.49,56.59-15.52,72.78,8.22,9.64,13.84,11.63,35.78,7.46,57.49,28.26-7.22,59.61-3.44,82.41,15.64,19.66,16.42,13.3,41.82-3.15,59.2,35.2,5,60.52,33.08,24.09,65.17-23.38,20.87-65.13,35.26-105.22,37,.71,4.85.71,9-.19,11.5-9.51,27.78-31.93,47.63-62.83,56.36-1.47.39-3.34,1.07-5.14,1.48,1.16,13.17-2.11,27.17-11.49,42.3-13.36,21.56-45.42,42.59-69.9,35.91,2.38,27.78-14.32,60.42-47.66,59.81C505.72-529.84,482.4-535,468-544.1c-9.18,13.84-25.95,23.58-44.58,19.27A50.09,50.09,0,0,1,411.23-529.29Zm540,283.77c-20.36,13.94-49.66,23.15-79.65,26.88-6.11,16.64-16.38,33.15-32.06,48.6C804.3-135,734-110.17,715.07-157.13c-14.52,29.77-43.3,54.41-82.48,34.46-19.27-10-32.31-23.64-39.89-39.34-29.55,29.1-68.22,48.43-109,42-83.12-13.17-62.7-108.44-.25-123-26.28-29.26,7.38-96.87,63.52-104.12C570.09-388,637.92-425.64,660.28-369c12.65-41.27,36.42-77.66,90.12-86.88,46.57-8.12,83.32,9.09,93.14,47.25,26.79-30.74,72.53-30.19,104.91,1.12,32.95,31.74,18.94,66-10,89.39,14.26-.19,27.56,4.72,31.09,20.11C974.33-277.74,970.86-258.5,951.27-245.52Z"/><path class="cls-52" d="M1432-497.72c19.72-49.43-72.52-98.92-119.29-78,71-50.52,69.58-172.89-28.58-204.18,18.11,65.27,5.46,133-74.84,126.61,13,35.5,4.63,92.51-44.84,96.55-53.5,4.53-76.63-43.32-86.46-85.85-22.29,43-85.37,55.41-122.18,13.68-13.1,33.73-47.34,50.91-87.81,54.7,8.67,23.13,11.5,45.55,3.28,69,41.62-6.1,96.29-4.46,132.52,13.39,36.74,17.86,25.44,44,3.53,65.59,32.57-.13,74,8.7,86,37.19,10,23.77-.58,42.56-18.5,57.85,32.76.93,61.74,17.25,55.63,52.06-4.3,24.16-25.76,33.7-48.17,31.51,35.07,60.9-38.74,136.51-98.22,83.9-9.32,36-38,70.79-75.16,86.43-38.42,16-65.33,3.08-76.06-27.21-17.08,28.94-48.44,53.64-86.33,53.23-33.86,0-43-19.72-35.27-42.08C678.2-79,648.84-82.36,613.51-97.55c-14,34.49-63.34,69.12-82.35,28.1C515.93-52,491.52-36.78,465.64-29.3,521.84-5.72,587-9.74,617.56-60.91c19.08,98.67,116.07,43.43,116.07,43.43,7,73.45,210,62.34,210.83-33.66,76.64,90.06,240.44-27.08,215.33-86,90.38,28.07,204.78-46,189.43-158.28C1349.22-295.4,1572.32-351.64,1432-497.72Z"/><path class="cls-53" d="M2382.29-329.45s-26,111.61-152.95,199.27S2013.44,41.91,2000.59,22.41s-6-126.67-15.29-218.76c-12.78-126.48,11.44-234.27,70.66-366.83s69.89-201.74,167.09-308.34c-27.18-33.62-20.37-51.87-20.37-51.87s-73.17,103.91-93.08,102.81C2090.07-821.8,2129.51-941,2129.51-941L2072-966.17s-12.72,179.86-45.8,293.4S1866.4-288.4,1832.61-285.7c-33.53,3-6.55-240.7-.58-340.81,5.91-99.74,29.87-162.24,49.59-191.82s59.55-109,59.55-109-48.63,9.92-80-7.55c-69.31,129.51-90.51,295.85-94.62,401.32-6.62,172.55-14.71,214.49-39.89,207.91-25.18-6.26-49.4-81.58-60.84-123S1608-568.09,1595.45-614.83c-12.15-46.66-7-75.86,52.48-175.78,59.29-99.89,55.31-130.59,55.31-130.59s-39.45,19.55-79.21,13.61c0,0-24,105.87-53.12,137.63-28.91,31.74-16.9,138.43-52.48,97.9s-92.19-105.6-126.68-169.81-43.68-73.68-43.68-73.68l-64.76-22s8.16,15.54,1.74,21.16c55.89,76.22,119,176.21,202.22,291.7,83,115.76,126.61,247.32,144.92,362.88,18.31,115.31,36,184.72,2.57,178.78-33.54-6.4-168-81.88-226-137.76-99.57-95.59-131.69-145.4-154.24-195.32S1185.8-583,1164.09-688.76c-39.38-14.39-41.75-19-41.75-19s21.32,104.41,8.67,106S968.36-728,968.36-728l-35.85,9.76s147.17,109.79,211.86,210.32C1208.86-407.24,1215.48-376,1215.48-376s-40.73-10.79-123.85-45.48c-83.51-34.66-117.62-46.83-176-98C857-570.76,811-605.41,811-605.41l-20.56,1.79s17.22,57.46,15.42,66c0,0,81.9,67.29,141.26,93.18,59,25.92,125.26,57.49,215.26,122,146.46,105,255.08,192.07,339.17,247.22s131,141.87,154,204,9.76,164,19.4,224-11.12,72.88-45,42.69-95-88.71-146.07-123.14C1433,237.7,1275.87,85.88,1275.87,85.88s-15.42,24.79-27.69,27.59c86.52,76.89,184,180.06,167.85,180.51s-296.78-11.7-296.78-11.7,22,16.13-5.52,46c133.36,5.14,144.66,14.65,219.3,14.39,74.58,0,263,44.32,307.12,159s81.91,413,48.82,612.15c0,0-6.87,39,167.21,33.08,174.22-5.72,260.1-15.93,243.08-61.12-17-45.55-50.17-131.43-60.77-198.72S1989.35,598.62,2001,426.75c11.43-172,97.32-324.81,235.62-372.93S2466.18,9.79,2641.94-88c0,0-15.68-11.68-22.81-30.16-104.64,46.26-276,112.45-377,110.62,33-56.4,66.81-117,128.61-142.09s174.59-63.15,174.59-63.15-28.32-11.75-39.24-18.43c-42.47,14.8-114,30.86-124.24,19.56-10.08-11.05,55-120.67,55-120.67S2393.15-329.54,2382.29-329.45Z"/><g class="cls-54"><path class="cls-53" d="M2619.13-118.21c-104.64,46.26-276,112.45-377,110.62,33-56.4,66.81-117,128.61-142.09s174.59-63.15,174.59-63.15-28.32-11.75-39.24-18.43c-42.47,14.8-114,30.86-124.24,19.56-10.08-11.05,55-120.67,55-120.67s-43.68,2.83-54.54,2.92c0,0-26,111.61-152.95,199.27S2013.44,41.91,2000.59,22.41s-6-126.67-15.29-218.76c-12.78-126.48,11.44-234.27,70.66-366.83s69.89-201.74,167.09-308.34c-27.18-33.62-20.37-51.87-20.37-51.87s-73.17,103.91-93.08,102.81C2090.07-821.8,2129.51-941,2129.51-941L2072-966.17s-12.72,179.86-45.8,293.4S1866.4-288.4,1832.61-285.7c-33.53,3-6.55-240.7-.58-340.81,5.91-99.74,29.87-162.24,49.59-191.82s59.55-109,59.55-109-48.63,9.92-80-7.55c-69.31,129.51-90.51,295.85-94.62,401.32-6.62,172.55-14.71,214.49-39.89,207.91-25.18-6.26-49.4-81.58-60.84-123S1608-568.09,1595.45-614.83c-12.15-46.66-7-75.86,52.48-175.78,59.29-99.89,55.31-130.59,55.31-130.59s-39.45,19.55-79.21,13.61c0,0-24,105.87-53.12,137.63-28.91,31.74-16.9,138.43-52.48,97.9s-92.19-105.6-126.68-169.81-43.68-73.68-43.68-73.68l-64.76-22s8.16,15.54,1.74,21.16c55.89,76.22,119,176.21,202.22,291.7,83,115.76,126.61,247.32,144.92,362.88,18.31,115.31,36,184.72,2.57,178.78-33.54-6.4-168-81.88-226-137.76-99.57-95.59-131.69-145.4-154.24-195.32S1185.8-583,1164.09-688.76c-39.38-14.39-41.75-19-41.75-19s21.32,104.41,8.67,106S968.36-728,968.36-728l-35.85,9.76s147.17,109.79,211.86,210.32C1208.86-407.24,1215.48-376,1215.48-376s-40.73-10.79-123.85-45.48c-83.51-34.66-117.62-46.83-176-98C857-570.76,811-605.41,811-605.41l-20.56,1.79s17.22,57.46,15.42,66c0,0,81.9,67.29,141.26,93.18,59,25.92,125.26,57.49,215.26,122,146.46,105,255.08,192.07,339.17,247.22s131,141.87,154,204,9.76,164,19.4,224-11.12,72.88-45,42.69-95-88.71-146.07-123.14C1433,237.7,1275.87,85.88,1275.87,85.88s-15.42,24.79-27.69,27.59c86.52,76.89,184,180.06,167.85,180.51s-296.78-11.7-296.78-11.7,22,16.13-5.52,46c133.36,5.14,144.66,14.65,219.3,14.39,21.46,0,52.74,3.73,87.17,11.95a7.79,7.79,0,0,1,6.75-7.81c100.53-8.73,160.27,63.44,205.88,133.1,1.16,1.87.71,3.89-.51,5.65a122.11,122.11,0,0,1,7.83,16.1c44.2,114.56,81.91,413,48.82,612.15,0,0-6.87,39,167.21,33.08,174.22-5.72,260.1-15.93,243.08-61.12-17-45.55-50.17-131.43-60.77-198.72S1989.35,598.62,2001,426.75c11.43-172,97.32-324.81,235.62-372.93S2466.18,9.79,2641.94-88C2641.94-88,2626.26-99.73,2619.13-118.21ZM1690.64-246.52c.32-4.94,8.68-10.57,12.66-5.27,29,38.26,38.93,83,46.64,128,3.92-44.32,11.49-88.48,35.32-127.47,2.71-4.69,12.15-6.36,12.15.61.19,33.69-8.61,66.35-10.67,99.72-2,34.43,6.88,66.43,15.29,99.61,14.13,56.84,19.4,115.37,19.4,173.27.64,115.76-16.18,230.33-49,342.16-1.6,4.34-11.49,9-13,2.29-21-93.76-6.3-188.41-10.15-282.94-4.12-101.69-13.11-203-30.07-303.81a291.45,291.45,0,0,0-9.12-33.37C1700-184.43,1689.17-214.24,1690.64-246.52ZM1539.75-75.77c-78.24-49.37-160.4-96.91-223.48-162.11-27.17-28.07-46.64-60.83-64.63-94.33-35.45-54.28-62.88-112.45-85.3-173.09-2.12-5.49,9.06-12.81,12.59-6.71,49.08,86.59,86.21,179.29,158.28,253.9,63,64.84,138.82,117.52,212.5,172.06C1555.87-81.46,1546.11-71.7,1539.75-75.77ZM1685,165.08c-13.68-68.18-51.84-126-89.8-184.94-11.89-15.09-23.84-29.93-35.33-45.19-4.12-5.07,5.39-12.81,10.85-9.09,63.53,42.85,148.58,103.36,159.76,179.26,7.39,48.85-6,97.41-5.26,146.23.76,51.27,2.24,102.11-2.13,153.24-.38,5.11-11.49,11.47-13.29,3.86C1692.25,327.89,1701.18,245.57,1685,165.08Zm76.19,840c-.19,6.84-13.3,11-13.3,2.44-1.22-79.73-23.13-158-25.18-237.72-1.35-53.09-3-106.15-4.31-159.27a5.15,5.15,0,0,1-3-4.53c-2.31-53.9-8.8-107.69-1.93-161.62.77-5,11.7-11.76,13.3-4.05,17.47,92.92,53.38,185,57.88,279.34C1789.38,815.49,1765.8,909.75,1761.18,1005.09Zm84-445.3c-6.35,67.64-13.55,135.09-24.79,202.09-.83,5-11.5,11.82-13.3,3.92-16.06-77.82-10.85-156.35,4.31-233.57,5.78-58.26,13.74-115.82,36-171.19,1.93-5,14.52-8.8,13-.8C1848.22,425.79,1851.69,493.63,1845.13,559.79Zm26.79-677c8.29-62.18,23.19-123.17,42.14-183.75,1.74-5.52,13.24-8.77,13.11-.74-.9,70.09,14.13,138.85,8,209.13-6,65-18,129.34-37.07,192.26-1.22,4.6-11.56,9.44-12.78,2.35-14-71.66-14.52-143.35-6.55-215.17C1875.07-111.75,1871.34-112.58,1871.92-117.18ZM2211-75.77c-106.5,114.18-235.24,212.2-319.32,342.28-3.47,5.46-13.88,5.46-12-2.44,24.28-93.72,91.73-161.84,166.76-224.89a9.64,9.64,0,0,1,2.57-4c50-41.43,97.32-85.53,154.55-119C2211-88.21,2216.11-81.36,2211-75.77Z"/><path class="cls-53" d="M1436.39,358.6c41.89,11.27,86.79,28.71,124.81,53.44C1528.64,380,1488.62,357.15,1436.39,358.6Z"/></g><g class="cls-54"><path class="cls-53" d="M1458.42,317.39c27-3.28,55.57,19.11,74.84,33,66,47.08,122.89,103.39,168.63,166.92,6.16-27.27-1.74-57.08-7.78-83.83a775.08,775.08,0,0,1-14.58-84.28c-2.31-20.53-5.2-41.11-8.73-61.22.25,24,1.15,46.54,4.11,64.94,9.63,60.19-11.12,72.88-45,42.69s-95-88.71-146.07-123.14C1433,237.7,1275.87,85.88,1275.87,85.88s-15.42,24.79-27.69,27.59c86.52,76.89,184,180.06,167.85,180.51s-296.78-11.7-296.78-11.7,22,16.13-5.52,46c133.36,5.14,144.66,14.65,219.3,14.39,14.46,0,33.28,1.73,54.67,5.24C1411.53,338.72,1430.61,321,1458.42,317.39Z"/><path class="cls-53" d="M2619.13-118.21c-104.64,46.26-276,112.45-377,110.62,33-56.4,66.81-117,128.61-142.09s174.59-63.15,174.59-63.15-28.32-11.75-39.24-18.43c-42.47,14.8-114,30.86-124.24,19.56-10.08-11.05,55-120.67,55-120.67s-20.11,1.25-36.3,2c-22.35,52.35-52.8,102-75.35,153.72-28.46,65.11-88.39,112.16-140,163-48.69,48.08-97.32,95.88-147.3,143-48.05,45.06-96.74,93.66-121.41,152.66-29.93,70.57-27,149.29-32.44,223.74-6.61,85.59-12.59,172.76,0,258.23,10.22,71.85,24.86,142,27.82,214.65,1.86,41.44,10,95.07-17,131.79-1.86,2.69-7.07,6.29-10.54,3.24-73.42-64-40.14-165.25-72.58-244.55-6.75,68.7-5.59,146-52.74,201.9-2.25,2.69-8.48,4.43-10.47.61-40.54-73.71-16-167.47-28.85-246.61-9.57-59.07-22-116.85-42.33-172.54,23.58,139.07,34.43,323.85,11.56,461.32,0,0-6.87,39,167.21,33.08,174.22-5.72,260.1-15.93,243.08-61.12-17-45.55-50.17-131.43-60.77-198.72S1989.35,598.62,2001,426.75c11.43-172,97.32-324.81,235.62-372.93S2466.18,9.79,2641.94-88C2641.94-88,2626.26-99.73,2619.13-118.21Z"/></g><path class="cls-55" d="M1449.63,228s89.16-41.11,64.55-120.09c-24.66-79.21-137.66-62.73-159.63-52.13,32.06-71.59-33.91-102.46-68.47-88.36,1-23-13.75-24.5-23.45-21.2,15.74-46.08-56.27-95.65-104.32-43.32-23.45-21.42-86.53-7.61-96.49,7.25-1.15-25.34-39.44-23.89-59.87-10.66,5.27-66-174-56.08-158.34,64.63-52.48-23-98.86,15.12-98,38.06,0,0-83.9-8.9-90,78.72-6.1,87.78,101,98.83,101,98.83s-79.91,48.47,2.44,101.21c-30.83,22.77-2.76,92.43,90.26,77.66-6.94,31.44,51.39,42.3,72,4.82,12.27,38.83,92.82,58.36,138.55,26.62,12.79,29.78,60.58,20.85,83.06-14,37.13,42,197.66,75.93,191.11-53.19C1381.28,337.27,1453,293.3,1449.63,228Z"/><path class="cls-56" d="M1514.18,107.91c-24.66-79.21-137.66-62.73-159.63-52.13,32.06-71.59-33.91-102.46-68.47-88.36,1-23-13.75-24.5-23.45-21.2,15.74-46.08-56.27-95.65-104.32-43.32-23.45-21.42-86.53-7.61-96.49,7.25-1.15-25.34-39.44-23.89-59.87-10.66,5.27-66-174-56.08-158.34,64.63-52.48-23-98.86,15.12-98,38.06,0,0-83.9-8.9-90,78.72-6.1,87.78,101,98.83,101,98.83s-79.91,48.47,2.44,101.21c-30.83,22.77-2.76,92.43,90.26,77.66-6.94,31.44,51.39,42.3,72,4.82,12.27,38.83,92.82,58.36,138.55,26.62,12.79,29.78,60.58,20.85,83.06-14,37.13,42,197.66,75.93,191.11-53.19,47.22,14.45,119-29.52,115.57-94.82C1449.63,228,1538.79,186.89,1514.18,107.91ZM1126,65.87c19.2,33.11-20.49,61.76-58.78,66.52,19.27,65.49-11.18,147.74-85.57,170-38,11.24-93.4,12.49-98.66-32.57v-1.93c-30.77,11.44-62.31,12.17-77.54-19.14-13.36-27.88,1-48.31,24-60.83-17.85-8.16-28.39-26.53-28.91-47.48-36,1.16-69.24-7.51-83.12-34.52-36-69.76,53.13-96.17,113.83-78.72a5.3,5.3,0,0,1,2.06,1.25c6.49-15.26,17-28.72,30.19-36.74a45.57,45.57,0,0,1,.26-14.43c3.85-22.48,20.62-43.42,40.27-57.49,16.64-11.82,39.19-23.25,61.22-19.49,18.44,2.92,24.6,17.88,25.5,32.56,34.24-11.4,64.82,5.11,76,30.29,49.78-17.57,130.21-24.31,135.73,33.63C1206,34.78,1165.12,67.7,1126,65.87Z"/><path class="cls-57" d="M1514.18,107.91c-24.66-79.21-137.66-62.73-159.63-52.13,32.06-71.59-33.91-102.46-68.47-88.36,1-23-13.75-24.5-23.45-21.2,15.61-45.44-54-94-102.07-45.44,0,.77.19,1.67.19,2.41,17.41-6.72,36.29-5.91,52.61,8.22,25.37,21.9,25.37,57.68,11.63,87.46,23.76-1.35,47.34,4.56,61,19.72C1303.68,38.41,1310.29,67,1305,92.53c30.64-6.43,63.14-3,87.36,13.84,49.46,34.27-6.36,79.5-47.34,92.82v.61c4.82,16.8.13,35.46-11,49.82-12.07,15.8-29.81,26.75-47.73,28.49a90.15,90.15,0,0,1-10.85,26.79c-25.06,41.91-84.41,58.52-117.3,30.54a74.7,74.7,0,0,1-12,13.75c-12.85,10.76-33.4,21.81-51.71,15.61-9.38-3.51-15.74-8.74-19.15-15-50.55,25-117.68,23.54-134.25-15-28.14,10.18-58.52,12.68-86.72.9-13.24-5.4-24.93-19.05-30.32-33.08a57.85,57.85,0,0,1-35.33-12c-16.51-12.91-21.65-29.38-13.37-43.87-26.08,1.09-44.58-20.82-43.93-43.59-13.56,19.24-19.21,47.86,27.68,77.8-30.83,22.77-2.76,92.43,90.26,77.66-6.94,31.44,51.39,42.3,72,4.82,12.27,38.83,92.82,58.36,138.55,26.62,12.79,29.78,60.58,20.85,83.06-14,37.13,42,197.66,75.93,191.11-53.19,47.22,14.45,119-29.52,115.57-94.82C1449.63,228,1538.79,186.89,1514.18,107.91Z"/><path class="cls-58" d="M829,45.76c-9.05-9.63-25.63-12.2-38.73-10.37C778,37.15,767.81,44.73,760,53.08a.83.83,0,0,1-.13.49,41.52,41.52,0,0,0-8.87,8c-8.41,10.72-8.73,24.53-.64,35.33,8.74,12.07,21,17.31,36.94,16.09C820.49,110.32,854.79,72.58,829,45.76Z"/><path class="cls-58" d="M874.44,91.53c-11.88-8.8-28.77,3.21-33.66,13.2-2.44,5-3.27,11.4,1.29,15.58a10,10,0,0,0,4.69,2.44c3,2.7,8,3.18,12.27,1.32C869.24,119.22,888.64,101.94,874.44,91.53Z"/><path class="cls-58" d="M866.35,154.87h-.84c-6.23-.58-13.62,3.4-17.79,8.7-4.18,3.53-6.62,8.61-4.88,15.13,1.54,4.82,9.63,6.33,14.07,5.33,10.47-1.89,19.14-11.33,18.43-21.13C875,158.27,871.49,155.71,866.35,154.87Z"/><path class="cls-59" d="M1232.44,259.54c-5.4-16.63-24.15-21.42-41.18-15.16-12.91,4.76-23.83,13.08-30.06,23.58a37,37,0,0,0-2.5,2.73c-9,9.86-10.41,23.89-6.37,35.78,3.47,10.44,14.78,17.53,26.6,17.25,17.09-.29,32-9.61,42.53-21.1C1232.31,290.44,1237.26,274.48,1232.44,259.54Z"/><path class="cls-59" d="M1117.58,302.81c-4.56,0-10,8.48-4,8.48C1118,311.29,1123.62,302.81,1117.58,302.81Z"/><path class="cls-59" d="M1129.79,133.93c-1,.57-2.12,1.09-3.28,1.86-10.54,2.47-17.6,11.53-20.3,20.46-3.08,9.57-1.09,24,12.72,25.63,20.11,2.15,36.94-19.62,36.94-35.72C1156.12,135,1139.87,129.17,1129.79,133.93Z"/><path class="cls-59" d="M1019.81,313.6c-8.15-1.67-17,3.79-22.61,8.25-7.84,6-10.34,15.68-10.41,24.58a9.24,9.24,0,0,0,6.3,8.41c8.86,3.24,17.54.9,25-3.95.32,0,.32-.51.58-.51,5.33-2.54,10.54-6.08,12.72-9.32C1039.66,329.15,1035.17,316.65,1019.81,313.6Z"/><path class="cls-59" d="M1416.35,211.56c-4.82-6.3-14.71-2.47-20.3.22a23.14,23.14,0,0,0-8.74,8.45c-4.69,4.92-8,10.79-8.35,17.15-.31,3.41,1.35,5.62,3.66,7.68a3.92,3.92,0,0,0-2.5-.55c-7.07,0-15.22,12.75-6.36,12.75,6,0,12.66-9,9.19-11.91a18.62,18.62,0,0,0,8.8,3.79c7.19,1.38,15.28-3,20-7.26C1420.78,234.26,1423.55,220.71,1416.35,211.56Z"/><g class="cls-60"><path class="cls-61" d="M1622.36-397.38c-.71-2.63-5.59.87-5.14,3.37,46.89,181.7,92.12,367.73,108.3,554.15.58,7.38,12.08.28,12.34-4.43C1745.24-31.29,1672.6-218.16,1622.36-397.38Z"/><path class="cls-61" d="M1710.17,228.81c-6.29-55.76-17.6-112.68-37.77-165.8-18.05-47.73-66.49-87-104.26-122.44-1.67-1.48-5.14,1.9-3.79,3.5,41.82,46.1,82.1,92.15,102.08,149.36,21.26,60.41,26,130.17,30.06,192.8,7.32,113.77,3.47,225.54,29.48,338,.84,3.79,6.94.22,6.3-2.44C1708.05,489.61,1724.5,360.78,1710.17,228.81Z"/><path class="cls-61" d="M1870.06-263.06c-57.56,176.11-13.55,354.43-29.42,533.78-14.9,168.88-63,340.81-25.57,510,.71,3.72,6.68.25,6.36-2.54C1792.59,595,1850.08,423.67,1866,242.39c15.1-171.13-33.72-337.92,17.22-507.73C1885.61-273.53,1871.92-268.65,1870.06-263.06Z"/><path class="cls-61" d="M1866,878.76c-9.18-47.41-12.14-95.26-17.79-143.15-.32-2.44-4.43-.26-4.31,1.6,2.77,49.21-.38,98.32,7.78,147.17,8.61,51,25.76,99.89,37.06,150.41.77,3.54,6.62.26,6.36-2.44C1891.71,980.16,1876.16,930.22,1866,878.76Z"/><path class="cls-61" d="M1602.9,425.18c-31.74-41-84.73-65.23-136.12-81.77-2.83-.87-7.52,4.27-4.24,5.36,54.15,18.21,94.88,44.84,134.7,81.48C1599.81,432.82,1605.15,427.85,1602.9,425.18Z"/></g><path class="cls-62" d="M1748.33,698.24s146.93,336.46-225.95,299c-106.65-10.71-167.39-52.21-189.75-110.07A139.35,139.35,0,0,1,1328,873c-22.39-83.19,27.8-175.75,59-199.52,0,0-64.89-89.94-15.28-207.19,6-14.07,15.48-29.78,28.23-45.35,51.1-62.51,153.84-122.75,284-64.82,61.44,27.33,97.69,71.75,115.4,119.93a227.68,227.68,0,0,1,12.38,100.83C1806.14,631.9,1781.47,679.51,1748.33,698.24Z"/><g class="cls-63"><path class="cls-64" d="M1748.33,698.24s146.93,336.46-225.95,299c-106.65-10.71-167.39-52.21-189.75-110.07a292.7,292.7,0,0,0,41.89,30,302,302,0,0,0,206.4,36.43,319.49,319.49,0,0,0,85.5-29.16c25.42-12.83,50.35-30.1,62.56-55.83,11.45-24.11,10.11-52.57,3.2-78.35-7.38-27.61-22-54.59-44.59-71.45a10.15,10.15,0,0,1,.24-16.55,195.79,195.79,0,0,0,66.09-77.81c7.22-15.44,12.38-33.46,6.11-49.3-7.64-19.4-42.66-35.83-42.43-57.56.25-22.54,58.38-34.87,76-40.05q2.82-.84,5.7-1.58a227.68,227.68,0,0,1,12.38,100.83C1806.14,631.9,1781.47,679.51,1748.33,698.24Z"/></g><g class="cls-65"><path class="cls-66" d="M1811.68,576.83h0s-31.81-176-177.61-219.59c-92.23-27.61-181.21,22.84-234.16,63.66,51.1-62.51,153.84-122.75,284-64.82C1787.76,402.28,1819.66,497.33,1811.68,576.83Z"/></g><path class="cls-67" d="M1457.07,471.17c-38.08-5.7-81.12,33.34-89.26,80.5-7.45,43.11,3.9,83.73,30.39,114.76-2.51-.13-11.27,7-11.27,7-31.17,23.77-81.36,116.35-59,199.54,13,48.45,50.47,87,116,108.43,2.3.44,3.89.5,6.39,1.06,78,17.39,183.19-33.35,191.74-128.92s-38.18-137.84-38.18-137.84c-.31-.45-.67-.77-1-1.21a84.11,84.11,0,0,0,9-5.23c59.85-42,81-139,25.3-189.49-65.55-59.38-135-9.67-135-9.67C1490.67,485.59,1474.37,473.77,1457.07,471.17Z"/><path class="cls-68" d="M1414.41,560.58c.75-13.5,7.47-24.11,15-23.69s13,11.7,12.3,25.2-7.46,24.11-15,23.69S1413.66,574.08,1414.41,560.58Z"/><path class="cls-69" d="M1421.75,569.76c.19-3.4,2.27-6,4.65-5.92s4.15,3,4,6.39-2.27,6-4.64,5.92S1421.57,573.16,1421.75,569.76Z"/><path class="cls-68" d="M1548.43,599.06c.87-15.68,10.45-27.9,21.41-27.29s19.14,13.81,18.28,29.49-10.46,27.9-21.42,27.29S1547.56,614.75,1548.43,599.06Z"/><path class="cls-69" d="M1558.81,607.76c.24-4.34,2.89-7.73,5.93-7.56s5.31,3.82,5.07,8.17-2.9,7.73-5.94,7.57S1558.57,612.11,1558.81,607.76Z"/><path d="M1548.93,1005.4q-13.23-.72-27.15-2.13c-56.56-5.68-102.51-20.15-136.59-43-32.37-21.72-53.58-50.57-63-85.74-22-81.82,24-172.66,56.79-202.27-5.36-8.6-16.43-28.55-24.08-56.87-9.39-34.81-15.06-89.34,11.23-151.48,17.67-41.75,64.89-95.48,130.55-121.4,59.5-23.49,125.11-20.7,189.73,8.05,79.92,35.56,128.12,105.33,132.25,191.44,1.63,34-4.19,68.75-16.38,98-11.3,27.11-27.63,48.45-46.36,60.73a413.83,413.83,0,0,1,22.53,81.39c10.76,64.41,1.95,118.36-25.48,156C1716.37,988.28,1647.81,1010.87,1548.93,1005.4Zm42.92-666.5a212.62,212.62,0,0,0-90.78,14.84c-62.41,24.63-107.18,75.44-123.86,114.87-24.86,58.76-19.61,110.27-10.82,143.13,9.57,35.79,25.29,57.94,25.45,58.16a6,6,0,0,1-1.24,8.33c-13.66,10.42-33.67,37.59-47.57,74.79-10.9,29.15-21.34,73.35-9.22,118.35,18.26,67.83,83.68,109.29,189.18,119.88q13.73,1.38,26.73,2.1c94.44,5.22,159.42-15.7,193.41-62.33,61.92-84.95.28-228.93-.35-230.37a6,6,0,0,1,2.57-7.68c38.59-21.8,64.32-85.06,61.19-150.4-3.9-81.38-49.49-147.35-125.09-181C1651.1,348.08,1621.17,340.52,1591.85,338.9Z"/><g class="cls-70"><g class="cls-71"><polygon class="cls-66" points="1647.89 555.54 1551.6 626.56 1550.06 654.34 1606.98 657.49 1683.75 600.86 1686.14 557.65 1647.89 555.54"/></g></g><g class="cls-72"><g class="cls-73"><polygon class="cls-66" points="1658.92 513.41 1673.01 532.51 1674.02 514.24 1658.92 513.41"/><polygon class="cls-66" points="1608.98 510.65 1529.31 569.41 1526.3 623.86 1572.9 626.43 1671.85 553.45 1673.01 532.51 1658.92 513.41 1608.98 510.65"/></g></g><path class="cls-64" d="M1603.06,669.54a83.88,83.88,0,1,1,88.39-79.13A84,84,0,0,1,1603.06,669.54Zm8.6-155.45a71.8,71.8,0,1,0,67.73,75.66A71.88,71.88,0,0,0,1611.66,514.09Z"/><path d="M1603.06,669.54A83.89,83.89,0,0,1,1594.13,503a84.56,84.56,0,0,1,18.19-1,83.88,83.88,0,1,1-9.26,167.51Zm8.6-155.44a72,72,0,0,0-15.59.83,71.81,71.81,0,0,0-7.74,140,71.8,71.8,0,1,0,23.33-140.83Z"/><g class="cls-74"><g class="cls-75"><polygon class="cls-66" points="1452.57 507.04 1367.06 566.23 1365.67 591.37 1412.15 593.93 1479.93 547.01 1482.05 508.67 1452.57 507.04"/></g></g><g class="cls-76"><g class="cls-77"><polygon class="cls-66" points="1418.43 468.6 1348 517.35 1345.35 565.29 1381.83 567.31 1469.76 506.45 1471.69 471.54 1418.43 468.6"/></g></g><path d="M1409.87,604.05a73,73,0,1,1,76.89-68.83A73.05,73.05,0,0,1,1409.87,604.05Zm7.4-133.65a60.88,60.88,0,1,0,57.43,64.15A60.95,60.95,0,0,0,1417.27,470.4Z"/><path class="cls-78" d="M1483.71,671.16c-27.37-1.87-24.48-35.16-23.24-44,.19-1.35.34-2.13.34-2.13l-11.94,4.2c-.52-1.47-1-2.91-1.36-4.34a47.3,47.3,0,0,1-1.49-8.44c-2.06-24.51,17.25-40.83,33.19-42.9,11.07-1.43,20,1.61,26.18,9.27.25.32.51.64.73,1,4.77,6.42,7.76,15.81,8.61,28.23.08,1.14.16,2.31.2,3.49C1515.41,628.69,1515.29,673.31,1483.71,671.16Z"/><g class="cls-63"><path class="cls-64" d="M1514.73,612.05l-7.83,2.78a76.86,76.86,0,0,1-12.59,3.67c-3.94.68-8,.74-11.91,1.49a83.75,83.75,0,0,0-12.71,4q-4.59,1.69-9.22,3.16c.19-1.35.34-2.13.34-2.13l-11.94,4.2c-.52-1.47-1-2.91-1.36-4.34a47.3,47.3,0,0,1-1.49-8.44c6.41.12,12.16-.67,17.54-5.23,4.73-4,7.91-9.82,13.3-12.85,5.18-2.9,11.52-2.72,17.12-4.68a23.65,23.65,0,0,0,12.14-9.9C1510.89,590.24,1513.88,599.63,1514.73,612.05Z"/></g><g class="cls-65"><path class="cls-66" d="M1505.39,582.85c-12.27-.24-24.62,1.17-34.86,7.64-10.44,6.61-17,17.66-20.85,29.16a33.65,33.65,0,0,1-2.17,5.27c-7.86-29.17,14-49,31.7-51.34C1490.28,572.15,1499.21,575.19,1505.39,582.85Z"/></g><path d="M1483.83,676.75l-.5,0c-9.16-.62-16.37-4.28-21.42-10.88-7.4-9.66-8.13-23.49-7.63-32.57l-3.56,1.24a5.58,5.58,0,0,1-7.09-3.36c-6.82-18.9-2-33.06,3.17-41.61,7-11.45,19.41-19.87,31.69-21.48,10.82-1.4,19.89.92,27,6.91,9.28,7.85,14.34,21.43,15,40.37h0c.52,14.32-.61,40.3-14.17,53.44C1500.36,674.57,1492.79,677.25,1483.83,676.75Zm-22.7-57.24a5.57,5.57,0,0,1,5.16,6.64c-1.17,6-2.65,23.64,4.49,32.93,3.06,4,7.41,6.12,13.31,6.52s10.72-1.17,14.48-4.82c10.85-10.51,11.16-35,10.79-45h0c-.57-15.45-4.41-26.61-11.1-32.27-4.59-3.88-10.75-5.35-18.33-4.36-9.06,1.18-18.33,7.55-23.61,16.22-3.45,5.67-6.63,14.67-3.78,26.73l6.44-2.26A5.66,5.66,0,0,1,1461.13,619.51Z"/><path class="cls-79" d="M1460.82,625.07l52.92-15.46s-16.32,40.45-30.66,40.32S1471.34,622,1471.34,622"/><path d="M1482.27,655.48a14.49,14.49,0,0,1-10.16-4.88c-4.93-5.46-6.25-14.52-6.5-21.12l-3.23.94a5.57,5.57,0,0,1-3.12-10.7l10.39-3,.26-.07,42.27-12.36a5.58,5.58,0,0,1,6.73,7.44c-4.16,10.32-19.05,44-35.88,43.81Zm-5.54-29.25c0,5.63.71,13.65,3.66,16.9a3.36,3.36,0,0,0,2.74,1.23c4.92,0,13.62-12.21,20.53-26Z"/><path d="M1533.47,567.49a6,6,0,0,1-4.51-2.42c-17.27-23.17-46.46-19.14-47.69-19a6,6,0,0,1-1.82-12c1.52-.24,37.52-5.42,59.19,23.68a6,6,0,0,1-5.17,9.64Z"/><path d="M1387.86,712.5a30.2,30.2,0,0,0,5,8.15,10.94,10.94,0,0,0,6.2,3.61,19.18,19.18,0,0,0,7.25-.42,62.54,62.54,0,0,0,8.15-2.64l.31-.12a5.41,5.41,0,0,1,7.37,5.22c0,.29.05,1,.07,1.52s.09,1.16.17,1.75c.16,1.17.34,2.34.61,3.48a27.2,27.2,0,0,0,2.32,6.52,24,24,0,0,0,1.84,3,23.22,23.22,0,0,0,2.51,2.68c1.85,1.83,4.26,3.12,6.93,4.68a18,18,0,0,1-9.29-.1,10.13,10.13,0,0,1-2.34-.81,25,25,0,0,1-2.26-1.12c-.7-.47-1.41-.94-2.1-1.45a23.72,23.72,0,0,1-1.91-1.72,25.49,25.49,0,0,1-5.48-8.48,29.59,29.59,0,0,1-1.46-4.75c-.19-.81-.32-1.63-.46-2.46a24.76,24.76,0,0,1-.22-2.72l7.68,5.11-2.51,1c-.86.32-1.75.57-2.63.86s-1.81.49-2.72.7-1.9.33-2.84.48a21.87,21.87,0,0,1-12.23-1.72,15.45,15.45,0,0,1-8-9.41A17.71,17.71,0,0,1,1387.86,712.5Z"/><path d="M1396.33,664.08c7.22,6.29,14.25,12.2,21.44,17.79a239.11,239.11,0,0,0,22.14,15.4,175,175,0,0,0,23.78,12.24,232.19,232.19,0,0,0,26.17,9,68.32,68.32,0,0,1-28.81-.62,89.34,89.34,0,0,1-27-11.09,101.64,101.64,0,0,1-22.28-18.53C1405.42,681.06,1399.81,673.09,1396.33,664.08Z"/><path d="M1685.18,599.22a6,6,0,0,1-.89-12l61.27-12.66c1.73-.4,12.61-2.59,21.92,3.34,5.82,3.71,9.56,9.61,11.14,17.54a6,6,0,0,1-11.85,2.36c-.92-4.64-2.81-7.81-5.78-9.71-5.27-3.36-12.63-1.77-12.7-1.76l-.2,0-61.35,12.67A5.94,5.94,0,0,1,1685.18,599.22Z"/><path class="cls-62" d="M1500.39,382.94l-2,1.39-.93.66-32.2,22.53-41.64,29.15-6.16,4.3-1.93,1.36-.68.48c-.79-.45-1.57-.92-2.33-1.37l0,0-1.71-1c-54.82-33.29-68.12-70.7-61.63-82.12a7.77,7.77,0,0,1,1.25-1.66,5.71,5.71,0,0,1,2.78-1.46A8.92,8.92,0,0,1,1356,355a26.59,26.59,0,0,1,9.25,2.88c11.15,5.32,24.2,16.35,27.59,19.3a56.71,56.71,0,0,1-6.94-7.73c-15.38-20.1-29.26-57.37-17.55-64.23a6.69,6.69,0,0,1,1.72-.75l.59-.15c13.29-2.73,38.06,27.24,48.88,41.36,1,1.28,1.84,2.42,2.57,3.39a69.29,69.29,0,0,1-4.27-8.08c-6.62-14.47-12.2-35.85-9-44.06a5,5,0,0,1,2.93-3.15,3,3,0,0,1,.4-.11c10.58-2.81,22.42,25.14,45.14,48.76,6.25,6.5,12.28,12.46,17.75,17.68C1489.76,374.12,1500.39,382.94,1500.39,382.94Z"/><g class="cls-65"><path class="cls-66" d="M1394.59,380c-8.95,2.07-18.12-1.95-26-6.57a77.91,77.91,0,0,1-17.32-13c-.61-.64-1.31-1.39-2-2.2a7.77,7.77,0,0,1,1.25-1.66,5.71,5.71,0,0,1,2.78-1.46A8.92,8.92,0,0,1,1356,355a26.59,26.59,0,0,1,9.25,2.88c11.15,5.32,24.2,16.35,27.59,19.3a56.71,56.71,0,0,1-6.94-7.73l3.3,3.49C1391.28,375.07,1393.38,377.29,1394.59,380Z"/></g><g class="cls-65"><path class="cls-66" d="M1421.6,349c-14.7-3-26.77-13.15-38-23.12a75,75,0,0,1-7-6.88,53.37,53.37,0,0,1-8.2-13.8,6.69,6.69,0,0,1,1.72-.75l.59-.15c13.29-2.73,38.06,27.24,48.88,41.36Z"/></g><g class="cls-65"><path class="cls-66" d="M1499.18,385.07c-.57,0-1.13,0-1.7-.08-5.37-.53-10.32-3.48-14.86-6.48-8.89-5.91-17.3-12.47-25.65-19.12-8.84-7-17.73-14.27-24.19-23.53a123.54,123.54,0,0,1-9.3-17c-3.34-7-6.68-13.91-9.59-21.06-.56-1.38-1.14-2.77-1.71-4.19,10.58-2.81,22.42,25.14,45.14,48.76,6.25,6.5,12.28,12.46,17.75,17.68,5.22,6.83,11.53,12.92,17.75,18.9l5.59,5.36Z"/></g><g class="cls-63"><path class="cls-64" d="M1476.73,418c-10.1,8.58-22.52,14-35.08,18.24-7.23,2.46-14.67,4.59-22.31,4.76h-1.86a55.59,55.59,0,0,1-6.68-.58c-57.85-35.12-69.46-74.84-60.38-83.78a5.71,5.71,0,0,1,2.78-1.46c1.9,3.14,3.73,6.35,5.53,9.37,1.94,3.23,3.52,6.71,5.8,9.71,2.89,3.82,6.79,6.72,10.62,9.58,7.81,5.78,15.66,11.59,24.27,16.09a94.1,94.1,0,0,0,65.86,7.62c1.35-.34,2.69-.72,4-1.11,4-1.2,9.23-2.23,11.43,1.28S1479.79,415.36,1476.73,418Z"/></g><g class="cls-63"><path class="cls-64" d="M1446.13,355.4c-5.05-2.5-11.29-1.23-16.41-3.56a22,22,0,0,1-6-4.41c-2.13-2-4.16-4.07-6.13-6.26-6.61-14.46-12.19-35.84-9-44.05A101.18,101.18,0,0,0,1413,310.6,114.38,114.38,0,0,0,1446.13,355.4Z"/></g><g class="cls-63"><path class="cls-64" d="M1417.39,386.5c-.9,1-2.47.93-3.8.72-14.73-2.36-27.32-11.65-38.92-21-3.24-2.62-6.49-5.32-9.65-8.13,11.14,5.32,24.19,16.35,27.58,19.3-18.23-16.56-39.56-67.86-22.77-72.71l.6-.15a153.18,153.18,0,0,0,6.69,18.09c10,21.3,24.13,40.35,39,58.54C1417.44,382.69,1418.73,385,1417.39,386.5Z"/></g><path d="M1498.85,384.72a93.11,93.11,0,0,1-20.62-13.11c-6.2-5.15-12.19-10.57-17.85-16.31-2.83-2.88-5.6-5.78-8.35-8.79s-5.48-6.22-8.06-9.41c-5.17-6.39-10-13-14.67-19.41-2.34-3.23-4.65-6.42-7-9.43a44.41,44.41,0,0,0-7-7.56,5.06,5.06,0,0,0-1.84-1s0,0,0,0h0l.17,0a1,1,0,0,0,.32-.21c.21,0,.34-.33.37-.29s0-.1,0,0a.29.29,0,0,1,0,.13,10.29,10.29,0,0,0-.54,3.55,36.36,36.36,0,0,0,.27,5.11,104.14,104.14,0,0,0,5.48,21.82,108,108,0,0,0,4.34,10.47c.8,1.68,1.65,3.31,2.55,4.82a26,26,0,0,0,2.75,3.94l-9.44,7.53a282.39,282.39,0,0,0-24.8-30,97,97,0,0,0-14.05-12.31,25.21,25.21,0,0,0-7-3.57,4.9,4.9,0,0,0-2.17-.17h-.16l-.11.08c-.06.05-.21,0-.22.08a.18.18,0,0,1-.16.08.3.3,0,0,1-.13.18c-.5.51-1.22,2.84-1.1,5.53A42.65,42.65,0,0,0,1371,325a99.31,99.31,0,0,0,6.08,17.72,126.18,126.18,0,0,0,8.93,16.76c3.38,5.25,7.2,10.39,11.41,14l-7.95,9.1a183,183,0,0,0-15.73-12.35c-2.72-1.88-5.49-3.65-8.27-5.2a36.93,36.93,0,0,0-8.11-3.51,7.57,7.57,0,0,0-2.79-.34c-.24,0-.26.08-.21,0s.1,0,.09-.08a.31.31,0,0,1-.12.14,5.23,5.23,0,0,0-.7,2.21,14.7,14.7,0,0,0,0,3.71c.56,5.52,3,11.56,6.07,17.12a96.75,96.75,0,0,0,11.25,15.95,119.68,119.68,0,0,0,14.06,14.06c5.15,4.27,10.62,8.11,15.82,12.37s10.41,8.61,14.87,14.57l0,0a2.18,2.18,0,0,1-.44,3.05,2.14,2.14,0,0,1-1.6.41c-7.48-1-14-4.11-20.06-7.86a103.71,103.71,0,0,1-16.78-13.32c-10.51-9.72-20.49-20.37-27.72-33.4-3.52-6.55-6.61-13.52-7.52-21.82a26.47,26.47,0,0,1,.11-6.63,16.72,16.72,0,0,1,2.81-7.46c.5-.63,1-1.24,1.57-1.83a16.18,16.18,0,0,1,2.17-1.63,12.85,12.85,0,0,1,4.68-1.58,19.08,19.08,0,0,1,7.48.61,48.26,48.26,0,0,1,10.93,4.64c3.27,1.81,6.33,3.78,9.3,5.83a195.85,195.85,0,0,1,16.91,13.28h0a6,6,0,1,1-8,9.09c-5.84-5.11-9.93-10.84-13.76-16.72a139.1,139.1,0,0,1-9.8-18.38,111.52,111.52,0,0,1-6.81-19.94,54.6,54.6,0,0,1-1.45-11.13c0-1,.06-2,.1-3.06a27.67,27.67,0,0,1,.49-3.26,16.74,16.74,0,0,1,3.28-7c.5-.57,1-1.12,1.57-1.64s1.25-.91,1.9-1.33a11.77,11.77,0,0,1,2-.95l1-.39,1.06-.23a17,17,0,0,1,7.69.3,36.61,36.61,0,0,1,10.76,5.27,108.71,108.71,0,0,1,15.92,13.88c4.78,4.94,9.26,10.05,13.56,15.29s8.4,10.52,12.43,16.12a6,6,0,0,1-9.41,7.55l0,0a37,37,0,0,1-4.13-5.83c-1.14-1.92-2.13-3.83-3-5.75A127.81,127.81,0,0,1,1402,309.29a48.59,48.59,0,0,1-.34-6.83,21.35,21.35,0,0,1,1.59-8.14c.19-.41.39-.81.6-1.21a10.24,10.24,0,0,1,.86-1.28,11.06,11.06,0,0,1,2.47-2.39,13.82,13.82,0,0,1,1.66-.88c.28-.12.59-.26.85-.34l.72-.2a12,12,0,0,1,3-.4,13.28,13.28,0,0,1,5.31,1.17,16.24,16.24,0,0,1,2,1.06c.61.37,1.17.76,1.72,1.16,4.13,3.19,6.69,6.53,9.34,9.8s4.92,6.56,7.27,9.79c4.67,6.45,9.27,12.79,14.3,18.68,2.51,2.94,5.12,5.78,7.82,8.49l8.39,8.31c11.06,11.29,22.71,21.87,31.82,35.54l0,0a2.09,2.09,0,0,1-2.59,3.07Z"/><path class="cls-80" d="M1581.35,757.6l-.27,2.27-30.19,241.93c-71.83,24.85-195.57,32.38-195.57,32.38-41.91,15.58-50.48-32.17-50.48-32.17l-59.24-70.57,23.6-236.7,51.88,60.43,11.72,13.66a49.92,49.92,0,0,1,40.63,8.66Z"/><g class="cls-63"><path class="cls-64" d="M1581.08,759.87l-30.19,241.93c-71.83,24.85-195.57,32.38-195.57,32.38-41.91,15.58-50.48-32.17-50.48-32.17l-59.24-70.57,23.6-236.7,51.88,60.43a76.55,76.55,0,0,1-5.61,22.66c-4,9.46-11.67,18.91-22,19.13,9.31,6.69,14.26,19.94,9.31,30.28S1282,841.39,1274.2,833a46.76,46.76,0,0,0,15.54,26.82c-9.39,13.89-15.67,31.1-11.85,47.43s20.43,30.2,36.79,26.52c3.8,9,16.76,10.73,25.29,5.92s13.58-13.85,18.22-22.46l23.46-43.47c6.52-12.09,13.19-24.38,23-34,25.53-25,65.08-26.1,99.32-36.14A181.92,181.92,0,0,0,1551.09,782C1558.87,777,1570.34,764.22,1581.08,759.87Z"/></g><path d="M1337.38,1043.3a34.87,34.87,0,0,1-15.54-4.54c-15.7-9-21.24-28.2-22.59-34L1241,935.32a6.06,6.06,0,0,1-1.38-4.48l23.61-236.69a6,6,0,0,1,10.6-3.34l61.33,71.45a56.29,56.29,0,0,1,40,9l205.61-19.67a6,6,0,0,1,6.58,6.76l-30.47,244.2a6,6,0,0,1-4,5c-69.4,24-184.16,31.86-196.3,32.63A49,49,0,0,1,1337.38,1043.3Zm-85.52-113.79,57.61,68.62a6.07,6.07,0,0,1,1.32,2.82c0,.18,3.78,19.78,17.09,27.34,6.81,3.86,15.33,3.94,25.32.23a5.82,5.82,0,0,1,1.74-.37c1.21-.08,119.71-7.51,190.42-30.85l29.06-233L1374,783.52a6.09,6.09,0,0,1-4.47-1.39,43.5,43.5,0,0,0-35.44-7.39,6,6,0,0,1-5.88-2l-54.41-63.38Z"/><path class="cls-66" d="M1276,702.61l27.85-10.52,59,61.45,181.76-18.15,23.67,22.5L1373.43,777.5s-17-14.18-40.63-8.66Z"/><path d="M1373.17,782.27a4.82,4.82,0,0,1-2.8-1.1,44.4,44.4,0,0,0-36.48-7.68,4.79,4.79,0,0,1-4.71-1.54l-56.86-66.23a4.78,4.78,0,0,1,1.94-7.58l27.85-10.52a4.76,4.76,0,0,1,5.13,1.16l57.37,59.77,179.45-17.92a4.77,4.77,0,0,1,3.76,1.29l23.67,22.5a4.78,4.78,0,0,1-2.81,8.22l-194.77,19.61A4.61,4.61,0,0,1,1373.17,782.27Zm-26.45-19.42a55.24,55.24,0,0,1,28.08,9.71l182.57-18.38-14.54-13.82-179.58,17.93a4.74,4.74,0,0,1-3.92-1.45l-56.8-59.17-18.51,7,50.58,58.92A52.53,52.53,0,0,1,1346.72,762.85Z"/><path d="M1329.07,784.09c0,16.84-.78,33.63-1.64,50.42s-2.06,33.54-3.46,50.28c-.67,8.37-1.34,16.75-2.12,25.11l-1.14,12.55L1319.47,935c-1.69,16.72-3.5,33.43-5.79,50.11a1.33,1.33,0,0,1-2.64-.21c.28-16.82,1-33.61,1.9-50.4l.68-12.58.79-12.58c.5-8.38,1.11-16.76,1.72-25.14,1.16-16.76,2.63-33.5,4.24-50.22s3.53-33.43,6.05-50.09a1.33,1.33,0,0,1,2.65.21Z"/><path d="M1369.91,794c-.22,18.69-1.12,37.32-2.15,55.94s-2.41,37.22-4,55.81c-.75,9.29-1.51,18.58-2.38,27.87l-1.27,13.92-1.37,13.93c-1.86,18.55-3.85,37.1-6.3,55.62a1.33,1.33,0,0,1-2.65-.21c.46-18.67,1.38-37.3,2.42-55.93l.81-14,.92-14c.59-9.3,1.28-18.6,2-27.9,1.34-18.6,3-37.17,4.76-55.74s3.88-37.1,6.57-55.6a1.33,1.33,0,0,1,2.64.21Z"/><path d="M1557,750.61l-171.56,13.6,170.8-21.12a3.78,3.78,0,0,1,.93,7.5Z"/><path d="M1292,693.94l50.17,61.55L1286.33,699a3.78,3.78,0,0,1,5.39-5.31Z"/><path class="cls-62" d="M1737.52,820.11c-9.79,27.28-28.92,55.15-51.52,70.07-54,35.71-124.54,49.26-190.22,45s-26.45-41.82-26.45-41.82-40.07,15.51-50.29.21c-10-14.91,20.75-35.3,22.38-36.36-1.91.88-46.06,21.35-52.92-1.24a15.07,15.07,0,0,1,.26-8.84c2.17-7.32,8.78-15.66,18.34-23.87v0c21.86-18.79,59.25-36.92,95.18-40.71,52-5.49,87.41,23.82,124.91,18.15,21.1-3.21,31.69-9.17,36.9-13.78l.05,0a18.78,18.78,0,0,0,4.45-5.41,6.36,6.36,0,0,0,.38-.89l.46-.41,38.79-34.25c.43,0,.83,0,1.24,0,17.58.08,27.81,8.22,32.29,20.74C1746.81,780.7,1744.64,800.24,1737.52,820.11Z"/><g class="cls-65"><path class="cls-66" d="M1737.52,820.11a86.11,86.11,0,0,0-2.43-40.11c-2-6.52-4.7-12.92-9.06-18.14a68.34,68.34,0,0,0-9.1-8.56c-1.82-1.53-6.36-4-7.28-6.2a2.33,2.33,0,0,1-.18-1.19c17.58.08,27.81,8.22,32.29,20.74C1746.81,780.7,1744.64,800.24,1737.52,820.11Z"/></g><g class="cls-63"><path class="cls-64" d="M1686,890.18c-54,35.71-124.54,49.26-190.22,45-52.29-3.36-38.08-27.88-30.1-37.74a43,43,0,0,1-13.23.88c-12.24,2.7-27.62,3.92-33.41-4.75-10-14.91,20.75-35.3,22.38-36.36-.31.15-1.77.83-4,1.75-3.74,2.52-7.34,5.27-11.42,7.11a28.29,28.29,0,0,1-21.93.41c-7.28-.45-13.33-3.25-15.54-10.51-1-3.33-.59-7.09,1.07-11.11a12.62,12.62,0,0,1,2.28-8.15c1.62-2.07,2.7-2.43,4-2a86.62,86.62,0,0,1,11.3-11.48c-3.58,7.2-4.14,12.52-2.62,16.39a17.18,17.18,0,0,0,8.53,1.44c11.67-.94,21.88-7.78,32.26-13.24,44.89-23.61,102-22.12,145.62,3.82-18.33-5.06-40.51-7.58-59.33-4.94s-35.12,7.9-52.72,15.58c-5.35,2.34-9.88,4.94-16.82,8-8.5,4.23-10,7-12.7,11.06,2.5,3.55,6.24,5.58,10.19,7.16,9.28,3.72,35.45,4.67,52.3-1,27.57-9.35,48.58-16.77,85.77-15-33.74,10.13-68.25,20.55-100.41,36.39,9.3,5.28,46.51,20.41,133.86-8.28,82.56-27.13,105-90,110.73-113.91C1753.74,800,1725.06,864.38,1686,890.18Z"/></g><g class="cls-65"><path class="cls-66" d="M1627.2,800.71c21.1-3.21,31.69-9.17,36.9-13.78a50,50,0,0,1-12.08,9.25c-10.27,5.46-22,7.39-33.49,9.25-10.34,1.67-20.81,3.94-31.22,2.89-26-2.61-43.44-12-64.39-12.84-10.57-.42-29.16,2.6-39.49,4.8-37.83,8-64.59,23-94.67,46.88,2.17-7.32,8.78-15.66,18.34-23.87v0c21.86-18.79,59.25-36.92,95.18-40.71C1554.33,777.07,1589.7,806.38,1627.2,800.71Z"/></g><path d="M1670.92,781.16a12.43,12.43,0,0,1-.59,1.88c-.24.52-.46,1.08-.73,1.57a26.11,26.11,0,0,1-1.83,2.85,32.53,32.53,0,0,1-4.54,4.76,49.37,49.37,0,0,1-10.78,6.91,91.9,91.9,0,0,1-23.7,7.42,82.08,82.08,0,0,1-25.46.18,162.49,162.49,0,0,1-23.84-5.56c-7.67-2.25-15.11-4.71-22.56-6.76-3.72-1.12-7.45-1.93-11.18-2.86l-5.6-1.13-2.8-.55-2.81-.41A129,129,0,0,0,1512,788l-5.62.38c-1.87.12-3.74.21-5.62.5s-3.75.46-5.61.8l-2.81.46-2.79.56a188.85,188.85,0,0,0-63.22,25.92,130.82,130.82,0,0,0-18,13.7,71.15,71.15,0,0,0-7.55,7.93,38.05,38.05,0,0,0-5.45,8.54,11.78,11.78,0,0,0-1.07,7.42,8.86,8.86,0,0,0,1.56,3,8.14,8.14,0,0,0,2.63,2,16,16,0,0,0,4,1.12,27.19,27.19,0,0,0,4.84.23,55,55,0,0,0,10.53-1.48,100.91,100.91,0,0,0,10.71-3.13c3.51-1.23,7.15-2.66,10.37-4.15a6,6,0,0,1,5.92,10.5l0,0c-6.25,4.23-12.62,9.53-17.14,15.19-2.22,2.82-4,5.89-4.39,8.36a6,6,0,0,0,.18,3.1c.12.22.16.45.29.68s.26.46.4.69a5.59,5.59,0,0,1,.48.61,7.53,7.53,0,0,1,.57.56c1.63,1.43,4.67,2.43,8.13,2.7a49.82,49.82,0,0,0,11.08-.47,101.18,101.18,0,0,0,11.52-2.38c3.8-1,7.74-2.24,11.27-3.55a6.05,6.05,0,0,1,6.37,10h0c-.58.57-1.38,1.44-2,2.21s-1.37,1.62-2,2.47a37.48,37.48,0,0,0-3.35,5.16c-1.89,3.5-2.78,7.08-2.17,9.52a7,7,0,0,0,1.92,3.42l.36.42.47.38c.33.26.6.54,1,.79a20.28,20.28,0,0,0,2.33,1.41,45.65,45.65,0,0,0,11.83,3.87,111.55,111.55,0,0,0,13.39,1.71c4.62.27,9.33.48,14,.66,9.35.18,18.71.17,28-.37a343.25,343.25,0,0,0,55.51-7.38,287.79,287.79,0,0,0,53.13-17.11c2.12-.94,4.28-1.82,6.37-2.82l6.25-3.08c4.22-2,8.19-4.37,12.27-6.57,2-1.08,4-2.38,6-3.59l5.9-3.67a93.88,93.88,0,0,0,10.57-8.21,127.39,127.39,0,0,0,18.13-20.26,158.29,158.29,0,0,0,14.12-23.54,139.53,139.53,0,0,0,9.64-25.56,84.26,84.26,0,0,0,2.89-26.33c-.5-8.53-2.62-16.6-7.6-22.23a28,28,0,0,0-9.39-7,64.1,64.1,0,0,0-12.72-4.12h0a2.07,2.07,0,0,1,0-4,36.62,36.62,0,0,1,15.46-.46,30.65,30.65,0,0,1,14.94,7.34,31.22,31.22,0,0,1,5.54,6.56,38.1,38.1,0,0,1,3.76,7.53,51.24,51.24,0,0,1,3,15.77c.38,10.48-1.52,20.48-4.09,30.09a156,156,0,0,1-10.49,27.74,170.53,170.53,0,0,1-15.21,25.35A138.9,138.9,0,0,1,1701.23,886a106.16,106.16,0,0,1-12,9.27l-6.21,3.87c-2.08,1.27-4.11,2.64-6.27,3.78-4.28,2.32-8.46,4.85-12.88,6.9l-6.55,3.23c-2.19,1.05-4.45,2-6.67,3a300.32,300.32,0,0,1-55.34,17.83,355.37,355.37,0,0,1-57.5,7.65c-9.66.55-19.34.57-29,.38-4.84-.18-9.63-.4-14.51-.69a124.48,124.48,0,0,1-14.9-1.91,56.94,56.94,0,0,1-15.16-5.06,33.27,33.27,0,0,1-3.75-2.31c-.61-.44-1.21-1-1.8-1.47l-.89-.77-.84-.9a19.17,19.17,0,0,1-4.84-8.94,21.84,21.84,0,0,1,.16-9.78,33.44,33.44,0,0,1,3.13-8.1,50.11,50.11,0,0,1,4.39-6.8c.79-1.06,1.63-2.08,2.49-3.08s1.7-1.91,2.82-3l6.36,10c-4.27,1.59-8.3,2.83-12.54,4a113.9,113.9,0,0,1-12.93,2.67,61.88,61.88,0,0,1-13.83.54,32.46,32.46,0,0,1-7.48-1.48,21.82,21.82,0,0,1-7.51-4.15c-.56-.53-1.12-1.07-1.66-1.62s-1-1.23-1.44-1.85-.8-1.33-1.18-2a22.36,22.36,0,0,1-.94-2.18,18.05,18.05,0,0,1-.66-9.22,26,26,0,0,1,2.76-7.62,42.57,42.57,0,0,1,4-6.09,74.35,74.35,0,0,1,9.47-9.76q2.52-2.18,5.13-4.18c1.78-1.36,3.47-2.59,5.48-3.92l5.87,10.53c-3.94,1.82-7.65,3.27-11.58,4.65a112.82,112.82,0,0,1-12,3.5,67.34,67.34,0,0,1-12.86,1.78,31.62,31.62,0,0,1-14.31-2.49,20.27,20.27,0,0,1-6.73-5.11,21,21,0,0,1-3.92-7.38c-.17-.71-.32-1.43-.46-2.15-.07-.36-.15-.72-.19-1.07l0-1.06,0-2.11c0-.68.14-1.34.23-2a27.29,27.29,0,0,1,2.08-7.23,49.67,49.67,0,0,1,7.16-11.38,83.93,83.93,0,0,1,8.73-9.2,143.61,143.61,0,0,1,19.61-15,201,201,0,0,1,67.4-27.62l3-.6,3-.5c2-.36,4-.63,6.09-.87s4.1-.42,6.16-.55l6.19-.41a153.3,153.3,0,0,1,24.64,1.54l3,.41,3,.56,6,1.14c3.94.92,7.92,1.79,11.78,2.84,7.8,2,15.41,4.26,22.9,6.35,15,4.28,29.59,7.67,43.87,5.92a131.45,131.45,0,0,0,22-4.37l2.64-.84c.85-.32,1.69-.66,2.55-1s1.68-.7,2.51-1.06a24.86,24.86,0,0,0,2.43-1.19,32.57,32.57,0,0,0,4.52-2.81,21.2,21.2,0,0,0,2-1.7c.33-.29.58-.6.88-.91s.53-.69.66-.79l1-.73a1.84,1.84,0,0,1,2.9,1.87Z"/><path d="M1438.12,852.19c3-1.74,5.69-3.15,8.56-4.6s5.7-2.77,8.58-4.07q8.65-3.88,17.54-7.09a224.82,224.82,0,0,1,36.37-9.87,177.78,177.78,0,0,1,18.65-2.41,152.43,152.43,0,0,1,18.75-.39,135.71,135.71,0,0,1,36.64,6.34,134,134,0,0,0-36.63-3.32,150.33,150.33,0,0,0-18.23,1.87,172.56,172.56,0,0,0-17.87,3.81,215.72,215.72,0,0,0-34.26,12.37q-8.28,3.76-16.24,8.15c-2.64,1.46-5.26,3-7.83,4.53s-5.17,3.21-7.42,4.79l-.07.05a6,6,0,1,1-7-9.89A4.94,4.94,0,0,1,1438.12,852.19Z"/><path d="M1464,889.11c9.47-3.32,18.89-6.41,28.38-9.41s19-5.88,28.58-8.56,19.18-5.25,28.87-7.47,19.42-4.22,29.24-5.59c-9.63,2.36-19.06,5.33-28.41,8.49s-18.58,6.7-27.77,10.29-18.28,7.43-27.34,11.33-18.09,7.94-26.94,12.09l0,0a6.05,6.05,0,1,1-5.14-11Z"/><path class="cls-81" d="M1783.74,925.46c-1.83,16.06-30.16,32.95-63.55,44.73-38.58,13.64-55.86,70.35-87,60.85-6-1.82-10.35-6.27-13.42-12.57s-4.83-14.73-5.48-24.16c-1.35-19.89,2.13-44.71,7.71-66.76q1.5-6,3.13-11.35c7-23.22,15.62-39,23.8-49,8.34-10.22,16.22-14.42,21.39-14.47a7.18,7.18,0,0,1,3.38.75c3.65,1.94,4.7,6.38,4.17,12.07-1.11,12.44-9.79,30.75-15.31,41.35-.25.48-.5,1-.73,1.41a.1.1,0,0,1-.05.06c-1.42,2.69-2.56,4.74-3.21,5.9,0,0,0,.05,0,.08-.15.25-.26.45-.35.61.33-.51.68-1,1-1.56,1-1.52,2.13-3.07,3.36-4.67q.36-.48.75-1c.53-.69,1.1-1.39,1.67-2.08l0-.05c21.57-26.25,65.51-58.27,79-43.84a9.61,9.61,0,0,1,.65.76c2.69,3.43,3,8,1.68,13.15a32.36,32.36,0,0,1-1.12,3.57c-6.9,18.83-31,43.31-38,50.2l-1.72,1.66a42.27,42.27,0,0,1,3.63-3s0,0,.06,0c1.42-1,3-2.09,4.65-3.11l.1-.06c21.54-13.15,61-22.43,68.37-7.26.07.11.12.23.18.34A14,14,0,0,1,1783.74,925.46Z"/><g class="cls-65"><path class="cls-66" d="M1783.74,925.46c-9-3.69-19.07-5.12-28.88-5-12-.66-24.59,2.59-36.22,5-1.53.33-4.15,1.39-4.7-.42l.1-.06c21.54-13.15,61-22.43,68.37-7.26.07.11.12.23.18.34A14,14,0,0,1,1783.74,925.46Z"/></g><g class="cls-65"><path class="cls-66" d="M1748.21,872.64a34.65,34.65,0,0,1-1.12,3.57,19.13,19.13,0,0,0-9.82-2.85c-5-.13-9.83,1.28-14.51,2.91A163.61,163.61,0,0,0,1700,886.42c-6.52,3.46-12.82,7.29-19,11.29-2.29,1.46-13.54,11.16-16.19,9.39-.48-.33.37-2,2-4.49l0,0c21.57-26.25,65.5-58.27,79-43.84a9.72,9.72,0,0,1,.66.76C1749.21,862.92,1749.5,867.49,1748.21,872.64Z"/></g><g class="cls-65"><path class="cls-66" d="M1677.92,865.57c-8.1,4.52-20.38,12.39-21.83,13.53a114.74,114.74,0,0,0-21,21.64c-1.5,2-6,11.21-9.92,15.46,7-23.22,15.62-39,23.8-49,8.34-10.22,16.22-14.42,21.39-14.47a7.18,7.18,0,0,1,3.38.75C1677.4,855.44,1678.45,859.88,1677.92,865.57Z"/></g><g class="cls-63"><path class="cls-64" d="M1782.59,918c-.06-.11-.11-.23-.18-.34a123.1,123.1,0,0,1-14.75,12.94c-12.76,9.35-27.47,15.25-42.29,21a131,131,0,0,0-24.48,7.78c-3.74,1.59-8.56,3.2-11.4.31s-1-8.07,1.44-11.53c6.29-9,14.53-16.29,23.11-23.29-1.71,1-3.3,2.1-4.75,3.17,0,0,0,0-.06,0a42.27,42.27,0,0,0-3.63,3l1.72-1.66c7.49-7.33,34.29-34.61,39.12-53.77q-15.26,14.44-31.73,27.5c-11.27,8.93-23.53,17.58-37.73,19.9-3,.49-6.15.64-8.78-.79-4.53-2.46-5.49-8.26-5.58-13.59,0-.62,0-1.23,0-1.83a7.84,7.84,0,0,1-.73,1.41.1.1,0,0,1-.05.06c-2.86,4.43-9.53,6.13-14,3.2-3.25-2.11-5-5.92-5.93-9.69a39.55,39.55,0,0,1,.35-18.76c1.34-5.5,5-10.62,6.75-15.92-9.44,11.56-19.48,30.79-26.93,60.33-5.58,22.05-9.06,46.87-7.71,66.76.12,1.76.28,3.5.47,5.19.14,1.09.29,2.18.45,3.23a56.79,56.79,0,0,0,4.56,15.74c3.07,6.3,7.44,10.75,13.42,12.57,31.09,9.5,48.37-47.21,87-60.85S1790.62,936.15,1782.59,918Zm-112,67.86a123.74,123.74,0,0,1-13.2,17.68c-3,3.32-7.19,6.76-11.42,5.36-3-1-4.75-4.15-5-7.25s.8-6.16,1.94-9.06c3.64-9.24,8.67-18.1,15.86-25,4.38-4.18,14.58-9.17,18.11-.86C1679.16,972.2,1673.24,981.54,1670.55,985.89Z"/></g><path d="M1638.82,1038.16a30.73,30.73,0,0,1-7.35-1.34h0c-29.63-9.06-26.76-65.32-15.29-110.74,15.07-59.68,38.93-74.35,45.89-77.43,5.45-2.41,10.61-2.58,14.53-.49a13.74,13.74,0,0,1,6.72,8.65c1.79,6.33.17,15.28-2.83,24.44,17.18-15.2,37.75-28.23,52.79-29,8.8-.46,13.68,3.35,16.25,6.63,9.8,12.53-2.08,33.45-15.64,50.53,13.64-4.56,28.2-6.9,38.76-4.79,9.61,1.94,13.71,7,15.46,11a21,21,0,0,1-.16,17.17c-9.15,21.21-49,37.24-65.74,43.14-15.92,5.62-28.12,19.55-39.91,33C1668.74,1024.38,1655.84,1039.1,1638.82,1038.16Zm-3.81-12.9c12.69,3.89,22.78-6.72,38.2-24.32,12.22-14,26.07-29.77,45-36.44,31.23-11,53.71-25,58.67-36.54a8.78,8.78,0,0,0,.21-7.48c-.86-1.94-3.14-3.29-6.79-4-16.76-3.37-48.83,8.15-60.66,19.23l-.11.1a6,6,0,0,1-8.29-8.79l.1-.09c20.81-19.61,45.8-51.52,38.7-60.59-.48-.61-1.74-2.24-6.1-2-18.87,1-57.07,32.39-70.76,54.24a6,6,0,0,1-10.34-6.24c9.4-16.17,21.48-43,18.88-52.19-.29-1-.64-1.21-.79-1.29-.32-.11-2.07-.15-5.08,1.44-11.46,6-27.44,27.28-37.92,68.78-11,43.38-12,90.37,7.11,96.22Z"/><path class="cls-62" d="M1302.78,780.17c-1.23,9.69-6.63,14.5-10.67,16.79a18.59,18.59,0,0,1-4.67,1.91c15.94,37.46-19.74,35.76-19.74,35.76,27.41,44.28-17.1,41.55-46,15.47-21.54-19.41-21.23-46.12-19.67-58.5.13-1,.26-1.85.39-2.63.43-2.65.84-4.19.84-4.19-12-19-14.07-48.26-8.51-62.77a21,21,0,0,1,2.66-5,9.89,9.89,0,0,1,3.58-3.08c7.22-3.45,14,.51,18.22,4.27,1.08,1,2,1.91,2.74,2.71v0a29.76,29.76,0,0,1,1.92,2.32s-.95-18.78,5.94-29.27a17,17,0,0,1,3.29-3.75,12.88,12.88,0,0,1,4.56-2.52c4.16-1.28,9.44-1.38,16.29,2.79s15.06,12.48,25.23,28c3.5,5.32,7.22,11.51,11.16,18.64.06.11.11.2.18.31l0,.09c7.14,13,10.68,23.24,12,31.36A39.08,39.08,0,0,1,1302.78,780.17Z"/><g class="cls-65"><path class="cls-66" d="M1232.58,742.53c-7.24-7-14.6-14-23.09-19.38a64.9,64.9,0,0,0-12.13-6.15,9.89,9.89,0,0,1,3.58-3.08c7.22-3.45,14,.51,18.22,4.27,1.08,1,2,1.91,2.74,2.71v0Q1227.24,731.72,1232.58,742.53Z"/></g><g class="cls-65"><path class="cls-66" d="M1298.84,786c-2-15-10.15-28.36-18.46-41-11.44-17.41-23.71-34.57-39.37-48.32-2.57-2.25-5.21-4.41-8-6.46a12.88,12.88,0,0,1,4.56-2.52c4.16-1.28,9.44-1.38,16.29,2.79a73.87,73.87,0,0,1,6.91,6.68,233.51,233.51,0,0,1,18.32,21.34,103.22,103.22,0,0,1,11.34,19l0,.09a163,163,0,0,1,6.74,19C1300.26,766.17,1303.19,776.89,1298.84,786Z"/></g><g class="cls-63"><path class="cls-64" d="M1303,779.7a5.21,5.21,0,0,1-.24.47,78.33,78.33,0,0,1-9.75,15.42,5.67,5.67,0,0,0-.92,1.37,18.59,18.59,0,0,1-4.67,1.91c15.94,37.46-19.74,35.76-19.74,35.76,27.41,44.28-17.1,41.55-46,15.47-21.54-19.41-21.23-46.12-19.67-58.5l.15-.13c2.87,16.17,15,29.08,27.92,39.23,5.33,4.21,11.09,8.22,17.68,9.9s14.26.6,19-4.27c-15.21-8.71-32.28-14.46-45.76-25.68-7.37-6.12-13.36-13.64-18.63-21.68.43-2.65.84-4.19.84-4.19-12-19-14.07-48.26-8.51-62.77,5.45,21.65,14.76,42.63,29.72,59.17,15.55,17.18,37.72,29.13,60.9,29.2a4.39,4.39,0,0,0,2.8-.64c1.08-.88,1.11-2.51.77-3.88-1.4-5.81-7.06-9.41-12.19-12.49-13.55-8.1-27-17-36.76-29.42-10.45-13.24-16-29.5-20.78-45.76a33.79,33.79,0,0,1,4.67,5s-.95-18.78,5.94-29.27a58.13,58.13,0,0,0,3.48,20.73c8.82,25.24,30.9,46.51,57.38,50.24,4.11.58,9.06,1.4,11.87,4a6.59,6.59,0,0,1,2,3.56C1305.07,774.92,1304.1,777.43,1303,779.7Z"/></g><path d="M1260.69,874.91c-13.62-.76-30.66-9.13-43.08-20.32-27.24-24.54-22.78-59-20.83-68.76C1185.52,766.31,1183.39,739,1188,723c2.14-7.41,5.62-12.31,10.34-14.55,7.36-3.5,14.38-1.82,20,1.6,1.38-10.75,5.53-24.44,17.47-28.13h0c18-5.56,36.94,11.05,59.75,52.3,13.16,23.79,16.74,42.57,10.65,55.82a26.56,26.56,0,0,1-11.11,12.11c3.73,11.31,3.2,20.52-1.61,27.42-4.17,6-10.66,8.77-16.13,10,8.56,17.54,4.54,26.49-.85,31C1272.51,874,1267,875.25,1260.69,874.91Zm-53.63-156.23a7.24,7.24,0,0,0-3.53.69c-1,.49-2.65,2.61-3.92,7-3.95,13.68-1.75,38.66,8.7,55.19a6,6,0,0,1,.73,4.79c-.38,1.45-9.11,36,16.65,59.26,17.29,15.57,37.75,20.21,43.1,15.73,2.54-2.12,2.43-9.55-6.23-23.54a6,6,0,0,1,5.43-9.21c3.1.12,12-.7,15.64-5.94,3.76-5.46,1.12-14.66-1.76-21.42a6,6,0,0,1,4.33-8.29,14.5,14.5,0,0,0,9.15-8.14c2.93-6.59,3.5-19.7-10.34-44.72-13.08-23.66-31.6-50.94-45.6-46.61h0c-8.21,2.55-10,21-9.55,29.48a6,6,0,0,1-11,3.8C1218.84,726.67,1213.24,719,1207.06,718.68Zm30.56-31h0Z"/><path d="M1288.16,805.61a6.12,6.12,0,0,1-2-.47c-55-23.32-68.23-80.08-68.76-82.49a6,6,0,0,1,11.79-2.64c.14.63,12.59,53.18,61.69,74a6,6,0,0,1-2.7,11.6Z"/><path d="M1269.09,841.91a6.06,6.06,0,0,1-1.76-.36c-50-18.4-69-52.42-69.78-53.86a6,6,0,0,1,10.61-5.79c.26.46,17.94,31.6,63.35,48.31a6,6,0,0,1-2.42,11.7Z"/><path class="cls-82" d="M1809.4,322.28c-9.05,52.3-43.49,101.42-43.49,101.42a386.74,386.74,0,0,1-66.45-9.92h0c-70.56-17.25-97-48.83-97-48.83-1.68-24.78,6.15-53.9,13-74,5-14.68,9.56-24.6,9.56-24.6C1736.66,253.13,1809.4,322.28,1809.4,322.28Z"/><g class="cls-63"><path class="cls-64" d="M1809.4,322.28c-9.05,52.3-43.49,101.42-43.49,101.42a386.74,386.74,0,0,1-66.45-9.92A124.47,124.47,0,0,0,1745,401.7c7.16-3.48,14.21-7.87,18.72-14.44s5.93-15.79,1.67-22.53c-3.88-6.13-11.52-8.94-18.75-9.37s-14.47,1.11-21.7,1.63c-26.79,1.95-53.09-10.06-73.72-27.27-13.54-11.31-25-24.79-35.7-38.8,5-14.68,9.56-24.6,9.56-24.6C1736.66,253.13,1809.4,322.28,1809.4,322.28Z"/></g><path d="M1765.57,429.74h-.06c-122.17-8.09-165.9-58.76-167.7-60.91a6,6,0,0,1-1.39-3.47c-3-43.87,22.08-99.22,23.14-101.55a6,6,0,0,1,4.79-3.49c59.11-7,107.33,9,137.38,23.6,32.6,15.86,51.07,33.24,51.84,34a6.08,6.08,0,0,1,1.79,5.41c-9.18,53-43.07,101.83-44.5,103.88A6,6,0,0,1,1765.57,429.74Zm-157.21-67.31c7.78,7.89,51.59,47.39,154.48,55,7-10.74,31.8-50.73,40-92.9-13.13-11.16-79.12-62.36-173.64-52.6C1624.15,283.85,1606.8,327.58,1608.36,362.43Z"/><path class="cls-82" d="M1761.63,195.43c-18.94-6.38-187.37,8.26-192.83,28.24-4.23,15.47,98.49,108.3,131.59,116.9,23.63,6.13,183.28-16.4,187.09-28.46C1893.8,292.11,1787.08,204,1761.63,195.43Z"/><g class="cls-65"><path class="cls-66" d="M1883,317.05c-17.77-37.49-104.23-102.17-126.55-109.7-5.81-1.95-23.17-1.82-45.85-.14a2.94,2.94,0,0,1,.5,1.45c.23,4.19-9.06,8.12-20.75,8.78-11.35.62-20.82-2.08-21.54-6.08-35,4.25-73.23,10.7-100.41,18.15-2.1-3.62-1.06-2.37-.57-4.16,5.46-20,173.9-34.62,192.83-28.23,25.46,8.58,132.18,96.67,125.85,116.67C1886,315.34,1887.93,315.25,1883,317.05Z"/></g><path d="M1707,347.47a43.86,43.86,0,0,1-8.12-1.05c-30.69-8-115.62-81.91-132.79-111.57-3.06-5.28-4-9.34-3.11-12.77,1-3.67,4-6.81,9.3-9.61,32.16-17.13,171.58-29.4,191.29-22.76h0c15.06,5.07,50.09,31.63,76.9,55.24,58.34,51.38,54.16,64.63,52.78,69-1.26,4-4.65,8.09-31.9,14.46-15.3,3.58-36.28,7.4-59.1,10.75C1775.21,343.12,1728.84,348.68,1707,347.47ZM1574.8,225.19c1.43,5.82,18.34,27.14,52.23,57.15,31.47,27.87,61.56,48.92,74.88,52.38,9.44,2.45,49-.44,94.11-6.89,48.08-6.87,79.17-14.38,85.69-18.36-.73-5.68-14.31-24.84-50.32-56.4-28.85-25.29-60.34-48.09-71.69-51.91h0c-7.21-2.43-48.36-1.32-95.88,4.16C1605.06,212.1,1578.8,220.74,1574.8,225.19Zm-.09-.54"/><g class="cls-63"><path class="cls-64" d="M1887.48,312.11c-3.82,12.06-163.47,34.59-187.1,28.46-33.09-8.59-135.81-101.43-131.58-116.9.74-2.7,4.45-5.31,10.4-7.78,25.29,32,96.15,92.6,122.58,99.46,20.29,5.28,141-10.61,177-22.84C1885.32,301.05,1888.78,308,1887.48,312.11Z"/></g><path class="cls-62" d="M1836.83,485.46a86.93,86.93,0,0,1-9.81,2.83c9.13-1.52,24.46-3.33,31.6.07a6.16,6.16,0,0,1,3.7,4,6,6,0,0,1,.11,2c-1.13,13.94-38,57.59-132.91,39.56-3.83-.74-7.77-1.56-11.78-2.5l-2.54-3.13-8.26-10.2-65.75-81.37a280.85,280.85,0,0,0,32.21.68c17.83-.58,40.78-2.77,62.83-9.21,45.59-13.28,93.14-47,109.5-34.77l.19.14a8.45,8.45,0,0,1,2.47,3c4,8.38-8.45,22.47-19.39,32.65-6.5,6-12.47,10.7-14.11,12,.83-.55,2.73-1.79,5.39-3.44,14.42-9,51.44-30.11,65.15-20a11.3,11.3,0,0,1,3.27,3.78,2.39,2.39,0,0,1,.2.43c7.27,14.76-12.62,48.73-49.61,62.67C1838.48,484.89,1837.66,485.19,1836.83,485.46Z"/><g class="cls-65"><path class="cls-66" d="M1862.51,494c-7.46.63-15,.87-22.32-.33a88.08,88.08,0,0,1-12.83-3.28c-5.13-1.66-4.5-3.18.47-4,3-.47,6-.89,9.08-1.28a89.07,89.07,0,0,1-9.81,2.83c9.13-1.52,24.46-3.34,31.6.07a6.14,6.14,0,0,1,3.7,4A5.91,5.91,0,0,1,1862.51,494Z"/></g><g class="cls-65"><path class="cls-66" d="M1888.9,421.91c-11.41.9-22.66,4.07-33.71,7.23-11.81,3.37-23.7,7.6-35.7,10.13a4.29,4.29,0,0,1,.79-1.59c14.42-9,51.44-30.11,65.15-20a11.3,11.3,0,0,1,3.27,3.78A2.39,2.39,0,0,1,1888.9,421.91Z"/></g><g class="cls-65"><path class="cls-66" d="M1848.39,396.48c-18.22,6.9-35.33,17.21-53.29,25a215.89,215.89,0,0,1-58.34,16.12,218.94,218.94,0,0,1-54.68.34c-2-.25-5.6-.24-8.68-.63,17.83-.58,40.78-2.77,62.83-9.21,45.59-13.28,93.14-47,109.5-34.77l.19.14A8.45,8.45,0,0,1,1848.39,396.48Z"/></g><g class="cls-63"><path class="cls-64" d="M1829,429.13c-22.81,15-48.16,25.63-75.18,28a460.52,460.52,0,0,0,71.28-45.22,173.06,173.06,0,0,0,20.82-18.37C1855.68,401.13,1841.36,417.62,1829,429.13Z"/></g><g class="cls-63"><path class="cls-64" d="M1838.92,482.52c-3.39.62-6.79,1.15-10.19,1.65-24.08,3.51-48.79,4.94-72.64.08,24-4,47.8-9.54,70.13-19.09s43.18-23.27,58.94-41.75c1.08-1.28,2.15-2.6,3.17-4C1896.18,433.93,1876.27,468.44,1838.92,482.52Z"/></g><g class="cls-63"><path class="cls-64" d="M1729.15,531.8q-7.25-2.56-14.32-5.62-8.61-3.7-16.89-8c-4.42-2.31-6.85-3.8-10.17-7.54,5,4.38,12.14,5.07,18.81,5.36l.62,0c28.44,1.21,57.11.93,85.06-4.39,23.29-4.43,46.13-12.52,66-25.31a6.13,6.13,0,0,1,3.71,4C1864.73,501.33,1829.11,550.81,1729.15,531.8Z"/></g><path d="M1641.09,432.27c11.47-1.64,22.8-2.47,34.06-3.36s22.45-2,33.54-3.55a190.94,190.94,0,0,0,32.62-7.36c10.63-3.49,21.09-7.88,31.53-12.47s20.86-9.51,31.68-14a164.58,164.58,0,0,1,16.82-6.13,66.73,66.73,0,0,1,9.24-2.08,32.11,32.11,0,0,1,10.55,0c1,.2,1.94.48,2.91.74s2,.77,2.91,1.27a16.18,16.18,0,0,1,5.25,4.46,13,13,0,0,1,1,1.57c.29.58.56,1.18.81,1.77a9.41,9.41,0,0,1,.53,1.82,12.57,12.57,0,0,1,.32,1.83,16.71,16.71,0,0,1-.06,3.41c-.07.53-.13,1.07-.22,1.59l-.37,1.43a34.19,34.19,0,0,1-4.5,9.44,73.09,73.09,0,0,1-5.68,7.51,145.87,145.87,0,0,1-12.65,12.81c-4.42,4-8.86,7.72-13.69,11.4l-7-9.85c6.9-4.54,13.76-8.59,20.93-12.44A178.43,178.43,0,0,1,1854,411.8a85.81,85.81,0,0,1,12.26-3.58,39.51,39.51,0,0,1,14-.6c.64.11,1.31.3,2,.46a11,11,0,0,1,2,.62c.67.27,1.33.53,2,.83s1.29.77,1.93,1.17a17.34,17.34,0,0,1,5.87,6.74,20.87,20.87,0,0,1,2,8,28.34,28.34,0,0,1,0,3.8c-.12,1.21-.26,2.42-.46,3.59a49.23,49.23,0,0,1-4.45,12.79,69.92,69.92,0,0,1-6.87,11,92.5,92.5,0,0,1-18,17.86A101.15,101.15,0,0,1,1844.45,487a103.9,103.9,0,0,1-24.27,6.73h0a6,6,0,0,1-2.13-11.88c4.55-.95,8.88-1.67,13.38-2.26a118.2,118.2,0,0,1,13.72-1,58.52,58.52,0,0,1,7.27.35,27.59,27.59,0,0,1,8.11,2.05,13.91,13.91,0,0,1,4.61,3.28,10.8,10.8,0,0,1,2.86,6.27,14.85,14.85,0,0,1-.47,5.43,24.68,24.68,0,0,1-1.46,4,45.7,45.7,0,0,1-8.54,12.28,73,73,0,0,1-10.7,9.34,99.25,99.25,0,0,1-24.63,12.65,134.15,134.15,0,0,1-26.53,6.36,213.82,213.82,0,0,1-27,1.68c-2.24,0-4.49,0-6.73,0l-6.71-.33c-2.24-.18-4.45-.43-6.67-.73l-3.32-.44-3.29-.63c-2.19-.43-4.38-.85-6.54-1.41s-4.29-1.25-6.41-1.94c-1-.37-2.11-.71-3.15-1.14s-2.07-.89-3.1-1.34a56.77,56.77,0,0,1-6-3.12,2.12,2.12,0,0,1,.92-3.92c9.06-.84,17.54,0,26,.63s16.83,1.65,25.25,2a139.88,139.88,0,0,0,25.08-1.23,121.93,121.93,0,0,0,24.11-5.77,87.07,87.07,0,0,0,21.64-11.08,60.78,60.78,0,0,0,8.93-7.78,34.33,34.33,0,0,0,6.35-9,12.7,12.7,0,0,0,.77-2.09,6.24,6.24,0,0,0,.18-1,2.42,2.42,0,0,0,.21.47c.09,0-.26-.2-.7-.42a16.5,16.5,0,0,0-4.5-1.05,48.59,48.59,0,0,0-5.76-.27,136.85,136.85,0,0,0-24.61,3l-2.17-11.88a92,92,0,0,0,21.37-5.92,89,89,0,0,0,19.22-11,79.89,79.89,0,0,0,15.62-15.49,57.54,57.54,0,0,0,5.72-9.11,37.41,37.41,0,0,0,3.37-9.55c.6-3.12.37-6.06-.53-7.86s-2.3-2.74-5-3.27a27.66,27.66,0,0,0-9.55.54,72.5,72.5,0,0,0-10.51,3.08,167.7,167.7,0,0,0-20.79,9.54c-6.77,3.64-13.55,7.65-19.88,11.82a6,6,0,0,1-7-9.82l0,0a171.17,171.17,0,0,0,24.39-22.4,60.66,60.66,0,0,0,4.73-6.24,22.72,22.72,0,0,0,3-6l.18-.65.06-.55a4.16,4.16,0,0,0,0-.9c-.12-.43-.08-.66-.36-.92a4.45,4.45,0,0,0-1.29-1.05c-.33-.16-.7-.27-1-.45s-.83-.22-1.27-.32a20.31,20.31,0,0,0-6.62.1,55.78,55.78,0,0,0-7.58,1.72,154.47,154.47,0,0,0-15.57,5.69c-10.42,4.34-20.83,9.25-31.43,13.91s-21.39,9.17-32.6,12.92a229.87,229.87,0,0,1-34.42,8.63,209.39,209.39,0,0,1-35.12,2.85,143,143,0,0,1-17.55-1.06,94.74,94.74,0,0,1-17.34-3.64,2.06,2.06,0,0,1,.34-4Z"/><path d="M1790.76,481.81l-.41,0a6,6,0,0,1-5.26-6.73c.14-1.16,14.23-116.37,18-142.92,2.27-15.81-44.36-53.06-78.19-74.46a6,6,0,1,1,6.46-10.21A509,509,0,0,1,1773.87,278c29.68,24,43.16,42.26,41.22,55.82-3.79,26.42-17.87,141.51-18,142.67A6,6,0,0,1,1790.76,481.81Z"/><path class="cls-78" d="M1772.82,486.23c1.59-8.78,10.66-14.48,20.25-12.74s16.09,10.26,14.5,19-10.65,14.47-20.25,12.73S1771.23,495,1772.82,486.23Z"/><path d="M1789.4,511.11a25.11,25.11,0,0,1-3.08-.37,24,24,0,0,1-14.88-9A20.74,20.74,0,0,1,1777,471.2a24.43,24.43,0,0,1,32,5.79,20.9,20.9,0,0,1,4.11,16.53C1811.1,504.34,1800.82,511.74,1789.4,511.11Zm1-32.33a12.61,12.61,0,0,0-7.45,1.86,9.89,9.89,0,0,0-4.61,6.58h0a9.87,9.87,0,0,0,2,7.78,12.86,12.86,0,0,0,8,4.78c6.56,1.18,12.74-2.52,13.78-8.25a9.88,9.88,0,0,0-2-7.78,13.36,13.36,0,0,0-9.73-5Zm-17.54,7.45h0Z"/></g><path class="cls-83" d="M1404.27,71.87c-9.74,5.42-28.43,30.37-107.13,20.48S1167,98.28,1127.5,141.78s-112.21,130.92-96,219.62"/><path class="cls-83" d="M1293.52,864.48S1376.81,905.62,1418,907s104.26-.72,134.35-10.14"/></g></g></svg>