<svg id="Layer_1" data-name="Layer 1" xmlns="http://www.w3.org/2000/svg" viewBox="0 0 162 66"><defs><style>.cls-1{fill:#00b590;}</style></defs><g id="_6HlqUw" data-name="6HlqUw"><path class="cls-1" d="M51.57,33.06q0,4.08,0,8.15a.71.71,0,0,1-.41.72q-9.75,5.59-19.48,11.24a.72.72,0,0,1-.82,0L11.43,41.94a.76.76,0,0,1-.43-.75Q11,33,11,24.82a.74.74,0,0,1,.43-.75q9.75-5.61,19.48-11.24a.69.69,0,0,1,.78,0q9.7,5.63,19.44,11.21a.79.79,0,0,1,.45.79C51.57,27.59,51.57,30.32,51.57,33.06ZM47.5,39c-.07,0-.12-.11-.19-.15q-6-3.48-12.07-7c-.25-.14-.38-.08-.55.12Q33.1,34,31.48,35.88c-.21.25-.19.36.1.52.94.52,1.88,1.07,2.81,1.61l3.52,2c-1.34.86-2.61,1.68-3.87,2.52a.78.78,0,0,1-.95,0Q24.32,37.51,15.5,32.44c-.12-.07-.23-.2-.44-.13v.49c0,1.91,0,3.82,0,5.73a.8.8,0,0,0,.47.83q7.65,4.38,15.27,8.81a.87.87,0,0,0,1,0q7.62-4.43,15.26-8.82C47.21,39.26,47.4,39.22,47.5,39ZM15,26.82l.23.17L26.9,33.7c.26.15.4.09.58-.13,1-1.25,2.06-2.51,3.12-3.74.3-.34.25-.47-.12-.68-2.06-1.17-4.1-2.36-6.16-3.53-.37-.21-.34-.31,0-.51,1.14-.68,2.3-1.36,3.41-2.09A1,1,0,0,1,29,23q9,5.2,18.11,10.39c.47.27.47.27.47-.27,0-2,0-3.92,0-5.88a.7.7,0,0,0-.43-.71l-15.4-8.89a.71.71,0,0,0-.83,0L18.51,24.8Z"/></g><path class="cls-1" d="M61.25,42.1v-18h2.38v7.4H73v-7.4h2.39v18H73V33.61H63.63V42.1Z"/><path class="cls-1" d="M78.62,33.33a9.81,9.81,0,0,1,2.41-7,8.17,8.17,0,0,1,6.22-2.54A8.54,8.54,0,0,1,91.74,25a7.74,7.74,0,0,1,3.06,3.32,10.82,10.82,0,0,1,1,4.84A10.56,10.56,0,0,1,94.74,38a7.58,7.58,0,0,1-3.13,3.28,9,9,0,0,1-4.37,1.11,8.5,8.5,0,0,1-4.55-1.23,7.85,7.85,0,0,1-3-3.35A10.17,10.17,0,0,1,78.62,33.33Zm2.46,0a7.21,7.21,0,0,0,1.75,5.13,6.11,6.11,0,0,0,8.82,0,7.64,7.64,0,0,0,1.74-5.37,9.3,9.3,0,0,0-.74-3.84,5.74,5.74,0,0,0-2.18-2.55,5.89,5.89,0,0,0-3.21-.9,6.1,6.1,0,0,0-4.36,1.74Q81.08,29.3,81.08,33.37Z"/><path class="cls-1" d="M103.51,42.1V26.22H97.57V24.09h14.28v2.13h-6V42.1Z"/><path class="cls-1" d="M114.2,42.1v-18H121a8.27,8.27,0,0,1,3.31.55,4.21,4.21,0,0,1,2,1.68,4.46,4.46,0,0,1,.71,2.38,4.05,4.05,0,0,1-.63,2.17,4.53,4.53,0,0,1-1.89,1.65,4.68,4.68,0,0,1,2.51,1.64,4.36,4.36,0,0,1,.88,2.73,5.22,5.22,0,0,1-.53,2.35A4.66,4.66,0,0,1,126,40.92a5.57,5.57,0,0,1-2,.89,12,12,0,0,1-2.9.3H114.2Zm2.38-10.44h3.89a8.7,8.7,0,0,0,2.28-.21,2.55,2.55,0,0,0,1.37-.9,2.61,2.61,0,0,0,.46-1.57,3,3,0,0,0-.43-1.58,2.22,2.22,0,0,0-1.23-.93,10.25,10.25,0,0,0-2.74-.25h-3.6Zm0,8.32h4.48a11.72,11.72,0,0,0,1.63-.08,3.88,3.88,0,0,0,1.37-.5,2.61,2.61,0,0,0,.91-1,3.09,3.09,0,0,0,.36-1.51,2.92,2.92,0,0,0-.52-1.75,2.69,2.69,0,0,0-1.43-1,8.92,8.92,0,0,0-2.64-.3h-4.16Z"/><path class="cls-1" d="M131.48,42.1v-18h2.39v18Z"/><path class="cls-1" d="M142.66,42.1V26.22h-5.94V24.09H151v2.13h-6V42.1Z"/></svg>