<svg id="Layer_1" data-name="Layer 1" xmlns="http://www.w3.org/2000/svg" viewBox="0 0 311.24 311.33"><defs><style>.cls-1{fill:#fff;}.cls-2{fill:#0dc65c;}</style></defs><path class="cls-1" d="M110.22,200.38l-.45-74.91,37.3-20.18,43.34,19.06L186.83,200l-37.52,19.81Zm28.07-60.54,2.08,43.63,7.82,5.59,10.2-3.95.22-41.62L148.19,136Z"/><path class="cls-1" d="M234.26,105.29,197,125.47l.45,74.91,39.09,19.43L274,200l3.58-75.65Zm6.44,28.91a6.47,6.47,0,0,1,4.47-3c2.47-.3,4.23.93,5.56,2.87a14.54,14.54,0,0,1,2.35,7.62c.24,4.22-.48,8.23-3.08,11.7-1.39,1.86-3.2,3.07-5.67,2.72a6.3,6.3,0,0,1-4.49-3.38,18.62,18.62,0,0,1,.86-18.53Zm-18.61.86a9.33,9.33,0,0,1,2.09-2.66c2.33-2,5.45-1.74,7.68.62a13.41,13.41,0,0,1,3.36,7.13c.25,1.36.32,2.74.47,4.11a17.77,17.77,0,0,1-2,7.92,10.08,10.08,0,0,1-1.74,2.31,5.26,5.26,0,0,1-7.42.16,12.23,12.23,0,0,1-3.68-6.55A18.4,18.4,0,0,1,222.09,135.06ZM207.47,163a19.39,19.39,0,0,1-.81-13.09,10.82,10.82,0,0,1,1.46-2.9,5.1,5.1,0,0,1,7-1.52,4.21,4.21,0,0,1,.48.35A12.86,12.86,0,0,1,220,152.3a19.68,19.68,0,0,1,1.16,7,14,14,0,0,1-1.8,7.39c-2,3.24-5.41,3.81-8.37,1.39A12.23,12.23,0,0,1,207.47,163Zm50.9,27.26a9.31,9.31,0,0,1-6.91,2.57,25,25,0,0,1-9.76-2.4,12.59,12.59,0,0,0-10.57-.07,25.21,25.21,0,0,1-9.19,2.27c-3.19.08-6.09-.69-8.09-3.33-2.8-3.71-4.14-10.06.41-15.08a25.61,25.61,0,0,1,6.18-4.93,18.06,18.06,0,0,0,6-5.92,30,30,0,0,1,2.95-3.87c4.3-4.5,11-4.12,15.05.82,1.1,1.36,2,2.84,3,4.28a15.09,15.09,0,0,0,4.41,4.38,29.48,29.48,0,0,1,6.84,5.49,11.78,11.78,0,0,1-.32,15.77Zm5.63-24a9,9,0,0,1-3,2.8,5,5,0,0,1-6.31-.93,10.38,10.38,0,0,1-2.52-5.93c-.13-.91-.15-1.83-.19-2.4A19.59,19.59,0,0,1,255,149a12.61,12.61,0,0,1,2.83-3,5,5,0,0,1,7,.77l.28.39a11.61,11.61,0,0,1,2.14,6.46A19.55,19.55,0,0,1,264,166.3Z"/><path class="cls-2" d="M102.55,187.34l-31.87-.67,32.16-47.8L102.47,109l.12-1.13c0-.17-.15-3.15-.16-3.52s-.06-.72-.08-1.08h0c-.09-.55-.26-1.38-.8-3.59a28.44,28.44,0,0,0-1.83-5.38A4.17,4.17,0,0,0,99,92.7c-.45-.6-1-1-1.82-.57h0c-.74,1-.44,2.08-.48,3.12a39.74,39.74,0,0,1-2,11.89,9.84,9.84,0,0,1-.81,1.78H92.4l-.21-.39c-.44-.6-3.43-6-4.76-7.89C85.66,98.08,84,95.4,82,93a17.62,17.62,0,0,0-6.34-5.41h0l-.89-.37a4.84,4.84,0,0,0-.65-.19,1,1,0,0,0-1.29.58,1,1,0,0,0-.06.48,14.17,14.17,0,0,0,.52,3.77c.37,2,.89,6.86.94,7.21l.12,1a13.21,13.21,0,0,0,.07,1.4c.07,1.3.06,4.79,0,7.53H36.33l-.22,29.86h32L35.83,186l-.3,28.52,67.91,2.24Z"/><path class="cls-2" d="M155.57,311.33a154.71,154.71,0,0,1-110.09-45.6A2.5,2.5,0,0,1,49,262.2,150.69,150.69,0,1,0,262.11,49.1a2.5,2.5,0,1,1,3.54-3.54h0A155.69,155.69,0,0,1,155.57,311.33Z"/><path class="cls-1" d="M47.25,266.47a2.52,2.52,0,0,1-1.77-.74c-1.28-1.28-2.55-2.59-3.77-3.9a2.5,2.5,0,0,1,3.5-3.57l.15.16c1.19,1.26,2.42,2.54,3.66,3.78a2.51,2.51,0,0,1,0,3.55A2.47,2.47,0,0,1,47.25,266.47ZM31.46,248a2.52,2.52,0,0,1-2-1,151.7,151.7,0,0,1-8.33-12.76,2.5,2.5,0,0,1,4.32-2.53c2.47,4.23,5.18,8.38,8.06,12.35a2.49,2.49,0,0,1-.5,3.5,2.46,2.46,0,0,1-1.5.5ZM14.72,218.5a2.51,2.51,0,0,1-2.3-1.52c-2-4.65-3.77-9.46-5.3-14.29a2.5,2.5,0,0,1,4.77-1.5c1.48,4.67,3.2,9.32,5.13,13.82a2.5,2.5,0,0,1-1.32,3.28h0a2.35,2.35,0,0,1-1,.19ZM4.92,186a2.51,2.51,0,0,1-2.46-2c-.91-5-1.59-10.06-2-15.1a2.51,2.51,0,0,1,5-.43h0a140.72,140.72,0,0,0,2,14.62,2.49,2.49,0,0,1-2,2.91A2.44,2.44,0,0,1,4.92,186ZM2.5,152.15H2.4A2.49,2.49,0,0,1,0,149.57H0c.2-5.07.65-10.17,1.33-15.18a2.52,2.52,0,1,1,5,.68c-.67,4.85-1.1,9.79-1.29,14.69A2.49,2.49,0,0,1,2.5,152.15ZM7.55,118.6a2.8,2.8,0,0,1-.64-.08,2.51,2.51,0,0,1-1.78-3.06c1.31-4.9,2.87-9.78,4.64-14.52a2.5,2.5,0,0,1,4.68,1.76c-1.71,4.58-3.22,9.31-4.48,14A2.51,2.51,0,0,1,7.55,118.6ZM19.87,87a2.5,2.5,0,0,1-2.21-3.66h0c2.35-4.48,4.95-8.89,7.73-13.12a2.5,2.5,0,1,1,4.26,2.62l-.08.12c-2.69,4.1-5.21,8.37-7.49,12.71A2.5,2.5,0,0,1,19.87,87Zm19-28.11a2.43,2.43,0,0,1-1.62-.6A2.49,2.49,0,0,1,37,54.78v0c2.69-3.16,5.55-6.25,8.49-9.2.64-.64,1.29-1.27,1.94-1.9a2.5,2.5,0,0,1,3.47,3.59c-.63.61-1.25,1.23-1.87,1.85C46.17,52,43.4,55,40.79,58a2.48,2.48,0,0,1-1.9.88Zm225-9a2.51,2.51,0,0,1-1.77-.73c-3.47-3.48-7.15-6.81-10.92-9.92a2.5,2.5,0,1,1,3.18-3.86c3.9,3.21,7.69,6.66,11.28,10.24a2.5,2.5,0,0,1-1.77,4.27ZM63.59,35.63a2.5,2.5,0,0,1-1.51-4.5c4-3,8.29-5.92,12.61-8.55a2.5,2.5,0,1,1,2.67,4.23l-.07,0c-4.18,2.54-8.28,5.33-12.2,8.28A2.46,2.46,0,0,1,63.59,35.63Zm173.81-7a2.55,2.55,0,0,1-1.34-.39c-4.14-2.62-8.46-5.07-12.83-7.27a2.5,2.5,0,0,1,2.24-4.46c4.52,2.27,9,4.8,13.26,7.5a2.5,2.5,0,0,1-1.33,4.62ZM92.79,18.37a2.5,2.5,0,0,1-1-4.78C96.38,11.52,101.16,9.65,106,8a2.5,2.5,0,0,1,1.59,4.74c-4.65,1.56-9.27,3.37-13.74,5.37A2.44,2.44,0,0,1,92.79,18.37Zm114.09-4.59a2.39,2.39,0,0,1-.83-.15c-4.62-1.63-9.37-3.06-14.13-4.24a2.5,2.5,0,0,1,1.2-4.85C198,5.76,203,7.23,207.72,8.92a2.5,2.5,0,0,1-.84,4.86ZM125.09,8a2.5,2.5,0,0,1-.49-4.95c5-1,10-1.77,15.06-2.29a2.51,2.51,0,1,1,.51,5c-4.88.5-9.78,1.24-14.58,2.21A4.07,4.07,0,0,1,125.09,8Zm48.76-2h-.3a139,139,0,0,0-14.72-1,2.5,2.5,0,0,1,.11-5c5.06.11,10.18.47,15.2,1.07a2.5,2.5,0,1,1-.29,5Z"/></svg>