<svg id="Layer_1" data-name="Layer 1" xmlns="http://www.w3.org/2000/svg" viewBox="0 0 1920 690.89"><defs><style>.cls-1{fill:#0dc65c;}</style></defs><path class="cls-1" d="M553.81,80.19h-81.1a11.26,11.26,0,0,1,0-22.51H490a2,2,0,0,1,0,4H472.71a7.26,7.26,0,0,0,0,14.51h81.1a7.26,7.26,0,0,0,0-14.51H520.72a2,2,0,0,1,0-4h33.09a11.26,11.26,0,0,1,0,22.51Z"/><path class="cls-1" d="M535.68,44.18h-14.6a2,2,0,0,1,0-4h14.6a7.26,7.26,0,1,0,0-14.51H365.61a7.26,7.26,0,0,0,0,14.51h125a2,2,0,0,1,0,4h-125a11.26,11.26,0,0,1,0-22.51H535.68a11.26,11.26,0,1,1,0,22.51Z"/><path class="cls-1" d="M442.32,80.19a11.26,11.26,0,1,1,11.26-11.26A11.27,11.27,0,0,1,442.32,80.19Zm0-18.51a7.26,7.26,0,1,0,7.26,7.25A7.26,7.26,0,0,0,442.32,61.68Z"/><path class="cls-1" d="M490.59,61.68a2,2,0,0,1,0-4,6.77,6.77,0,0,0,0-13.54,2,2,0,0,1,0-4,10.77,10.77,0,0,1,0,21.54Z"/><path class="cls-1" d="M520.16,61.68a10.77,10.77,0,1,1,0-21.54,2,2,0,0,1,0,4,6.77,6.77,0,1,0,0,13.54,2,2,0,0,1,0,4Z"/><path class="cls-1" d="M1324,642.41a2,2,0,0,1-2-1.85c-.65-8.84,1.41-15.66,6.11-20.29,5.57-5.49,13.21-6.23,16.61-6.26,2.37-8.38,9.1-12.16,15.09-13.55a20.3,20.3,0,0,1-5.07-10.59c-1.31-7.68,1.49-17.36,13.27-21.48,21.89-7.66,29.62,10.63,29.7,10.81a2,2,0,0,1-3.71,1.51c-.26-.64-6.46-14.92-24.67-8.54-11.54,4-11.29,13.26-10.65,17,.93,5.46,4.42,10.26,7.61,10.6l.46,0a2,2,0,0,1-.12,4h-.46c-2.36,0-15.44.26-17.92,12.65a2,2,0,0,1-2.14,1.6c-.09,0-9.34-.72-15.22,5.09-3.81,3.77-5.46,9.53-4.9,17.12a2,2,0,0,1-1.85,2.14Z"/><path class="cls-1" d="M1512,642.41h0a2,2,0,0,1-2-2c0-1-.31-25.33-24.34-25.33s-25.67,24.39-25.73,25.43a2,2,0,1,1-4-.2c0-.29,1.75-29.23,29.72-29.23,8.17,0,14.8,2.49,19.69,7.4,8.57,8.58,8.65,21.39,8.65,21.93A2,2,0,0,1,1512,642.41Z"/><path class="cls-1" d="M1696,642.41h0a2,2,0,0,1-2-2,46.24,46.24,0,0,0-4.32-17.86c-5.59-11.52-15.54-17.36-29.56-17.36s-24.33,5.87-30.53,17.43a47.87,47.87,0,0,0-5.23,17.89,2,2,0,1,1-4-.2c0-.39,2.34-39.12,39.75-39.12,10.93,0,19.79,3.32,26.32,9.86,11.46,11.48,11.56,28.64,11.56,29.36A2,2,0,0,1,1696,642.41Z"/><path class="cls-1" d="M312.84,642.41h0a2,2,0,0,1-2-2c0-1.22-.4-29.73-32-29.73s-33.71,28.62-33.78,29.84a2,2,0,0,1-4-.22c.63-11.63,9.34-33.62,37.77-33.62,11,0,19.78,3.19,26.07,9.49,9.84,9.86,9.93,23.66,9.93,24.24A2,2,0,0,1,312.84,642.41Z"/><path class="cls-1" d="M404.84,642.41h-.09a2,2,0,0,1-1.91-2.09c0-.37,2-37.38,33.83-37.38,12,0,21.28,5.46,26.81,15.8a2,2,0,1,1-3.53,1.88c-4.86-9.08-12.69-13.68-23.28-13.68-11.69,0-20.24,5.54-25.42,16.48a50.42,50.42,0,0,0-4.42,17.08A2,2,0,0,1,404.84,642.41Z"/><path class="cls-1" d="M490.63,642.41h0a2,2,0,0,1-2-2h0c0-.83-.24-20.31-18.42-20.31a20,20,0,0,0-7.73,1.43,2,2,0,1,1-1.53-3.7,24.21,24.21,0,0,1,9.26-1.73c6.28,0,11.42,2,15.27,5.82,7.09,7.1,7.15,18,7.15,18.49A2,2,0,0,1,490.63,642.41Z"/><path d="M1784,293a2,2,0,0,1-1.13-.35,2,2,0,0,1-.52-2.78c.67-1,16.1-24.2-3.37-53.23-9.72-14.5-28.29-22.84-47.32-21.27-16.63,1.38-30.08,9.74-37.41,23.11-.92,2-1.54,3.11-1.64,3.28a2,2,0,0,1-3.57-1.79c.46-1,1-2,1.49-3a110.46,110.46,0,0,0,9.57-35.11c2.64-28.5-7.6-52-30.44-69.77-21.26-16.57-47-19.2-70.7-7.23-22.6,11.43-37.39,33.42-36.8,54.73a2,2,0,0,1-1.94,2.05h-.06a2,2,0,0,1-2-1.94c-.64-22.82,15-46.29,39-58.41,25.11-12.7,52.43-9.91,75,7.64,29.93,23.32,33.89,52.81,31.95,73.44a110.09,110.09,0,0,1-4.75,23,52,52,0,0,1,32-14c20.43-1.7,40.45,7.34,51,23,11,16.35,11.32,31.14,9.69,40.66a45.89,45.89,0,0,1-6.34,17.07A2,2,0,0,1,1784,293Z"/><path d="M1840.13,642.41H79.87a2,2,0,0,1,0-4H1840.13a2,2,0,0,1,0,4Z"/><path d="M64.26,658a17.62,17.62,0,1,1,17.61-17.61A17.63,17.63,0,0,1,64.26,658Zm0-31.23a13.62,13.62,0,1,0,13.61,13.62A13.64,13.64,0,0,0,64.26,626.79Z"/><path d="M1855.74,658a17.62,17.62,0,1,1,17.62-17.61A17.63,17.63,0,0,1,1855.74,658Zm0-31.23a13.62,13.62,0,1,0,13.62,13.62A13.63,13.63,0,0,0,1855.74,626.79Z"/><path d="M521.91,519.86a16.45,16.45,0,1,1,16.45-16.45A16.46,16.46,0,0,1,521.91,519.86Zm0-28.89a12.45,12.45,0,1,0,12.45,12.44A12.45,12.45,0,0,0,521.91,491Z"/><path class="cls-1" d="M1791.11,669.22H126.42a2,2,0,1,1,0-4H1791.11a2,2,0,0,1,0,4Z"/><path d="M240.49,642.41a2,2,0,0,1-2-2V360.33a2,2,0,1,1,4,0V640.41A2,2,0,0,1,240.49,642.41Z"/><path class="cls-1" d="M223.43,529.37a96.89,96.89,0,0,1-40-9.74c-18.75-9.21-41.86-29.17-46-72a99.52,99.52,0,0,1-26.06-22.73C99.84,410.58,87.6,386.6,94.83,353.5s28.27-47.67,44.63-54a89.33,89.33,0,0,1,30.46-5.8,83.35,83.35,0,0,1-8.38-27.68c-1.83-16.21,1.27-39.47,26.48-58.25,25-18.64,46.31-19.84,59.78-17.56a57.41,57.41,0,0,1,22,8.44,76,76,0,0,1,19.68-17.75c12.06-7.33,31-13,52.71,1.72,12.23,8.29,19.53,18.59,21.68,30.62,3,16.92-5,32.19-8.34,37.71,5.36,2.11,18.66,7.82,28.42,15.9a2,2,0,1,1-2.55,3.08c-11.68-9.68-29.39-16-29.57-16.11a2,2,0,0,1-.95-3c.12-.17,12.48-17.75,9-36.86-2-10.91-8.68-20.33-20-28-16-10.83-32.23-11.4-48.28-1.68a72.1,72.1,0,0,0-19.79,18.3A2,2,0,0,1,269,203c-.07-.06-8.32-6.6-22-8.86-18.14-3-37.68,2.83-56.51,16.86s-27.36,32.45-24.91,54.45A78.89,78.89,0,0,0,175,294.75a2,2,0,0,1-1.85,3.05,84,84,0,0,0-32.43,5.52c-22.38,8.67-36.52,25.84-42,51s-.25,48.11,15.66,67.88a95.15,95.15,0,0,0,25.88,22.36,2,2,0,0,1,1.06,1.59c3,33.5,17.72,57,43.87,69.85a93,93,0,0,0,38.59,9.32h0a2,2,0,0,1,0,4Z"/><path d="M197.07,283.61a2,2,0,0,1-1.71-.95c-.17-.28-16.88-28.19,7.74-49.49,12.8-11.07,24.76-11.73,32.54-10.35a34.21,34.21,0,0,1,14.05,5.82,2,2,0,1,1-2.46,3.15c-.78-.6-19.48-14.65-41.51,4.41s-7.58,43.34-6.95,44.36a2,2,0,0,1-1.7,3.05Z"/><path d="M521.91,642.41a2,2,0,0,1-2-2V519.69a2,2,0,0,1,4,0V640.41A2,2,0,0,1,521.91,642.41Z"/><path d="M389.87,486.07a16.45,16.45,0,1,1,16.44-16.44A16.46,16.46,0,0,1,389.87,486.07Zm0-28.89a12.45,12.45,0,1,0,12.44,12.45A12.46,12.46,0,0,0,389.87,457.18Z"/><path d="M240.49,360.66a16.45,16.45,0,1,1,16.44-16.44A16.47,16.47,0,0,1,240.49,360.66Zm0-28.89a12.45,12.45,0,1,0,12.44,12.45A12.46,12.46,0,0,0,240.49,331.77Z"/><path class="cls-1" d="M310.4,503.91a16.45,16.45,0,1,1,16.45-16.45A16.46,16.46,0,0,1,310.4,503.91Zm0-28.9a12.45,12.45,0,1,0,12.45,12.45A12.46,12.46,0,0,0,310.4,475Z"/><path class="cls-1" d="M392.29,297.9a16.45,16.45,0,1,1,16.44-16.44A16.47,16.47,0,0,1,392.29,297.9Zm0-28.89a12.45,12.45,0,1,0,12.44,12.45A12.46,12.46,0,0,0,392.29,269Z"/><path d="M389.87,642.41a2,2,0,0,1-2-2V484.07a2,2,0,0,1,4,0V640.41A2,2,0,0,1,389.87,642.41Z"/><path class="cls-1" d="M255.55,527.94a2,2,0,0,1-.42-4c.26-.06,26.39-5.92,43.46-27.58a2,2,0,1,1,3.14,2.47c-18,22.83-44.63,28.77-45.76,29A2,2,0,0,1,255.55,527.94Z"/><path class="cls-1" d="M371.71,538.28a1.77,1.77,0,0,1-.56-.08,117.84,117.84,0,0,1-21.79-9.35c-15.3-8.44-25.86-19-30.57-30.45a2,2,0,1,1,3.71-1.51c10.56,25.8,49.37,37.36,49.76,37.47a2,2,0,0,1-.55,3.92Z"/><path class="cls-1" d="M308.06,475.22a2,2,0,0,1-1.9-1.37,102.72,102.72,0,0,1-3.28-40.48c2.36-20.39,12.3-48.75,46.08-69-3.54-6.65-14.86-30.66-7-53.06,5-14.25,16.84-24.93,35.14-31.74a2,2,0,0,1,1.4,3.75c-17.13,6.37-28.15,16.23-32.77,29.3-8.46,24,7.45,51.19,7.61,51.46a2,2,0,0,1-.72,2.76c-27.06,15.62-42.47,38.16-45.81,67A100.08,100.08,0,0,0,310,472.59a2,2,0,0,1-1.27,2.53A2,2,0,0,1,308.06,475.22Z"/><path class="cls-1" d="M437,303.29a2,2,0,0,1-1.71-1c-9.45-15.72-28.66-18.86-28.86-18.89a2,2,0,1,1,.62-3.95c.86.13,21.26,3.47,31.66,20.78A2,2,0,0,1,438,303,2,2,0,0,1,437,303.29Z"/><path class="cls-1" d="M404.31,540.25a2,2,0,0,1-.13-4c.46,0,33.49-2.65,62.68-36.43a2,2,0,1,1,3,2.62c-30.4,35.18-64,37.71-65.44,37.81Z"/><path d="M476.15,505.41A16.45,16.45,0,1,1,492.6,489,16.45,16.45,0,0,1,476.15,505.41Zm0-28.89A12.45,12.45,0,1,0,488.6,489,12.46,12.46,0,0,0,476.15,476.52Z"/><path d="M451.44,317.73a16.45,16.45,0,1,1,16.44-16.44A16.47,16.47,0,0,1,451.44,317.73Zm0-28.89a12.45,12.45,0,1,0,12.44,12.45A12.46,12.46,0,0,0,451.44,288.84Z"/><path d="M528.82,540.26a29,29,0,0,1-7.42-.9,2,2,0,1,1,1-3.86c8.16,2.18,28.23.61,45.72-20.89,16.47-20.26,1.37-49.53,1.22-49.83a2,2,0,0,1,.37-2.36l18.62-18.25c28.85-42.44,35.92-88.2,36.77-119.12.92-33.57-5.07-57.31-5.13-57.54-3.32-15.63-10.45-26.43-21.22-32.17-10.55-5.63-22.83-5.39-31.27-4.2a77,77,0,0,0-16.18,4,2,2,0,0,1-2.57-1c-6.43-14.22-19.68-23.17-36.37-24.56-19.87-1.66-40.26,7.73-50.74,23.36-19.64,29.3-4.07,52.74-3.4,53.73a2,2,0,1,1-3.29,2.26c-.18-.26-17.83-26.59,3.37-58.22,11.26-16.79,33.12-26.87,54.39-25.12,17.51,1.46,31.58,10.62,38.89,25.22,6.59-2.3,30-9.18,49,1,11.87,6.32,19.69,18,23.24,34.8.05.15,6.17,24.44,5.24,58.56-.87,31.5-8.09,78.14-37.57,121.42a3.76,3.76,0,0,1-.25.31l-17.74,17.38A71.5,71.5,0,0,1,579,481.43c2.5,14.08-.16,26.43-7.71,35.71-8,9.78-17.55,16.86-27.72,20.45A44.73,44.73,0,0,1,528.82,540.26Z"/><path d="M463.82,483.48a2,2,0,0,1-.82-.18c-32.34-14.46-54.12-48.81-58.26-91.88-4.3-44.76,34.47-79.11,36.12-80.55a2,2,0,0,1,2.63,3c-.39.34-38.87,34.47-34.77,77.16,4,41.62,24.9,74.74,55.91,88.61a2,2,0,0,1-.81,3.83Z"/><path d="M461.7,447.46a2,2,0,0,1-1.12-.35c-.35-.23-35.17-24.31-31-65.43,4.21-41.31,40.7-51.11,41.07-51.2a2,2,0,1,1,1,3.87c-1.39.36-34.16,9.26-38.09,47.74-3.94,38.69,28.92,61.49,29.25,61.71a2,2,0,0,1-1.13,3.66Z"/><circle cx="264" cy="235.18" r="4.63"/><circle cx="481.3" cy="447.86" r="5.15"/><path d="M1719.32,437.85a16.32,16.32,0,1,1,16.31-16.31A16.33,16.33,0,0,1,1719.32,437.85Zm0-28.63a12.32,12.32,0,1,0,12.31,12.32A12.34,12.34,0,0,0,1719.32,409.22Z"/><path d="M1543.91,642.41a2,2,0,0,1-2-2V386.68a2,2,0,0,1,4,0V640.41A2,2,0,0,1,1543.91,642.41Z"/><path class="cls-1" d="M1403,273.75a2,2,0,0,1-1.28-3.54c9.67-8,22.82-13.66,28.15-15.76-3.35-5.48-11.25-20.61-8.25-37.36,2.13-11.93,9.36-22.15,21.49-30.36,21.53-14.58,40.3-9,52.26-1.7a75.33,75.33,0,0,1,19.55,17.64,65.1,65.1,0,0,1,32.12-9.27,2,2,0,0,1,2,2,2,2,0,0,1-2,2,60.55,60.55,0,0,0-31.51,9.6,2,2,0,0,1-2.82-.48,71.51,71.51,0,0,0-19.61-18.14c-15.9-9.62-32-9.06-47.83,1.66-11.19,7.58-17.84,16.9-19.79,27.72-3.4,18.93,8.84,36.34,9,36.52a2,2,0,0,1-1,3c-.17.07-17.72,6.38-29.3,16A2,2,0,0,1,1403,273.75Z"/><path class="cls-1" d="M1663.36,435.25a2,2,0,0,1-1.41-3.42c14.53-14.45,30.22-39.19,22.42-74.91-5.45-25-19.46-42-41.64-50.57a83.67,83.67,0,0,0-32.13-5.47,2,2,0,0,1-1.85-1,2,2,0,0,1,0-2.08,78.38,78.38,0,0,0,9.46-29c2.42-21.79-5.89-39.94-24.69-53.95a105.51,105.51,0,0,0-13.78-8.76,2,2,0,0,1-.84-2.7,2,2,0,0,1,2.71-.84,109.63,109.63,0,0,1,14.3,9.09c25,18.62,28.07,41.68,26.26,57.75a82.72,82.72,0,0,1-8.3,27.41,88.76,88.76,0,0,1,30.17,5.75c16.22,6.25,37.06,20.6,44.24,53.5,8.19,37.5-8.27,63.45-23.51,78.61A2,2,0,0,1,1663.36,435.25Z"/><path class="cls-1" d="M1560.8,530.38h-.44a2,2,0,0,1,.09-4,92.48,92.48,0,0,0,35-7.73c24.14-10.61,39.22-30,44.83-57.61a2,2,0,1,1,3.92.8c-7.35,36.14-29.76,52.87-47.28,60.53A96,96,0,0,1,1560.8,530.38Z"/><path d="M1582.43,294.27a1.94,1.94,0,0,1-1.16-.38,2,2,0,0,1-.46-2.79c.7-1,16.74-23.91-3.62-44.33s-40.49-7.52-40.68-7.39a2,2,0,1,1-2.23-3.32c.23-.15,23-14.94,45.74,7.88s4.23,49.24,4,49.5A2,2,0,0,1,1582.43,294.27Z"/><path d="M1719.32,642.41a2,2,0,0,1-2-2V435.85a2,2,0,0,1,4,0V640.41A2,2,0,0,1,1719.32,642.41Z"/><path d="M1395.86,487.47a16.32,16.32,0,1,1,16.32-16.32A16.33,16.33,0,0,1,1395.86,487.47Zm0-28.63a12.32,12.32,0,1,0,12.32,12.31A12.32,12.32,0,0,0,1395.86,458.84Z"/><path class="cls-1" d="M1474.62,505.14a16.32,16.32,0,1,1,16.31-16.31A16.33,16.33,0,0,1,1474.62,505.14Zm0-28.63a12.32,12.32,0,1,0,12.31,12.32A12.33,12.33,0,0,0,1474.62,476.51Z"/><path class="cls-1" d="M1393.47,301a16.32,16.32,0,1,1,16.31-16.32A16.34,16.34,0,0,1,1393.47,301Zm0-28.63a12.32,12.32,0,1,0,12.31,12.31A12.32,12.32,0,0,0,1393.47,272.35Z"/><path class="cls-1" d="M1564.78,212.36A16.32,16.32,0,1,1,1581.09,196,16.34,16.34,0,0,1,1564.78,212.36Zm0-28.63A12.32,12.32,0,1,0,1577.09,196,12.32,12.32,0,0,0,1564.78,183.73Z"/><path d="M1395.86,642.41a2,2,0,0,1-2-2V485.47a2,2,0,0,1,4,0V640.41A2,2,0,0,1,1395.86,642.41Z"/><path d="M1712.47,541.17a44.51,44.51,0,0,1-14.59-2.64c-10.08-3.57-19.58-10.58-27.47-20.28-7.49-9.2-10.13-21.44-7.65-35.4a71.06,71.06,0,0,1,5.34-17l-8.73-8.56a2,2,0,1,1,2.8-2.86l9.76,9.57a2,2,0,0,1,.37,2.36c-.15.29-15.11,29.3,1.21,49.36,17.33,21.31,37.21,22.86,45.29,20.7a2,2,0,1,1,1,3.86A28.55,28.55,0,0,1,1712.47,541.17Z"/><path class="cls-1" d="M1529,529a2.15,2.15,0,0,1-.43,0c-1.11-.24-27.52-6.13-45.35-28.76a2,2,0,1,1,3.14-2.48c16.91,21.46,42.8,27.27,43.06,27.33a2,2,0,0,1-.42,4Z"/><path class="cls-1" d="M1413.86,539.22a2,2,0,0,1-.56-3.93c.39-.11,38.84-11.57,49.31-37.13a2,2,0,1,1,3.7,1.52c-4.65,11.38-15.13,21.81-30.29,30.18a118.37,118.37,0,0,1-21.6,9.28A2.23,2.23,0,0,1,1413.86,539.22Z"/><path class="cls-1" d="M1476.94,476.72a2.3,2.3,0,0,1-.63-.1,2,2,0,0,1-1.27-2.53,99.72,99.72,0,0,0,3.06-38.57c-3.34-28.48-18.61-50.76-45.37-66.21a2,2,0,0,1-.94-1.23,2,2,0,0,1,.22-1.53c.16-.27,15.92-27.23,7.53-51-4.57-12.94-15.49-22.71-32.46-29a2,2,0,0,1,1.4-3.75c18.14,6.75,29.86,17.33,34.84,31.46,7.82,22.2-3.37,46-6.9,52.59,33.48,20.06,43.33,48.17,45.67,68.38a101.79,101.79,0,0,1-3.25,40.13A2,2,0,0,1,1476.94,476.72Z"/><path class="cls-1" d="M1381.55,541.16h-.13c-1-.06-24.49-1.84-45.68-26.36-.56-.69-12.65-15.94-18.45-41-10.53-45.55,5.38-86.84,9.25-95.89-23.56-12.2-17.06-44-17-44.3,2.15-9.59,9.19-18,20.38-24.42a73.2,73.2,0,0,1,15.41-6.56c10.51-16.58,32.59-19.79,33.54-19.92a2,2,0,0,1,.54,4c-.21,0-21.75,3.19-31.07,18.7a2,2,0,0,1-1.23.91c-.29.07-29.06,7.61-33.66,28.18a53.31,53.31,0,0,0-.32,16.74c1.71,11.64,7.37,19.69,16.83,23.92a2,2,0,0,1,1.07,1.14,2,2,0,0,1-.08,1.55c-.21.45-21.32,45.16-9.77,95.08,5.58,24.15,17.5,39.22,17.62,39.37,20,23.13,42.64,24.91,42.87,24.93a2,2,0,0,1-.13,4Z"/><path d="M1764.67,506.64A16.32,16.32,0,1,1,1781,490.32,16.34,16.34,0,0,1,1764.67,506.64Zm0-28.63A12.32,12.32,0,1,0,1777,490.32,12.33,12.33,0,0,0,1764.67,478Z"/><path d="M1789.17,320.63a16.32,16.32,0,1,1,16.31-16.31A16.33,16.33,0,0,1,1789.17,320.63Zm0-28.63a12.32,12.32,0,1,0,12.31,12.32A12.33,12.33,0,0,0,1789.17,292Z"/><path d="M1776.89,484.9a2,2,0,0,1-.81-3.83c47.07-21.05,63.92-60,64-87,.26-54.86-42.24-76.75-42.67-77a2,2,0,0,1-.9-2.69,2,2,0,0,1,2.68-.89c.47.23,11.5,5.83,22.61,18.58,10.24,11.75,22.42,32,22.28,62-.09,20.31-7.71,40.1-22,57.24a125.85,125.85,0,0,1-44.37,33.4A2,2,0,0,1,1776.89,484.9Z"/><path d="M1779,449.2a2,2,0,0,1-1.13-3.65c.33-.23,32.89-22.81,29-61.15-3.89-38.12-36.35-46.94-37.73-47.3a2,2,0,1,1,1-3.87c.36.09,36.54,9.81,40.72,50.76,4.16,40.76-30.36,64.63-30.71,64.87A2,2,0,0,1,1779,449.2Z"/><circle cx="1519.67" cy="241.49" r="4.59"/><circle cx="681.43" cy="618.11" r="4.63"/><circle cx="555.41" cy="590.22" r="4.63"/><circle cx="1759.56" cy="449.58" r="5.11"/><path d="M1649,460.79a16.32,16.32,0,1,1,16.32-16.32A16.33,16.33,0,0,1,1649,460.79Zm0-28.63a12.32,12.32,0,1,0,12.32,12.31A12.32,12.32,0,0,0,1649,432.16Z"/><path d="M655.91,620.11H554.13a2,2,0,0,1,0-4H655.91a2,2,0,0,1,0,4Z"/><path d="M629.31,592.22h-53.5a2,2,0,0,1,0-4h53.5a2,2,0,0,1,0,4Z"/></svg>