<svg id="Layer_1" data-name="Layer 1" xmlns="http://www.w3.org/2000/svg" viewBox="0 0 600 600"><defs><style>.cls-1{fill:#0dc65c;}.cls-2{fill:none;stroke:#000;stroke-linecap:round;stroke-linejoin:round;stroke-width:4px;stroke-dasharray:15 19;}</style></defs><path class="cls-1" d="M85.16,454.21c.35,1.15,2.46,1.36,5.83,4s6.18,3.05,9.77,2,9.74-1.14,10.16.27-14,8.23-16,8.85-5.55-.3-9.46-2.3-8.23-2.44-10-1.91-4.82,3.82-6,5.14-3.88,6.2-3.58,7.18,2.39,4.52,10.93,2,9.49-6.53,11.22-7a11.34,11.34,0,0,1,5-.73c2.49.13-.6,2-.6,2-4.62,3.26-2,2.66-5.66,5.55a45.47,45.47,0,0,0-7.42,7.42c-.71,1.05-4.1,2.27-4.1,2.27s-2.8-1.51-7.71,0-10,4.91-12.05,21.42c0,0-1.85,5.89,8.12-3.13,2.93-2.65,7-3,9.35-8.64s4-7.26,4-7.26c1.67-.82,7.53-5.93,9.09-8.29s6-6.83,6.32-5.84-2.14,7.52-2.14,7.52c-13.79,10-8.12,20.75-8.12,20.75s7.68-1.28,11.82-8.13-1-13.19-1-13.19c1.1-5.41,2.48-8.77,5.87-12.73s19.32-10.53,19.74-9.91-3,5.43-8,6.93-7.16,6.48-8.7,13.65,1.28,4.28,8,2.27,9.13-10.19,8.51-12.57-.79-4.33,1-8.1,9.29-5.11,12.67-6.12,2.73-1.61,1.88-2-13,2.31-17.17,3.55-7.06-2.41-12.36-6.89-8-4.65-11.65-3.55S84.82,453.05,85.16,454.21Z"/><path class="cls-1" d="M346,564.86s2.56-2.56,5.08-3.13,8.08-4.16,8.93-8.8,1.4-9.27,2.06-11.51.12-3.12.12-3.12a10.62,10.62,0,0,0-1.52,3.08c-.75,2.14-1.76,3.08-4.79,3.3s-9.51,1.26-10.81,8.45S344.67,563.54,346,564.86Z"/><path class="cls-1" d="M363.25,562.44c.66,2.42,3.11,4.1,4.62,9.62s-1.36,11.92-4.45,14.76-2.8,7.86-3.89,7.21-4.85-7.37-6.14-12.1.51-10.78,4.48-15.06,5.21-6.81,5.29-7.19A27.14,27.14,0,0,1,363.25,562.44Z"/><path class="cls-1" d="M381.2,566.69c-1.78-.9-8.25-3.07-9.66-8.25s-1.19-10.56-1.63-11.41-.33-1.79,1.44-.16,2.47,1.39,4.45,1.72,4.92,1.36,5.95,3.23a12.08,12.08,0,0,1,1.55,8.32c-.71,3.56.76,6.54.64,7.23S381.2,566.69,381.2,566.69Z"/><path class="cls-1" d="M381.56,542.8s-7.33,0-16.65-11.45a32.41,32.41,0,0,0,5.45-.12c3-.32,6.77,2.62,8.37,6.66S382.25,542.15,381.56,542.8Z"/><path class="cls-1" d="M361.33,564.34l.49.28a46.09,46.09,0,0,0,3.09-7.43c1.29-4,2.56-9.87,1.36-15.28-.4-1.82-.64-3.27-.84-4.56-1-6.06-1.28-7.89-15-23.6l-.42.37c13.58,15.59,13.87,17.38,14.83,23.32.21,1.29.45,2.75.85,4.59C368,552.16,361.4,564.22,361.33,564.34Z"/><path class="cls-1" d="M365.41,540.4c1,3.66,4.8,6.77,5,6.9l.36-.43c-.05,0-4.3-3.51-4.93-7.25l-.55.09A4.26,4.26,0,0,0,365.41,540.4Z"/><path class="cls-1" d="M362.09,529.24c1.08,2.22,4.61,3,4.76,3.06l.12-.55s-3.41-.78-4.38-2.76Z"/><path class="cls-1" d="M361.55,539.69l.55.12c.08-.35,1.84-8.46-.43-12.24l-.48.29C363.34,531.44,361.57,539.6,361.55,539.69Z"/><path class="cls-1" d="M437.36,581.3c2.23,4.08,8.48,6.84,14.3,8.41s4.11-12.29,1.52-17.05-9.22-5.35-11.09-4.32S434.39,575.85,437.36,581.3Z"/><path class="cls-1" d="M432,578s2.19-5.48,2.76-6.62c.72-1.47,1.65-4.36-1.13-9.45s-9.2-4.49-10.57-3.73-8.38,5.46-4.67,12.25S429.8,576.69,432,578Z"/><path class="cls-1" d="M453.44,562.52s-7.78,6.27-13.31,2.46-7.41-11-7.41-11a8,8,0,0,1,9.66-3.61C449,552.51,452,558.58,453.44,562.52Z"/><path class="cls-1" d="M397.76,554.47s-2.1-.85-3.33-.26-7.62.6-10.39-4.49,1.3-9.16,3.24-10.22,9.06-3.39,11.9,1.81S400.49,552.68,397.76,554.47Z"/><path class="cls-1" d="M422.21,529.85s-2.13,5.46-6.53,7.87-8.82,1.92-13.57-3.94a9.39,9.39,0,0,1,4.93-9.59C413.09,520.88,422.21,529.85,422.21,529.85Z"/><path class="cls-1" d="M439.22,543.34s-2.26,4.56-5.57,6.37a9,9,0,0,1-11.35-2c-3-3.76-6.43-3.09-6.43-3.09a6.11,6.11,0,0,0,2.63-2.92,11.14,11.14,0,0,1,4.94-5.21C425.73,535.2,434.41,534.46,439.22,543.34Z"/><path class="cls-1" d="M418.3,546.38s2.57.15,2.09,3.82-1.84,5.35-1.19,7.09-.66,2.25-1.74,1.85-2.73,1.75-6.81,0-6.65-2.06-6.33-7.76,5.67-7,4.31-9C408.63,542.34,415.6,540.64,418.3,546.38Z"/><path class="cls-1" d="M398.89,522.43c-.69,1.61-.47,4.16-3,5.55s-5.22,4.8-7.77,4.77S374.78,529,374.78,529s3.57-1.27,4.22-2.88.95-7.32,5.82-10,11.09-.52,14.55,2.33S399.63,520.71,398.89,522.43Z"/><path class="cls-1" d="M417.73,550.1c.06.11,4.32,6.55,5.82,10.65l.81-.29c-1.54-4.2-5.71-10.53-5.89-10.79A12.21,12.21,0,0,1,417.4,547a7.86,7.86,0,0,1,1.38,1.13c4.17,4,9.62,6.67,13,6.4,2.88-.24,3.88,4.54,4,5.83.14,1.68,5.52,8.47,6.6,9.81l.67-.54c-2.43-3-6.32-8.25-6.41-9.34-.16-1.81-1.39-6.92-4.92-6.62-3.07.25-8.36-2.4-12.3-6.16-1.4-1.33-2.09-1.69-2.58-1.33C416.6,546.32,416,546.78,417.73,550.1Z"/><path class="cls-1" d="M352.67,530.4a.43.43,0,0,0,.47.22c29.12-6,58.61,13.4,58.91,13.59a.41.41,0,0,0,.59-.12.43.43,0,0,0-.11-.6c-.3-.19-30.09-19.8-59.56-13.72a.43.43,0,0,0-.34.51A.34.34,0,0,0,352.67,530.4Z"/><path class="cls-1" d="M392.11,534.57c4.8,2,11.35-.49,11.63-.6l-.32-.8c-.06,0-6.5,2.51-11,.61Z"/><path class="cls-1" d="M374.9,530.19c7.35,2.32,11.4,12,11.44,12.12l.8-.33c-.17-.42-4.25-10.17-12-12.61Z"/><path class="cls-1" d="M470.37,61.62h-61.3a8.51,8.51,0,0,1,0-17h13.09a1.52,1.52,0,0,1,0,3H409.07a5.48,5.48,0,0,0,0,11h61.3a5.48,5.48,0,1,0,0-11h-25a1.52,1.52,0,0,1,0-3h25a8.51,8.51,0,0,1,0,17Z"/><path class="cls-1" d="M456.67,34.4h-11a1.52,1.52,0,0,1,0-3h11a5.48,5.48,0,0,0,0-11H328.12a5.48,5.48,0,0,0,0,11h94.45a1.52,1.52,0,0,1,0,3H328.12a8.51,8.51,0,1,1,0-17H456.67a8.51,8.51,0,0,1,0,17Z"/><path class="cls-1" d="M386.1,61.62a8.51,8.51,0,1,1,8.51-8.51A8.52,8.52,0,0,1,386.1,61.62Zm0-14a5.48,5.48,0,1,0,5.48,5.48A5.49,5.49,0,0,0,386.1,47.63Z"/><path class="cls-1" d="M422.58,47.63a1.52,1.52,0,0,1,0-3,5.12,5.12,0,1,0,0-10.23,1.51,1.51,0,1,1,0-3,8.14,8.14,0,1,1,0,16.28Z"/><path class="cls-1" d="M444.93,47.63a8.14,8.14,0,1,1,0-16.28,1.51,1.51,0,0,1,0,3,5.12,5.12,0,0,0,0,10.23,1.52,1.52,0,0,1,0,3Z"/><path class="cls-1" d="M177.52,394h0a1.5,1.5,0,0,1-1.5-1.51c0-.92-.31-22.47-24.19-22.47s-25.48,21.63-25.53,22.55a1.51,1.51,0,1,1-3-.16c.47-8.79,7.06-25.42,28.55-25.42,8.32,0,15,2.42,19.7,7.18C179,381.57,179,392,179,392.44A1.51,1.51,0,0,1,177.52,394Z"/><path class="cls-1" d="M247.05,394H247a1.5,1.5,0,0,1-1.45-1.57c0-.29,1.5-28.26,25.57-28.26,9.08,0,16.09,4.13,20.26,11.94a1.51,1.51,0,1,1-2.66,1.43c-3.67-6.87-9.59-10.35-17.6-10.35-8.86,0-15.34,4.22-19.25,12.54a37.71,37.71,0,0,0-3.3,12.83A1.5,1.5,0,0,1,247.05,394Z"/><path class="cls-1" d="M311.9,394h0a1.51,1.51,0,0,1-1.51-1.51h0c0-.63-.18-15.35-13.93-15.35a15.31,15.31,0,0,0-5.84,1.08,1.51,1.51,0,1,1-1.16-2.79,18.18,18.18,0,0,1,7-1.31,15.66,15.66,0,0,1,11.55,4.4c5.35,5.36,5.4,13.62,5.4,14A1.51,1.51,0,0,1,311.9,394Z"/><path d="M335.54,301.32A12.43,12.43,0,1,1,348,288.89,12.44,12.44,0,0,1,335.54,301.32Zm0-21.83a9.41,9.41,0,1,0,9.41,9.4A9.41,9.41,0,0,0,335.54,279.49Z"/><path d="M122.83,394a1.5,1.5,0,0,1-1.51-1.51V180.74a1.51,1.51,0,1,1,3,0v211.7A1.51,1.51,0,0,1,122.83,394Z"/><path class="cls-1" d="M109.94,308.51a73.18,73.18,0,0,1-30.22-7.36c-14.17-7-31.64-22-34.77-54.45a75.14,75.14,0,0,1-19.7-17.17c-8.73-10.8-18-28.93-12.52-53.95s21.37-36,33.74-40.79a67.58,67.58,0,0,1,23-4.39,63,63,0,0,1-6.33-20.92c-1.39-12.25,1-29.83,20-44s35-15,45.18-13.27A43.22,43.22,0,0,1,145,58.56a57.24,57.24,0,0,1,14.88-13.42c9.11-5.54,23.42-9.81,39.84,1.31,9.24,6.26,14.76,14,16.38,23.14,2.29,12.79-3.75,24.33-6.3,28.5,4,1.6,14.1,5.91,21.48,12a1.5,1.5,0,0,1,.2,2.13,1.52,1.52,0,0,1-2.13.2c-8.83-7.32-22.21-12.13-22.35-12.18a1.51,1.51,0,0,1-.72-2.3c.1-.14,9.43-13.42,6.84-27.86C211.61,61.84,206.53,54.73,198,49c-12.11-8.2-24.41-8.61-36.57-1.22a54.17,54.17,0,0,0-14.87,13.79,1.52,1.52,0,0,1-2.2.32,38.72,38.72,0,0,0-16.66-6.71C114,52.87,99.21,57.28,85,67.88,70.6,78.58,64.27,92.47,66.16,109.14a59.61,59.61,0,0,0,7.2,22,1.52,1.52,0,0,1-1.39,2.3,63.78,63.78,0,0,0-24.52,4.17c-16.92,6.55-27.61,19.53-31.76,38.58s-.19,36.37,11.84,51.31a72.15,72.15,0,0,0,19.56,16.9,1.53,1.53,0,0,1,.8,1.2c2.23,25.28,13.36,43,33.06,52.74a70.6,70.6,0,0,0,29.26,7.1,1.52,1.52,0,0,1,.07,3Z"/><path d="M90,122.75a1.5,1.5,0,0,1-1.29-.72c-.13-.21-12.76-21.3,5.85-37.4,9.67-8.37,18.71-8.87,24.6-7.82a25.84,25.84,0,0,1,10.62,4.39,1.52,1.52,0,0,1-1.87,2.39c-.59-.46-14.71-11.08-31.37,3.33s-5.73,32.76-5.25,33.53a1.51,1.51,0,0,1-1.29,2.3Z"/><path d="M335.54,394a1.51,1.51,0,0,1-1.51-1.51V301.19a1.52,1.52,0,0,1,3,0v91.25A1.51,1.51,0,0,1,335.54,394Z"/><path d="M235.74,275.79a12.43,12.43,0,1,1,12.43-12.43A12.44,12.44,0,0,1,235.74,275.79Zm0-21.84a9.41,9.41,0,1,0,9.4,9.41A9.42,9.42,0,0,0,235.74,254Z"/><path d="M122.83,181a12.43,12.43,0,1,1,12.43-12.43A12.44,12.44,0,0,1,122.83,181Zm0-21.83a9.41,9.41,0,1,0,9.41,9.4A9.42,9.42,0,0,0,122.83,159.16Z"/><path class="cls-1" d="M175.67,289.26a12.43,12.43,0,1,1,12.43-12.43A12.44,12.44,0,0,1,175.67,289.26Zm0-21.83a9.41,9.41,0,1,0,9.41,9.4A9.41,9.41,0,0,0,175.67,267.43Z"/><path class="cls-1" d="M237.57,133.56A12.43,12.43,0,1,1,250,121.13,12.44,12.44,0,0,1,237.57,133.56Zm0-21.84a9.41,9.41,0,1,0,9.4,9.41A9.42,9.42,0,0,0,237.57,111.72Z"/><path d="M235.74,394a1.51,1.51,0,0,1-1.52-1.51V274.27a1.52,1.52,0,0,1,3,0V392.44A1.51,1.51,0,0,1,235.74,394Z"/><path class="cls-1" d="M134.22,307.43a1.51,1.51,0,0,1-.32-3c.2,0,19.94-4.47,32.85-20.84a1.51,1.51,0,1,1,2.37,1.87c-13.6,17.25-33.73,21.75-34.59,21.93A1.63,1.63,0,0,1,134.22,307.43Z"/><path class="cls-1" d="M222,315.25a1.52,1.52,0,0,1-.42-.06,89.11,89.11,0,0,1-16.47-7.07c-11.56-6.38-19.55-14.34-23.1-23a1.52,1.52,0,0,1,.82-2,1.53,1.53,0,0,1,2,.83c8,19.5,37.32,28.24,37.61,28.33a1.51,1.51,0,0,1-.42,3Z"/><path class="cls-1" d="M173.9,267.58a1.51,1.51,0,0,1-1.43-1A77.41,77.41,0,0,1,170,236c1.78-15.41,9.3-36.85,34.83-52.14-2.68-5-11.23-23.18-5.27-40.11,3.8-10.77,12.74-18.85,26.57-24a1.51,1.51,0,1,1,1,2.83c-12.94,4.82-21.27,12.27-24.76,22.15-6.4,18.12,5.63,38.69,5.75,38.9a1.54,1.54,0,0,1,.16,1.15,1.51,1.51,0,0,1-.71.93c-20.41,11.79-32.06,28.78-34.61,50.51a76.06,76.06,0,0,0,2.34,29.42,1.52,1.52,0,0,1-1,1.91A1.59,1.59,0,0,1,173.9,267.58Z"/><path class="cls-1" d="M271.36,137.63a1.49,1.49,0,0,1-1.3-.74c-7.12-11.84-21.66-14.25-21.81-14.27a1.51,1.51,0,0,1,.46-3c.66.1,16.08,2.63,23.94,15.71a1.5,1.5,0,0,1-.52,2.07A1.46,1.46,0,0,1,271.36,137.63Z"/><path class="cls-1" d="M246.65,316.74a1.52,1.52,0,0,1-.09-3c.34,0,25.31-2,47.37-27.53a1.51,1.51,0,1,1,2.29,2c-23,26.6-48.4,28.51-49.47,28.58Z"/><path d="M301,290.4A12.43,12.43,0,1,1,313.38,278,12.43,12.43,0,0,1,301,290.4Zm0-21.83a9.41,9.41,0,1,0,9.41,9.4A9.41,9.41,0,0,0,301,268.57Z"/><path d="M282.27,148.54a12.43,12.43,0,1,1,12.43-12.43A12.44,12.44,0,0,1,282.27,148.54Zm0-21.83a9.41,9.41,0,1,0,9.41,9.4A9.41,9.41,0,0,0,282.27,126.71Z"/><path d="M340.76,316.74a21.73,21.73,0,0,1-5.61-.68,1.51,1.51,0,1,1,.78-2.92c6.17,1.65,21.34.47,34.56-15.78,12.48-15.34,1-37.44.92-37.66a1.52,1.52,0,0,1,.28-1.79l14.08-13.8c21.8-32.08,27.15-66.66,27.79-90,.7-25.37-3.83-43.31-3.88-43.49-2.5-11.82-7.9-20-16.05-24.32-15.37-8.19-35.64-.19-35.85-.11a1.51,1.51,0,0,1-1.94-.78C351,74.62,341,67.86,328.34,66.81c-15-1.25-30.42,5.84-38.34,17.65-14.85,22.15-3.08,39.87-2.57,40.61a1.51,1.51,0,0,1-2.49,1.72c-.14-.2-13.48-20.11,2.55-44,8.51-12.7,25-20.32,41.1-19,13.24,1.1,23.88,8,29.4,19.06,5-1.74,22.65-6.94,37.06.74,9,4.78,14.89,13.63,17.58,26.3,0,.12,4.66,18.48,3.95,44.27-.65,23.81-6.11,59.06-28.39,91.78a2.11,2.11,0,0,1-.19.23l-13.41,13.14a54.17,54.17,0,0,1,4.07,13c1.9,10.64-.12,20-5.82,27-6,7.4-13.27,12.75-20.95,15.47A34.06,34.06,0,0,1,340.76,316.74Z"/><path d="M291.63,273.82a1.49,1.49,0,0,1-.61-.13c-24.45-10.93-40.91-36.89-44-69.45-3.25-33.83,26-59.8,27.3-60.89a1.51,1.51,0,1,1,2,2.28c-.29.26-29.38,26.06-26.28,58.32,3,31.46,18.82,56.5,42.26,67a1.51,1.51,0,0,1-.62,2.89Z"/><path d="M290,246.6a1.54,1.54,0,0,1-.84-.26c-.27-.18-26.59-18.38-23.42-49.46s30.77-38.63,31.05-38.7a1.51,1.51,0,1,1,.75,2.93c-1.05.27-25.82,7-28.79,36.08-3,29.25,21.85,46.47,22.1,46.65a1.51,1.51,0,0,1-.85,2.76Z"/><circle cx="140.6" cy="86.15" r="3.5"/><circle cx="304.85" cy="246.9" r="3.9"/><circle cx="456.12" cy="375.59" r="3.5"/><circle cx="360.86" cy="354.5" r="3.5"/><path d="M436.83,377.1H359.9a1.51,1.51,0,1,1,0-3h76.93a1.51,1.51,0,0,1,0,3Z"/><path d="M416.72,356H376.29a1.51,1.51,0,1,1,0-3h40.43a1.51,1.51,0,0,1,0,3Z"/><line class="cls-2" x1="102.46" y1="419.91" x2="102.46" y2="330.08"/><path class="cls-2" d="M208.5,552.82h-86a20,20,0,0,1-20-20"/></svg>