<svg id="Layer_1" data-name="Layer 1" xmlns="http://www.w3.org/2000/svg" viewBox="0 0 162 66"><defs><style>.cls-1{fill:#ff007a;fill-rule:evenodd;}</style></defs><path class="cls-1" d="M11.54,18.2c3.5,4.29,7.34,9.68,8,10.55l.07.1c.33.46.61.8.81,1.07h0c.46.57.6.75.33.9A1.32,1.32,0,0,1,20,31a1.12,1.12,0,0,1-.76-.33c-.15-.14-1.18-1.64-2.57-3.83-1.07-1.67-2-3.06-2-3.08s-.05-.05,1.88,3.44c1.21,2.19,2,3.81,2,3.91s-.06.32-.31.61a3.59,3.59,0,0,0-.76,2.16,6.78,6.78,0,0,1-1.8,3.67,7.32,7.32,0,0,0-1,1.42,2.71,2.71,0,0,0-.31,1.27,4,4,0,0,0,.21,1.58,6,6,0,0,0,.75,1.51A3.4,3.4,0,0,1,16,44.49c0,.13,0,.13.6,0A6.13,6.13,0,0,0,19.68,43a1.45,1.45,0,0,0,.48-1.22,1.19,1.19,0,0,0-.11-.66A2.9,2.9,0,0,0,18.94,40a2.53,2.53,0,0,1-1.32-1.72,3,3,0,0,1,.49-1.91,5.82,5.82,0,0,0,.69-2.52c.05-.68.13-.94.32-1.15s.38-.3.87-.37a2.94,2.94,0,0,0,1.75-.72,1.54,1.54,0,0,0,.54-1.16l0-.38-.21-.24c-.74-.87-11-12.3-11.09-12.3S11.23,17.83,11.54,18.2ZM16.4,40.92a.67.67,0,0,0-.2-.88c-.27-.17-.68-.09-.68.14a.19.19,0,0,0,.13.17c.14.08.16.16,0,.34s-.11.33,0,.44A.45.45,0,0,0,16.4,40.92Zm5.05-16.36c-.33,0-.35,0-.19-.08a5.25,5.25,0,0,1,1.49.14A6.44,6.44,0,0,1,26,26.82l.29.33.42-.07a8.82,8.82,0,0,1,5.06.65,6.29,6.29,0,0,1,1.14.67,1.84,1.84,0,0,1,.11.45,2.86,2.86,0,0,1-.17,1.74.46.46,0,0,0,0,.51.47.47,0,0,0,.43.27c.37,0,.77-.61,1-1.45l.07-.34.15.17A6.57,6.57,0,0,1,36,32.81L36,33l-.14-.21a2.59,2.59,0,0,0-.76-.81,4.79,4.79,0,0,0-2.61-.56,10.46,10.46,0,0,1-2.9-.44c-1.3-.43-1.95-1-3.5-3.05a13.91,13.91,0,0,0-1.53-1.81A5.49,5.49,0,0,0,21.45,24.56Zm11.78,2a3.51,3.51,0,0,1,.28-1.37,1.27,1.27,0,0,1,.13-.27,1,1,0,0,1-.06.24,3.18,3.18,0,0,0-.06,1.41c.11.72.17.82.92,1.6.35.36.76.82.91,1l.27.36-.27-.26a12,12,0,0,0-1.26-1c-.11-.06-.13-.06-.2,0s-.07.16-.08.62a3.49,3.49,0,0,1-.35,1.63c-.12.25-.14.19,0-.09s.1-.3.1-1c0-1.38-.17-1.72-1.12-2.29-.25-.14-.65-.35-.89-.46a4,4,0,0,1-.43-.21,8.57,8.57,0,0,1,1.33.39c.56.22.65.24.72.22S33.21,27,33.23,26.59ZM21.09,25.53a5.73,5.73,0,0,0,1,3.44A3.22,3.22,0,0,0,24,30.31c.39,0,.51-.09.33-.35a6.76,6.76,0,0,1-.62-1.16c0-.15-.16-.58-.24-1-.28-1.32-.56-1.83-1.19-2.22a3.9,3.9,0,0,0-1-.38l-.15,0ZM32.41,35.92c-3.14-1.28-4.24-2.39-4.24-4.26a3.37,3.37,0,0,1,0-.5l.27.2c.64.52,1.35.74,3.32,1a13.73,13.73,0,0,1,2.42.51,4.65,4.65,0,0,1,3.38,3.72,6.06,6.06,0,0,1-.1,2A3.7,3.7,0,0,1,37,39.77s0-.09,0-.21a2.55,2.55,0,0,0-.93-1.8A12.6,12.6,0,0,0,32.41,35.92Zm-2.35-.14a6.45,6.45,0,0,1,.15.67,2.73,2.73,0,0,1-2.06,3.2c-.16.05-.8.18-1.42.28a8.14,8.14,0,0,0-2.36.63,3.84,3.84,0,0,0-.85.51.57.57,0,0,0,.2,0,9.08,9.08,0,0,1,2.68-.45c.48,0,1-.06,1.2-.09A3.74,3.74,0,0,0,30,39.44a2.84,2.84,0,0,0,.66-1.06,2,2,0,0,0,.11-.86,2,2,0,0,0-.12-.89,3,3,0,0,0-.5-.93L30,35.53ZM31.65,39a3.75,3.75,0,0,1-.29-2.6c0-.08.07-.16.09-.16a1.33,1.33,0,0,1,.22.12c.19.13.58.35,1.6.92a7.62,7.62,0,0,1,2.51,1.88,4,4,0,0,1,.84,1.92,6.74,6.74,0,0,1-.08,1.9,4.74,4.74,0,0,1-2.29,3.07l-.33.16a1.11,1.11,0,0,1,.13-.35,3.12,3.12,0,0,0,.14-2.47,10.69,10.69,0,0,0-1.27-2.31A16.37,16.37,0,0,1,31.65,39Zm-7.86,3a8.39,8.39,0,0,0-3.93,1.91l-.35.3.31,0a4.21,4.21,0,0,1,3.12,1.62,2.51,2.51,0,0,0,1.37.94,1.48,1.48,0,0,0,1.8-.86,1.62,1.62,0,0,0,0-1.09,1.13,1.13,0,0,0-1.7-.36.59.59,0,0,0,.2,1c.11,0,.11,0,0,0a.42.42,0,0,1-.3-.42.69.69,0,0,1,1-.52.76.76,0,0,1,.52.78,1,1,0,0,1-1.09,1,1.59,1.59,0,0,1-.9-.48A1.21,1.21,0,0,1,24.25,44a1.88,1.88,0,0,1,1.84.16c.65.43.93.83,1.49,2.12a8.45,8.45,0,0,0,.52,1A2.27,2.27,0,0,0,30,48.48a2.34,2.34,0,0,0,1.14-.28,2.57,2.57,0,0,0,.68-.46,1.25,1.25,0,0,0-.27.08,2.38,2.38,0,0,1-2.18,0,2.18,2.18,0,0,1-.69-1.26c0-.1-.09-.54-.16-1a4.69,4.69,0,0,0-.72-2.17,3.47,3.47,0,0,0-2-1.29A5.86,5.86,0,0,0,23.79,42Zm-1.85-8.54a1.44,1.44,0,0,1,.87-.94,1.63,1.63,0,0,1,1,.09,1.25,1.25,0,0,1,.71,1.15c-.09.46-.84.84-1.7.84-.44,0-.6-.05-.77-.28A1.4,1.4,0,0,1,21.94,33.46Zm1.72-.68a.34.34,0,0,1,.15.53.83.83,0,0,1-.58.26c-.31,0-.65-.22-.65-.43C22.58,32.73,23.23,32.51,23.66,32.78ZM91.29,34c-.71-2.34.45-4.28,2.93-4.9a17.06,17.06,0,0,1,4.48.11c.2.08.29.37.29,1a6.1,6.1,0,0,0,.12,1.3c.09.35,0,.42-.34.41s-.54-.2-.82-.8c-.45-.95-1-1.25-2.28-1.25-1.64,0-2.83,1.09-2.64,2.42.13.86,1,1.71,2.93,2.88A9,9,0,0,1,99.31,38c1.15,2.19.17,4.54-2.39,5.72a7.63,7.63,0,0,1-5,.14l-1-.33V41.9c0-1.44,0-1.59.36-1.59s.39.18.49.75a2.64,2.64,0,0,0,2.83,2.26A2.85,2.85,0,0,0,97.49,41a1.75,1.75,0,0,0-.2-1.56c-.4-.83-1.1-1.38-3.46-2.75A5.24,5.24,0,0,1,91.29,34ZM44.94,30c-.32,0-.45-.11-.45-.38s.13-.37,2.66-.37c2.34,0,2.64,0,2.59.3s-.36.4-.72.52l-.66.21-.06,4.79a36.13,36.13,0,0,0,.16,5.55A3.39,3.39,0,0,0,52,42.94a3.76,3.76,0,0,0,3-1.19c1-1,1.18-1.86,1.17-6.59s-.08-5-1.08-5.14c-.46-.05-.61-.16-.61-.43s.15-.36,2.26-.36,2.26,0,2.26.37-.12.38-.33.38c-.87,0-.89.09-1,5.21-.13,5.31-.24,5.94-1.32,7.24a6,6,0,0,1-1.64,1.21,5.07,5.07,0,0,1-3,.52,5.74,5.74,0,0,1-2.82-.43,4.88,4.88,0,0,1-2.43-2.19c-.38-.71-.41-1.09-.5-5.85C45.9,30.24,45.85,30,44.94,30Zm17.65,0c-.43,0-.56-.08-.56-.38s.12-.37,1.93-.36l1.94,0,.92,1.06c.51.59,2.17,2.42,3.68,4.08s3.26,3.57,3.87,4.27a7.26,7.26,0,0,0,1.28,1.27,29.3,29.3,0,0,0,.11-4.53l-.06-4.52-.53-.46a1.89,1.89,0,0,0-1-.45c-.34,0-.46-.1-.46-.38s.1-.38,2.59-.33c2.13,0,2.6.1,2.6.33s-.27.32-.63.4a2.08,2.08,0,0,0-.85.35c-.16.15-.24,2.14-.28,6.87l-.05,6.66h-.55c-.47,0-1-.53-4-3.8-1.91-2.09-4.15-4.58-5-5.53a15.9,15.9,0,0,0-1.63-1.74A65.41,65.41,0,0,0,66,42.06c.17.62.29.73,1,.93.59.16.84.32.84.56s-.23.33-2.64.33-2.64,0-2.64-.35.17-.39.55-.46c1.15-.23,1.23-.6,1.3-6.16a42.57,42.57,0,0,0-.15-5.76A1.52,1.52,0,0,0,62.59,30Zm19.77,0c-.41,0-.53-.09-.53-.38s.12-.37,2.83-.37,2.82,0,2.82.37S87.36,30,87,30a1.4,1.4,0,0,0-.85.38c-.38.38-.39.56-.33,6.31s.07,5.94.42,6.2a1.65,1.65,0,0,0,.8.26c.31,0,.43.11.43.38s-.12.37-2.82.37-2.83,0-2.83-.35.18-.38.75-.47c1.11-.18,1.17-.54,1.1-7-.06-5.2-.08-5.52-.43-5.77A1.73,1.73,0,0,0,82.36,30Zm19.73,0a.5.5,0,0,1-.52-.38c-.09-.36,0-.37,2.71-.37s2.81,0,2.81.37-.12.38-.54.38c-1.19,0-1.16.22.64,5.13.91,2.5,1.8,4.88,2,5.28l.31.73,1.44-3.83c1.7-4.51,1.92-5.35,1.63-6.17A2,2,0,0,0,111,30c-.17,0-.29-.16-.29-.38s.12-.37,2.92-.37,2.92,0,2.92.37-.12.38-.43.38c-.8,0-1.15.42-1,1.24s3.36,9.9,3.49,9.76,3.82-10,3.82-10.35-.32-.65-1.06-.65c-.33,0-.45-.1-.45-.38s.12-.37,2.26-.37c1.92,0,2.26,0,2.26.29s-.23.37-.52.47c-.65.23-.81.48-1.62,2.56-.35.91-1.47,3.76-2.47,6.34s-1.88,4.79-1.93,4.93-.36.25-.69.25h-.6l-1.35-3.52c-.75-1.94-1.63-4.23-2-5.1-.57-1.49-.61-1.55-.83-1.13-.12.25-1,2.55-2,5.11l-1.76,4.66L109,44l-.65-.05-2.51-6.56a72.28,72.28,0,0,0-2.92-7A1.42,1.42,0,0,0,102.09,30Zm37.7.08a1.52,1.52,0,0,1,0-.33.22.22,0,0,1,0-.14c0-.05.05-.05.19-.06h0c.51-.05,1.53-.13,2.38-.17h.27c.93-.05,2.61-.1,3.77,0,2.21.11,3.79,1.18,4.32,2.94a5.29,5.29,0,0,1-.48,4.49,4.4,4.4,0,0,1-4,1.91,3.86,3.86,0,0,1-2.5-.62l-.23-.15v2.26a10.93,10.93,0,0,0,.15,2.55c.16.36.52.59,1.23.76a1.35,1.35,0,0,1,.4.16.58.58,0,0,1,0,.51.24.24,0,0,1-.2.06l-3.13,0h-1.89s-.19,0-.27,0a.44.44,0,0,1-.07-.24.48.48,0,0,1,.11-.26,1.48,1.48,0,0,1,.41-.17c.72-.21,1-.42,1.2-.83s.14-.94.14-5.9c0-4.71,0-5.59-.12-5.85s-.56-.47-1.13-.61h0l-.36-.09S139.82,30.13,139.79,30.06Zm9.11,3.84a3.62,3.62,0,0,1-.84,2.76,4.49,4.49,0,0,1-3.54.77,2.36,2.36,0,0,1-.69-.25h0l-.28-.15,0-2.72c0-1.7,0-2.8.05-3,0-.9,1.36-1,2-1C148.33,30.36,148.82,32.69,148.9,33.9Zm-17.79-4.57-.34.13-.74.38-.53,1.33c-.3.73-.83,2.07-1.19,3-.66,1.65-1.09,2.74-1.55,3.87-.14.34-.54,1.35-.9,2.26s-.73,1.77-.81,1.92l0,.08c-.2.38-.55,1-1.18,1.14a.91.91,0,0,0-.46.16.31.31,0,0,0-.12.23V44a.17.17,0,0,0,.09.12.66.66,0,0,0,.16,0l2.27,0h2.35s.17,0,.23,0a.23.23,0,0,0,.08-.13v-.17a.48.48,0,0,0-.12-.25,1.54,1.54,0,0,0-.44-.12,1.12,1.12,0,0,1-1-1.47c.06-.31.44-1.48.86-2.65l.15-.4,2.46,0c1.35,0,2.52,0,2.59,0s.26.33.7,1.41c.66,1.64.72,1.84.57,2.14l0,.06a1.35,1.35,0,0,1-1.08.93s-.36,0-.45.12a.31.31,0,0,0-.07.23v.17a.27.27,0,0,0,.07.13.17.17,0,0,0,.12,0l2.24,0h3.13s.13,0,.16,0a.35.35,0,0,0,0-.1v-.22a.34.34,0,0,0-.07-.18,1.88,1.88,0,0,0-.47-.13,1.44,1.44,0,0,1-1-.83l-.14-.22a10.65,10.65,0,0,1-.66-1.43l-1.25-3.22-1.36-3.5-1.31-3.37-.18-.47h0c-.28-.71-.39-1-.42-1S131.11,29.33,131.11,29.33ZM131,33.65l-.39-1c-.2-.52-.28-.64-.35-.54s-.15.39-.29.8l-1.4,4a2,2,0,0,0-.1.32,13.46,13.46,0,0,0,2,.06c1.11,0,2,0,2,0s-.1-.26-.22-.55l-.65-1.61Z"/></svg>