<svg xmlns="http://www.w3.org/2000/svg" viewBox="0 0 292.89 332.66"><defs><style>.cls-1{fill:#0dc65c;}.cls-2{fill:#0db45c;}.cls-3{font-size:39.81px;font-family:BalooTamma-Regular, Baloo Tamma;}.cls-4{letter-spacing:0.01em;}.cls-5{letter-spacing:0em;}.cls-10,.cls-11,.cls-6,.cls-7,.cls-8,.cls-9{fill:none;stroke-linecap:round;stroke-linejoin:round;}.cls-11,.cls-6,.cls-8{stroke:#000;}.cls-6,.cls-7{stroke-width:6px;}.cls-10,.cls-11,.cls-6{stroke-dasharray:15 19;}.cls-10,.cls-7,.cls-9{stroke:#0dc65c;}.cls-10,.cls-11,.cls-8,.cls-9{stroke-width:4px;}</style></defs><g id="Layer_2" data-name="Layer 2"><g id="Layer_1-2" data-name="Layer 1"><path class="cls-1" d="M121.74,295.71l-11.45-.24,11.56-17.17-.13-10.72c0-.14,0-.27,0-.41s-.06-1.13-.06-1.26l0-.39h0c0-.2-.09-.5-.28-1.29a9.82,9.82,0,0,0-.66-1.93,1.49,1.49,0,0,0-.28-.58c-.16-.21-.36-.36-.65-.2h0c-.27.34-.16.74-.17,1.12a14.43,14.43,0,0,1-.72,4.27,3.69,3.69,0,0,1-.29.64h-.52l-.08-.14c-.16-.22-1.23-2.14-1.71-2.84-.63-.93-1.23-1.89-1.94-2.76a6.51,6.51,0,0,0-2.28-1.95h0l-.32-.13-.23-.07a.38.38,0,0,0-.49.38,5.19,5.19,0,0,0,.19,1.36c.13.73.32,2.46.34,2.59l0,.36s0,.33,0,.5c0,.47,0,1.72,0,2.71H98l-.08,10.73h11.5L97.77,295.23l-.1,10.25,24.39.8Z"/><path class="cls-2" d="M108.91,264.8v0h0Z"/><text class="cls-3" transform="translate(124.36 305.87)">N<tspan class="cls-4" x="27.03" y="0">F</tspan><tspan class="cls-5" x="48.73" y="0">T</tspan></text><path class="cls-6" d="M275.79,208.56A143.52,143.52,0,0,0,247.88,45"/><path class="cls-7" d="M21.6,217.16A143.47,143.47,0,0,1,247.88,45"/><line class="cls-8" x1="39.04" y1="228.12" x2="253.85" y2="228.12"/><circle class="cls-8" cx="28.07" cy="228.12" r="10.97"/><circle class="cls-8" cx="264.82" cy="228.12" r="10.97"/><line class="cls-9" x1="71.75" y1="251.18" x2="219.41" y2="251.18"/><path d="M97.38,41.5h0m96.05.64L223.7,72.41v4.73H69.57V72.29L96.81,42.14h96.62m.81-4H95.94a2.05,2.05,0,0,0-1.52.68L66.1,70.16a2.07,2.07,0,0,0-.53,1.38v7.54a2.06,2.06,0,0,0,2.06,2.06h158a2.06,2.06,0,0,0,2.06-2.06V71.6a2.07,2.07,0,0,0-.6-1.45L195.69,38.74a2.07,2.07,0,0,0-1.45-.6Z"/><rect x="91.41" y="84.08" width="8.88" height="64.4" rx="0.75"/><rect x="191.35" y="84.08" width="8.88" height="64.4" rx="0.75"/><rect x="75.87" y="152.92" width="139.9" height="6.66" rx="1.68"/><path class="cls-1" d="M220.16,173.93,216,164.68a.84.84,0,0,0-.77-.5h-38.1a.84.84,0,0,0-.83,1l1.24,9.25a.85.85,0,0,0,.84.73h41A.84.84,0,0,0,220.16,173.93Z"/><path class="cls-1" d="M178.37,180.52l1.26,9.42a.85.85,0,0,0,.84.73h45.92a.84.84,0,0,0,.77-1.19l-4.23-9.42a.85.85,0,0,0-.78-.49h-43A.84.84,0,0,0,178.37,180.52Z"/><path class="cls-1" d="M173,174.17l-1.24-9.26a.83.83,0,0,0-.83-.73H120.8a.84.84,0,0,0-.84.73l-1.24,9.26a.85.85,0,0,0,.84,1h52.61A.84.84,0,0,0,173,174.17Z"/><path class="cls-1" d="M117.91,180.3l-1.26,9.41a.85.85,0,0,0,.84,1h56.75a.85.85,0,0,0,.84-1l-1.25-9.41a.85.85,0,0,0-.84-.73H118.74A.83.83,0,0,0,117.91,180.3Z"/><path class="cls-1" d="M114.19,174.39l1.25-9.25a.85.85,0,0,0-.84-1H76.43a.84.84,0,0,0-.78.52L71.77,174a.85.85,0,0,0,.78,1.17h40.8A.84.84,0,0,0,114.19,174.39Z"/><path class="cls-1" d="M69.2,180.08l-3.94,9.42a.84.84,0,0,0,.78,1.17h45.22a.85.85,0,0,0,.84-.73l1.27-9.42a.85.85,0,0,0-.84-1H70A.84.84,0,0,0,69.2,180.08Z"/><path d="M79.27,203.39v34.26a3.29,3.29,0,0,0,3,3.49h127a3.29,3.29,0,0,0,3-3.49V203.39"/><path d="M226.33,194.85c.59,0,1.07.26,1.07.59v6.08c0,.33-.48.59-1.07.59H67.74c-.59,0-1.07-.26-1.07-.59v-6.08c0-.33.48-.59,1.07-.59H226.33m0-4H67.74a4.8,4.8,0,0,0-5.07,4.59v6.08a4.79,4.79,0,0,0,5.07,4.59H226.33a4.79,4.79,0,0,0,5.07-4.59v-6.08a4.8,4.8,0,0,0-5.07-4.59Z"/><line class="cls-10" x1="201.98" y1="209.38" x2="118.21" y2="209.38"/><line class="cls-11" x1="128.86" y1="69.39" x2="210.98" y2="69.39"/></g></g></svg>