<svg xmlns="http://www.w3.org/2000/svg" viewBox="0 0 292.89 364.13"><defs><style>.cls-1{fill:#0dc65c;}.cls-2{fill:#0db45c;}.cls-3{font-size:39.81px;font-family:BalooTamma-Regular, Baloo Tamma;letter-spacing:-0.01em;}.cls-4{letter-spacing:0em;}.cls-5{fill:#fe0000;}.cls-6,.cls-7,.cls-8,.cls-9{fill:none;stroke-linecap:round;stroke-linejoin:round;}.cls-6,.cls-8{stroke:#000;}.cls-6,.cls-7{stroke-width:6px;}.cls-6{stroke-dasharray:15 19;}.cls-7,.cls-9{stroke:#0dc65c;}.cls-8,.cls-9{stroke-width:4px;}</style></defs><g id="Layer_2" data-name="Layer 2"><g id="Layer_1-2" data-name="Layer 1"><path class="cls-1" d="M120.32,297.2,108.87,297l11.55-17.17-.13-10.72c0-.13,0-.27,0-.41s0-1.13-.06-1.26l0-.39h0c0-.2-.1-.5-.29-1.29a10.28,10.28,0,0,0-.66-1.93,1.49,1.49,0,0,0-.28-.58c-.16-.21-.36-.36-.65-.2h0c-.27.34-.16.74-.17,1.12a14.37,14.37,0,0,1-.72,4.27,3.07,3.07,0,0,1-.29.64h-.52l-.08-.14c-.15-.21-1.23-2.14-1.7-2.83-.64-.94-1.23-1.9-2-2.77a6.51,6.51,0,0,0-2.28-1.95h0l-.32-.13-.23-.07a.38.38,0,0,0-.49.38,5.65,5.65,0,0,0,.19,1.36c.14.73.32,2.46.34,2.59l0,.36s0,.33,0,.5c0,.47,0,1.72,0,2.71H96.53l-.08,10.73H108L96.35,296.72,96.24,307l24.4.8Z"/><path class="cls-2" d="M107.48,266.29v0h0Z"/><text class="cls-3" transform="translate(122.93 307.36)">P<tspan class="cls-4" x="22.73" y="0">ad</tspan></text><path class="cls-5" d="M112.48,364c.09,0,.13,0,.16.08S112.52,364.08,112.48,364Z"/><path class="cls-6" d="M275.79,208.56A143.52,143.52,0,0,0,247.88,45"/><path class="cls-7" d="M21.6,217.16A143.47,143.47,0,0,1,247.88,45"/><line class="cls-8" x1="39.04" y1="228.12" x2="253.85" y2="228.12"/><circle class="cls-8" cx="28.07" cy="228.12" r="10.97"/><circle class="cls-8" cx="264.82" cy="228.12" r="10.97"/><line class="cls-9" x1="71.75" y1="251.18" x2="219.41" y2="251.18"/><path class="cls-1" d="M173.45,208.14c3.29-.87,6.68-1.48,9.86-2.65,20-7.34,29.44-32.09,19.59-51-.2-.37-.45-.72-.48-.78-1.78,2.88-3.25,6.09-5.44,8.68-8.41,9.92-21.31,12-33.5,5.76-6.32-3.22-11.78-7.59-17.13-12.14-2.29-2-4.74-3.69-7.48-5.81-1.36,2.75-2.6,4.93-3.56,7.23C127,177.57,139,201.5,160.16,206.83c1.94.49,3.91.88,5.87,1.31Z"/><path d="M127.25,44.14h0a16.71,16.71,0,0,1,7.28,1.68,158.24,158.24,0,0,0,15.07,5.81c1.83.64,3.73,1.3,5.57,2q8.93,3.24,17.86,6.45l12.08,4.35A11.79,11.79,0,0,1,191,68.63c1.23,1.73,2.51,3.46,3.74,5.12,2.46,3.32,4.78,6.46,6.86,9.79,2.82,4.5,5.34,9.4,7.79,14.13l1.08,2.11a6.58,6.58,0,0,1,.29,5.59L207,115.46c-1.81,4.86-3.67,9.87-5.53,14.83a41.31,41.31,0,0,0-4-5.35,63.35,63.35,0,0,0-12.29-10.6c.19-.63.37-1.25.54-1.85s.28-1,.43-1.47a4,4,0,0,0-2.17-4.78c-4.49-2.06-8.3-5.53-12.35-11.24a4,4,0,0,0-3.26-1.68,3.88,3.88,0,0,0-1.78.42A24.41,24.41,0,0,1,155.22,96c-1,0-2.12,0-3.37-.1h-.21a4,4,0,0,0-3.65,5.64l.12.28a4.78,4.78,0,0,0,.69,1.25l1.52,2c2.91,3.78,5.91,7.69,8.9,11.51a7.52,7.52,0,0,0,2.52,2l.2.11c1.74.94,3.5,1.87,5.21,2.76,3.77,2,7.34,3.86,10.77,6a34.56,34.56,0,0,1,12.16,12.39c3,5.5,2.11,9.94.79,12.71a15.51,15.51,0,0,1-11.27,8.23,14.16,14.16,0,0,1-2.43.21c-2.87,0-5.93-.88-9.64-2.78-5.2-2.66-9.85-6.55-14.15-10.3-3.44-3-6.89-5.82-11.42-7.49-5-1.83-8.88-3.42-12.36-5-8.66-4-15.35-9-20.43-15.3-4.33-5.39-6.92-11.91-9.2-18.13q-.85-2.34-1.7-4.68c-2.08-5.7-4.23-11.6-6.53-17.36A30.93,30.93,0,0,0,82.46,66.8c-.25-.2-.43-.36-.57-.49.09-.17.22-.39.41-.68a30.61,30.61,0,0,1,9.17-9.06c8.61-5.71,18.79-9.54,32-12a19.41,19.41,0,0,1,3.76-.38m0-4a23.61,23.61,0,0,0-4.51.45c-11.9,2.26-23.28,5.89-33.48,12.65A34.74,34.74,0,0,0,78.93,63.47c-1.9,3-1.67,4.29,1,6.45A27.31,27.31,0,0,1,88,81.38c2.9,7.24,5.51,14.6,8.2,21.92,2.5,6.82,5.23,13.53,9.83,19.27,5.88,7.34,13.41,12.56,21.89,16.43,4.13,1.88,8.37,3.55,12.63,5.12,4,1.46,7.08,4.06,10.18,6.75,4.66,4.07,9.41,8,15,10.85a25.17,25.17,0,0,0,11.46,3.22,18.44,18.44,0,0,0,3.12-.27c11.78-2.08,20.28-14.2,13.28-26.82A38.49,38.49,0,0,0,180.05,124c-5.2-3.28-10.78-6-16.19-8.9a4.81,4.81,0,0,1-1.49-1c-3.49-4.46-6.94-9-10.4-13.46a6.11,6.11,0,0,1-.33-.73c1.2.07,2.4.11,3.58.11a28.58,28.58,0,0,0,13.1-2.69c3.69,5.2,8,9.81,13.94,12.56-.5,1.69-.92,3.31-1.48,4.88-.35,1-.05,1.48.8,2a60.66,60.66,0,0,1,12.84,10.8,36.69,36.69,0,0,1,7.26,12.32c.89-1.93,1.75-3.54,2.39-5.23,3.49-9.29,6.93-18.61,10.4-27.92a10.61,10.61,0,0,0-.48-8.82c-2.89-5.57-5.71-11.21-9-16.52s-7.15-10.07-10.73-15.1a15.66,15.66,0,0,0-7.75-5.68c-10-3.61-20-7.18-29.93-10.8-6.81-2.48-13.78-4.6-20.32-7.65a20.81,20.81,0,0,0-9-2Z"/></g></g></svg>